<mxfile host="app.diagrams.net" agent="Mozilla/5.0 (Windows NT 10.0; Win64; x64) AppleWebKit/537.36 (KHTML, like Gecko) Chrome/141.0.0.0 Safari/537.36" version="26.0.6">
  <diagram name="Page-1" id="OTC-XmU0zdagQcul0nr1">
    <mxGraphModel dx="1687" dy="1049" grid="0" gridSize="10" guides="1" tooltips="1" connect="1" arrows="1" fold="1" page="1" pageScale="1" pageWidth="850" pageHeight="1100" math="0" shadow="0">
      <root>
        <mxCell id="0" />
        <mxCell id="1" parent="0" />
        <mxCell id="wgLTDH14QdpL1y7HmuoE-26" value="" style="group" vertex="1" connectable="0" parent="1">
          <mxGeometry x="61" y="15" width="270" height="520" as="geometry" />
        </mxCell>
        <mxCell id="wgLTDH14QdpL1y7HmuoE-3" value="" style="verticalLabelPosition=bottom;verticalAlign=top;html=1;shadow=0;dashed=0;strokeWidth=1;shape=mxgraph.android.phone2;fillColor=#000000;strokeColor=#000000;fontColor=#333333;" vertex="1" parent="wgLTDH14QdpL1y7HmuoE-26">
          <mxGeometry width="270" height="520" as="geometry" />
        </mxCell>
        <mxCell id="wgLTDH14QdpL1y7HmuoE-13" value="" style="verticalLabelPosition=bottom;verticalAlign=top;html=1;shadow=0;dashed=0;strokeWidth=1;strokeColor=none;shape=rect;fillColor=#33b5e5;points=[[0,0,0,0,0],[0,0.25,0,0,0],[0,0.5,0,0,0],[0,0.75,0,0,0],[0,1,0,0,0],[0.25,0,0,0,0],[0.25,1,0,0,0],[0.5,0,0,0,0],[0.5,1,0,0,0],[0.75,0,0,0,0],[0.75,1,0,0,0],[1,0,0,0,0],[1,0.25,0,0,0],[1,0.5,0,0,0],[1,0.75,0,0,0],[1,1,0,0,0]];" vertex="1" parent="wgLTDH14QdpL1y7HmuoE-26">
          <mxGeometry x="12" y="47" width="248" height="426" as="geometry" />
        </mxCell>
        <mxCell id="wgLTDH14QdpL1y7HmuoE-19" value="&lt;h2&gt;&lt;font face=&quot;Tahoma&quot; style=&quot;font-size: 21px; color: rgb(255, 255, 255);&quot;&gt;Mine Sweeper&lt;/font&gt;&lt;/h2&gt;" style="rounded=1;whiteSpace=wrap;html=1;fillColor=#0000CC;strokeColor=#333333;opacity=60;" vertex="1" parent="wgLTDH14QdpL1y7HmuoE-26">
          <mxGeometry x="33.25" y="61" width="203.5" height="36" as="geometry" />
        </mxCell>
        <mxCell id="wgLTDH14QdpL1y7HmuoE-21" value="" style="shape=image;verticalLabelPosition=bottom;labelBackgroundColor=default;verticalAlign=top;aspect=fixed;imageAspect=0;image=data:image/png,iVBORw0KGgoAAAANSUhEUgAABAAAAAQACAYAAAB/HSuDAAAACXBIWXMAAAsTAAALEwEAmpwYAAAAtGVYSWZJSSoACAAAAAYAEgEDAAEAAAABAAAAGgEFAAEAAABWAAAAGwEFAAEAAABeAAAAKAEDAAEAAAACAAAAEwIDAAEAAAABAAAAaYcEAAEAAABmAAAAAAAAAEgAAAABAAAASAAAAAEAAAAGAACQBwAEAAAAMDIxMAGRBwAEAAAAAQIDAACgBwAEAAAAMDEwMAGgAwABAAAA//8AAAKgBAABAAAAAAQAAAOgBAABAAAAAAQAAAAAAABvU8/zAAAgAElEQVR4nOzdCXxU1dk/8N9z70z2DQh7kFWURUERWTJhyAZIFVeqdWvrXq1Lte5tra1Wu711a7VWq9VarfTfRWuL7NFEsErFDagissqSBAJJyDZzz/9zJ1AtIlsy59w78/u+H4oizDmQCW+e5z4LQERERERERERERERERERERERERERERERERERERERERERERERERERERERERERERERERERERERERERERERERERERERERERERERERERERERERERERERERERERERERERERERERERERERERERERERERERERERERERERERERERERERERPR5so8fIyIiIiIiIk3C4XBWih0pUgqjAHQHkCbAdih8KMp5fU7F4pWm70iJgQkAIiIiIiIiA0pLJ06wHLkBwJcASfuin6eAlVDqEQlmPDZ37txGvbekRMIEABERERERkUbl5RN6qIj9gABnH8qvU1AblLK+OX/Rq3+L3+0okdmmL0BERERERJQsppYUHe84WCiQiYf6awWSI4KzBw3sl7F6zfr58bkhJTImAIiIiIiIiHQF/8qZL5AeHXgZEUjhoIH9uq9es/4fnXg9SgJMABAREREREcVZScm4nlCysIPB/38JZOygQf1qV3+8/l+d8XqUHCzTFyAiIiIiIkpwYqnAYwIp6NRXdfCz0tLQ0E59TUpoTAAQERERERHFUdnkwmsEcnJnv66IpIqj7uzs16XExS0AREREREREcVIenjASlu2W6afH5wQViUp0wIIFSzbG5/UpkbACgIiIiIiIKA7Gjx+fDrH+GL/g3yUBywl8NX6vT4mECQAiIiIiIqI4yE6zfw6R4fE/SZ0Z/zMoEbAFgIiIiIiIqJOVFU+cLrD+rivmciwMnj+/crWOs8i/WAFARERERETUySv/RFm/1fnAVaLqdF1nkX8xAUBERERERNRJ7rgDlq2Cv4egp9aDBUwA0AHZB/4pREREREREdDBSrKJvA7hc+8FKCgYNKXhs9er19drPJt9gBQAREREREVEnmFpSdLxS6i4TZ4vAkoh1momzyT+YACAiIiIiIuqg8vLyzKhSz4ggxdglRJ1h7GzyBSYAiIiIiIiIOiqy6z4BjjZ8i3Bp6dhuhu9AHsYEABERERERUQeUFReeAcglpu8BSECc1Bmmb0HexQQAERERERHRYSopGd9XlDwKz2AbAH0xJgCIiIiIiIgOe+Wf/QwE3im7VyifNu3EHNPXIG8KmL4AEREREREdmNvbbTupAyBODpS1s8Wx11ZUVNSYvlcyq6oI3SKCMDxERFKjTSnTATxn+i7kPWL6AkREREREtG+lpRPGWlH7IgDTIThi7/+uoDYA8g9lOU/On//aYjO3TE5TSopOVEpVAgjCYxTUn+YtrJpp+h7kPUwAEBERERF5TElJaLitcL87X+5gf41S6hVL5Po5CyuXxvd2NGPixOymFOstCAbDg5RSjQ3N0e5LlixpMn0X8hbOACAiIiIi8pCykolXWI7696EE/y4RmeQo9XpZceEvvxQKdYnfDakpxXrIq8G/S0Qyc1IDU03fg7yHCQAiIiIiIo8oLy68U5T1sNvHfTi/XkRsgVzZEsCqssmF17pD6jr/lsmtPBw6C4IL4XFKuA2APo8tAEREREREHlA+OXQlBL/s5JetjAquWrCg8p1Oft2kNDUcHuBIZBlEcuF5qi4vf3vPWbOWt5q+CXmHbfoCRERERETJrjw8YaQS688inf71+REW1KWDBhzRZejRvRevWrWxpZNfP2mEw+GAWJEXRORI+IKkNTVmVK1es+4j0zch72BJEBERERGRaZb9oAhS4vPiEhCRb0WbU1aUh0PnxOeMxBeU6O0CKYSPCJwzTd+BvIUtAEREREREBpVPDhVC4K6T00RVWMBVLy+sel/fmYnwMVKL3GQKfEXVtDqB3hUVFRHTNyFvYAUAEREREZFBSvB1vSdK2IG8VVZceL+7zk7v2f5TVlaWq0T93n/Bv0vygxL1VdUCxRcTAERERERERqnpBg4NCuSaphTrvfKSwtMNnO8bEml6WCAD4FfcBkCfwRYAIiIiIiJDysom9pGotdH0PZRSCyzlXDWnYvFK03fxktLiwgstyO/gZwob5y6q7Bf7J0p6rAAgIiIiIjJEItZAeICIlDhiv11eHLo3HA6nmb6PF5SWhgaJkgfhd4K+U0qKxpq+BnkDEwBERERERKZYKgcesXsLwc0pEn2vrHiiibYEzxgzZkxQHPUHEXjm49MRSrENgNoxAUBEREREZIjjWHFa/dcBgsEC66Wy4sIXp4bD/u1974CuOWnfF8g4JAgFcB0gxTABQERERERkiGUp7yUAdhPIyY4VXV5eXPj9adOmpSJJTC2ZWKQUbkYCEWBISUnoWNP3IPOYACAiIiIiMkQcx7MJgN3SAbkj2lL/btnkoqlIcOFwOM9xrKdFxEaCsdkGQEwAEBERERGZo5QdhC/IkSJqttsWUFZWeAQSVNCKPgJBfyQmJgCICQAiIiIiIlPEwy0AX9QWgAhibQEzZw731d0PpCxcdIkAZyNhyTFTiyceZfoWZBYTAEREREREhiilfFIB8CkRyXTbArZXd32nNBwqQwKYEh4/BJb6PyS4qLJOM30HMosJACIiIiIiQ5QF3yUA9hDBUZaFOWXFoSfLyyf0gE+5lQyOFXhOgGwT549Kt9whfZpwDkCyYwKAiIiIiMgUR/w+XV8E+Coi1n/KJhdeO3PmTN8Nz9te3eUuAcaYODvfFny3h42jUvWkAERkbCLPcKADYwKAiIiIiMgQEf+1AOyb5InIfdtrNr1ZWjpxAnyibHIoDMgNJs4WCG7sHkCOJQhlagvLBBGcrusw8h4mAIiIiIiIzEmQBEA7AUZbjlVVPrnwqWmhUHd42JdCoS4Q9bSImZjo7FwLx6W3P/mflKH1CmwDSGJMABARERERmaIkoSbp7yYQuSAaVMvLJxde3J4X8J7WoHpCIP1MnD00VXBhl0+7JXoFBYNStP0xFZaUjOup6zDyFiYAiIiIiIgMUeKvNYCHRvIh8lhZceiNKSVFJ8JDyopD3wDkVBNnpwlwS/cAAnvF+4WaqgBExA6ooJHfO5nHBAARERERkSGiEqsFYF/cAXuOoxa7bQGlpWO7mb5PSUloOBR+Zur8q/IDKAh+/ml/kb45AFDcBpC0mAAgIiIiIjJESUK2AHxOrM9e5ALLSXmvtLjwQlNtAdOmTUu1FJ4RQYaJ84syBVOz9h2CDUiRfSYG4kNKpkwZ31XTYeQhTAAQERERERkiKpFbAPZFelmQ35VNLlxUHp4wUvfp0eaGe91BhTAgPwBc5/7PfoT0DQMMRtvsk3UdRt7BBAARERERkSFKEr8FYF9EZBIs662y4sL7Z0ycmK3jzLLJRVMhuBaGVv7d3D2AbGv/T/gLs/QVRljcBpCUmAAgIiIiIjJEEnMLwEGSgECuaUqxVu5uC4gbdyWhiPOkqdaDc/MsjEo7cOg1NMVCz72nA8bPVF3JF/IOJgCIiIiIiAxRSM4KgP8h6NPeFhBaEBvQF4cTIgE87rYfwICjUiycl/fpyr/9EY3bAABJa0qzpmk6jDyCCQAiIiIiIkMkodcAHhoRFNsKy9y2gHA4nNVZr1s+OXS1CE6BAekWcEsP+3Mr//anUOc2AMVtAMmGCQAiIiIiIkNUUrcA7FPQbQsIWpEVndEWMLW4cAQE98KQa7vZ6HuIk/1HpgFd9z8rsNMIcHI4HE7Tcxp5ARMARERERESGSJIOATwQgRTE2gKKC18sLyoaeDiv4Qa2jsIf3AfxnX/Dgzg/00JJ1sGV/u89MHBCxqH/usMjWamIlmk6jDyACQAiIiIiIkNU0q0BPDQCORkB9X55ceF3pk2blnoovzZoRX8GkWNhQK+g4FvdDz+ID2Xom1XoWOpMbYeRcUwAEBEREREZIhL/FoBBKYIbuwfQxTYyAL8zpAPyw0hLw3vlJYUnHcwvcH+eAFfCAPeP+ZbuAWTI4f95uxsDDrQysLOIklPC4bCmpgMyjQkAIiIiIiJDlIp/C4Dbgl6eZeHxgiBOy7F8GwAIMARK/uG2BRQXT+j/RT+vpGRcTzjyhKmVf+fn2Rie2rGj3aGB43VVAQi6BRCdrOcwMs2vn/9ERERERL6nYwvAngn0WRZwZbcAftk3iOGplq/bAmxlLy8vLvz+PtoCxHaCv4Wgp4m7jUyz8JWDXPl3IIWZuuYAAJZwG0Cy8O9nPhERERGR32nYAhDY60H44BTBL/oEYm0BufpizE4lggxA7og2178zpaSwfM+PlxUX3gDBdBN3chMsN3cPdFqAdUK6xNYI6iFn3HEHY8Nk4NNPeSIiIiIi/xs84Ag3YM2N5xkFQUGZG51+huxOBEzNslHvAB+1wp9EugFy/qCBRxw5aGBBM5T1qIiZGOfG7jZGpFmdOkvgo1aFtW0KcSfIWr/miLmr16xbH//DyCRmeYiIiIiITNHYArAvbgXA9fk2HuoTwFEd7Fs3yB23d57AekkERrYqTM2yEI5DyX5Rpr6PiWIbQFJgAoCIiIiIyBQlWoYAHsiRqYIHdrcF5GiaPp8o+gQkNlshHk5Mt5Gi78PhJgD4wU9wTAAQERERERmiNDyx3l8FwGcJJLYt4NGCYKxlgJHgQa786xGIW6+++7rHaxoEIJABU4pDx2s5jIxhAoCIiIiIyBSloQXgEH9+Vxu4qXsAP+8TwACNj5/96KtdbBwd59aJUIa+kE2BbQCJjgkAIiIiIiJj4t8CEHA75A/DyFQLD/cJ4htdbWQc5msksmPSBF/WsEZhYqb1uU0OcaNwlp6DyBQmAIiIiIiIDAiHw25sHvevx4NQHSpxPz3XxuP9Ap/bJJDMsuzOXfm337Ms4Nh0TQkAkaElJaHheg4jE/hZTERERERkQEtLS9yf/u8J4juqmy2xtoB7ewViawWT3Q35AfQ42OEKnSCkcRuArdgGkMiYACAiIiIiMiArK0vLyrpgJ5bvuwPpHu3b3hagaTad50zPtlCosS/f5Z6n8UQmABJYkn7aEhERERGZFWhu1pIA6Owu9cCetoC+KUnXFtAnKLi8a3xW/u1PF1swPE3Xn7UcV1w8cbCmw0iz5PqMJSIiIiLyiEiao6UFIF6V6vmB9m0BP+wZQK8kaAtwf4vf6R6/lX8HEsrUd7ANOV3bYaQVEwBERERERAbYbUEtFQDxblUfl2HhN32DuKCLjUTeGnhRFxtD4rzyb38KM0TXLgCIErYBJCgmAIiIiIiIDIgqFfTbDIAv4sbFF+TZeLQgiLEJOBzAnX1wRq7Z31fPgOhLQAjGTwuHC/QcRjol3mcnEREREZEP2HZUzwwAOfw1gIeqT0Bwd68AftAzEAtYE0GuDdyUH4C+5+9fLKRv+KBEJXKqrsNIHyYAiIiIiIgMiERtPVsADASu4zMsPFYQiLUF+Hk8gHv16/MDMDD3b5+KNM4BUNwGkJCYACAiIiIiMsAO6GkBMPUgPlUk1hbw675BjPFpW8CMHBsTNK/825+CoKC/vkEL4WmhUHddh5Ee3nk3ExERERElESfq6BkC6D7LNRy03rO7LaC7j9oC+gcFl3Tt7CWK/mkDEBE7GlAztBxG2jABQERERERkgFiWngSA5Y2g220LeLwgiLPzbNjeuNIXctsWbu0RiA039Bqd6wABbgNINEwAEBEREREZoBT0tADAO9IEuLiLjYf6BDHci9H1bpd2DWCQR3caDk4R9NZUSaGgSqdNOzFHy2GkBRMAREREREQGiKWpBUC8GcT+ok8QN3YPIM8jFQp7jM2wcGqOt8OkUKaePzMRSY20BE/Wchhp4e13NhERERFRgnIcTS0A8CY3hC3PsvDbfkGclmN5IjBxkxE3xFb+eVuhxjYA4TaAhOKFzzMiIiIioqRjKV1bALwdzmZZwJXdAniobxDD3B4BQ9yTb+gegAfn/n3OsFRL20BFpeSk8vLyTC2HUdwxAUBEREREZIBjKS0VAEHL7BaAgzUkRXBf70CsLSDXQBB+eo6FcRneTpbs4d5yorZtAMhAdNcULYdR3DEBQERERERkgKVtCKA/glqXQNrbAgra2wLcf9dhQIrgoq5ebZYwOwfApRTbABIFEwBERERERAYokaQdAngg2ZbE2gIe7BPA0DhvC3CH/d/aPRD73k+OSbO0VUqIwikzZw7X8n6l+GICgIiIiIjIAEnCNYCHyg3+7+8dxBXdbGTEaZbBVd0CGOi36H93IDchQ1cGQHLraruU6jmM4okJACIiIiIiA5TomQHgxwqAz7LdMfQ5Nh7vF0BxJ0+/PyXHwknZ/g2JdLYBgG0ACcG/73YiIiIiIh8TsALgUHSzBbf2COAnvYM4ohOe2J+cbeOb3Xww8n8/jkuzoGsjoAJOnTlzpr//wIgJACIiIiIiE5TSNQPA5yUAexmdJnikbwAXd7GRfhjRjNtKcF1+ANfk29qGDMZLUIBxurYBQLpv2/pJkZbDKG6YACAiIiIiMkBE6akA8MkawEPdbHB2nh3bFjAjx0bqQSQ53J8zY3crwXQfl/3vLaQpAeCyhG0AfpcoFUFERERERL6iFFJ0PJz30xrAw2kLcMv4L+pq4Y1dCu82K6xtVah31H+3CfRPERyTJhibIXEbJGiS+/tykxstKv6JHiU4HcC17R0B5EdMABARERERGSCa1gAGxY3VEi/w/Sw3sA9nut+QdNzg300CVDbGPyYXSEFZuHDcvIqqJXE/jOIicWpfiIiIiIj8ROnZAuB2ulNiC2Vo/BhbsSoA8ikmAIiIiIiITJD4bwGQBFgDSAc2LsPW2eoxU9dB1PmYACAiIiIiMkHDFgA+/U8O7irA49L1fKwFMnBKceEoLYdRp2MCgIiIiIjIiPhvAQgm4AYA2reiTH3JHgVuA/ArDgEkIiIiIjJBEPcKgETeAED/a0KGDVuiiGrJ+cj3yooLLxXI+wpquQV533HU8jYEllVUVDTouAEdHiYAiIiIiIgMUErivgaQ/f/JI9cGRqZaeLvZ0XKeQHoD6C2QstieCcvNaEVRVly4ae/EgKRkvDV37txGLRej/WICgIiIiIjIABG3BSC+EToTAMkllCl4u9nsHfaVGECkiYkBj2ACgIiIiIjIAKUQ9wqAuA8ZoM/LaQGGVwNLCrQfXZhp4Ve1UbdH33MOJjGggKU25P2UzKYVf//70l2m75yImAAgIiIiIjJARMMWAFYA6CUKOHM5kNlmJAGQbwuOThOsaPZiCuDAiQH37erevKUxLVI+ObROiVruJgccqOVuYmBnU2T5kiVLmkzf2c+YACAiIiIiMkBBBSXOLQBBJgD0mrQWGLS9/Z/zdwE1GdqvEMqwsaI5An8Td37lIIEMAnCyBYklBrLT7X0mBloc+/2KigrDzQ/+wAQAEREREZEBgvhvAWAFgEZ964HiNZ/++7Bq4NX+2q9RlCH4zTYkqH0nBlKsyD4TA1Zq1nuzZ89uMX1rL2ECgIiIiIjIAAWJ+wN6DgHUJCUKzHwfsD8zgX+EmQRAr6BgcIrgo1b/tAHEKzEQaW5oLZscWgFRK6DkXbHUChWx3+vSs+fqWbNmRZGEmAAgIiIiIjJAlEpBnKcAcgigJqf8B+i218y6PjuB3GZgR5r264QyLXzUmpTx7f8QdzMhMAqQURCcAyUQ20Fdzaa28smFHwLyPkQth8j7llLLc/L7rEz0xAATAEREREREBihBSvwrAFgCEHcjtgKjN3/+x90/+uE1wGL9wwBDGRZ+tz2h49iOCkJkuPsRin2gFOBAsL16U2v55MJVeycGxk+qWnHnnfhMeYd/MQFARERERGSAKEmJ8wxAfrEfb+4T/tNWfvF/H7bVSAKgf4qgX1Cwvi2Z2gA6q2JAPpcYqKoItZZPVgmRGODfCUREREREBiiJ/xaAgLuWjuLD/bM9awWQtp+J+wN2ANmtQH3c5z1+TmGGhed2sAogromBV0L1ZZPVCkDeA9RywHoPAWfFvHlV6+BRTAAQERERERkgCvGvAGALQPxMXgMM2L3yb39JgqNqgDf7wMQcACYA4kuAbIicCODE9p4PBUQFZZNDOyH4UJRariDvi6WWOyLvz59f+XH7TzKHCQAiIiIiIgOSaguAOyCvNgMJ44gd7QmAgzG82kgC4MhUQc+AYEuEVSC6iSAHwBiIjIl9CiqBpYDy4sI6BbzvthKIcr/H0rzuvZfoHDzIBAARERERkQEi8R/S75kEwLRV7avyXjwKqPF5IiA1ApzlVnsfZGA9eFt7m0Cz3tDL/dAXZgj+vJMJAO+QPAEK3Q/NnuqfuupNteWTC//g2HLf/PmVq+N9AyveBxARERER0ee4X/7HPwEAj7AVMGg7cOW/gJKPgYCv5qb9rxn/Abo0HfzPdxMFR9fAhElZtpFz6RAIukHkaoliRXlx4d0zZw6P68AIJgCIiIiIiDSbNm2alqlwnpkBYO8O+IMOUPwxcPXrwNBa+I677u/YLYf+64ZVw4ThqYLBcV82SZ04aPC2upquFSUl43oiTpgAICIiIiLSrKmpKe5P/10Bs/PGPrV3uXzXJuCCt4Hz3wHymuEL7p2/9MHh/doja9tbIAw4vwurAHxmvK0CC6eFQt3j8eJMABARERERaZaa2pJcFQBfVPLvTsi/5vX2toA9VQJe5CYw3L7//a382x+38sFNAhjgrgMcl+GR9wEdJBkWDeL5cDjc6V08TAAQEREREWkWiSg9FQBeifv2NzAvGN3dFvAvYMg2eJKboOi3o2Ov4W4DMOTG7gH09MxACDpIk1Mkeg06GRMARERERESaBdpStFQAxH3P4ME6mKf77qrAry5rbwvI9VBbwIA6oGhtx1/HrXYwNPwwxxL8pHcQPTyTEaKDoYA7vhQKdUEnYgKAiIiIiEiztkBUSwLA9kq8FziEWQReagtwS/7PPISVf/uTGm3fhGBI74DggT5BHJvmlTcFHYgIcloDuBSdiAkAIiIiIiLNgo6eFgAthxwM6xAD+ZTdbQHfeBPoXwejK/86c0jhiK0wqasN/LR3ANflB5DPlgB/EHVOZ74cEwBERERERJpFbFtTBYBHnvbah/kEvWcDcPG/25/CZ7VCqzGfAMccxsq//Tm6pnOqCTpAIJiebeGpghR8t0cAJVkWegXdHyVvktGlpWO7ddarMe9DRERERKRZQCGoIwwMemUNYEdK+d3IdPTm9uB5wUDg9QLAkfiv/Dvpw85/3Yy29pkCqzu1rfuwuOMAijKt2DdXgwOsa1NY06qwtk1hbavCmjYH2w5z8QF1GkEk5RgAizrjxZgAICIiIiLSTlJjI77iLGCJ/2YA7K8ff/qHwHGbgReOAjbkIC7cJ/Qz32/v2Y8HdxuABxIAe8uygOGpEvv2WW5iYJObGGhT/00QrGtV2BTxSHIpCdiienbWazEBQERERESkmaNUUEd1fsCvMwD2p3c9cNmbwNu9gH8eCezq5EkHZauBgp2Im+FbgZeOBJRHkjMHkRg4MlVi3z5rp+MmAxCrFljT6mBdK2IVAzvilDdJZo5YKQn3dwIRERERUbJQCnoSAF6JMQ93BsCB2gKOqgUWDgCWFHROQD2wDihch7jKbm1PMKzPhZ+5qwWPTcPurQKfjpZzEwBuIiDWQhBLEDix7+sdVgwcLhHVaZMwmQAgIiIiItJMRE8LgCe2AIiK3+C79Lb2toBRm4G/d7AtoDNX/h3IiGrfJwC+SK4NjLItjErb8yN27H8bdicG1rWhvWKgDfi4VWF7lImBA3FE/oNOwgQAEREREZFmllJBHRXgntgCoCOg7uu2BSwF3uwNvDwEaDmMMOfUlUBuJ678O1AbwOwhSCZZNjDStjAylhj4tGKgNrpn4GD7bIE9VQONndg14mdKYVvXrr0/6qzXYwKAiIiIiEgzZesZ0B90n76bXvDWGQMAD4b7ex37Sfu2gDlD2mcEHOzRJ2wERm6FNl2agd4NwKYsJLtutqBbuuD49P/98eqIu43gs9UC7vcKTcmWGBC8OGvWrE6brMAEABERERGRblGkfuYhaNwEvFAB0JEVgIfbY++W8o/5pL0tYEvm/n9+90Zg+ipo51YBMAHwhboHBN0DwAnp9v+0EuypGFi7Z11hm8Lq1gRODDjqkc58OSYAiIiIiIi0k4CWNYAeiP+1tADsy4A64Mp/Aa/3BeYPBlr2BJJ7JSdmLgeCBkbXu+sA5w/Sf24CVgy477AtsWRAe/vApy0FQIvy74wBpfDPeRVVSzrzNZkAICIiIiLSTCyVoiMs8cQX+7orAPZOPkzYAIysBuYMBpb1+t//PuWj9rWCJvRoBLrvAqozzJyfQNw8V6+goFcQGLe7UsCloLApgv9WC6xpBda5gwhbFVo9nhdQCjuj4lydkH8nEBERERElE0dUimiYAuiJCoDOXgF4OLJb2tsCjt8EvDgUqM4EhmwDJqw3ey+3DaBigNk7JDCBoE8A6BMQTPjvj9pwU1KbYwmBPYkBheUtClsiyivBvyOWOn/hgtc6bfjfHkwAEBERERFpJkq0bOgLJHsFwN4GbgeuegN4rR8wepPx+YixNgAmALSzAPQJSuzbRACbIgo3fBKBZ1jq2rkLql6My0vH40WJiIiIiOiLKahUHecEvPDVvhcqAPZOSBStbR8WaFqfeqBLk+lbJLWaCHDz5ghqot54nyqoW+ctqHooXq/vhb8SiIiIiIiSigBaKgC0HHIgAQ9VAHjRsBrTN0hadY7CLVvaYu0A3qDunLew6t54nsAEABERERGRZkpTC4DthTWAprYA+IXbBkDa7XQUbtoUiQ0E9ASFn81dWPX9eB/DBAARERERkWYiSNFxTlA8ENx4aQaAFx2xA8jyQDtCEml0gNs2R2LD/7xAKfx27qLKm3ScxQQAEREREZFmSiktCYCA8Sl3HpwB4DVukmYYqwB0aVEK390cwQctHuoOim8AACAASURBVHlfKjxVGK68NPZPGjABQERERESkmUBXC4COUw50CVYAHNAIJgB0aFGIBf/vtXjkPanwfF733hfdeWdsMyGSZjMIEREREVEyCIfD+SlW5JtK4ULR1gJgOAvACoCDW0+Y3gY0eWJsY0KKKOCurREsa/bK+1HNttOyL5w1a1ZU56lMABARERERaQv8o98CJEfHbD736b+YDv5jF/HI01YvcwclHlUDLOtt+iYJyX0H/rg6itd3eea9OK/VCZxeMXt2i+6DmQAgIiIiIoqTaaFQ92hQXaUz8PdU/7+LFQAH3wbABECnU1D4aXUUFe7kPw9QSr3WpgKnV1RUNJs4nwkAIiIiIqK4BP64IaJwtUAyTGzjC3hhA4CLFQAH58htQFoEaGaI1lncz4AHah3Mb/DKe1C91aYCX6qoqGgwdQO+u4iIiIiI4hL4w0jgv0fAIwUArAA4hETJkbXAuz1N3yRhPLYtipd2am2x/2JKvSMp0bKKOVV1MIgJACIiIiKiDiovn9ADEft6LwT+ewTZAuA/w2qYAOgkT2yPYtYOzwT/H7SqwNSKOVXbTF+FCQAiIiIiog4G/ojgGgDpXgj897C90gJgeaX82gfcQYBBB2jjtvaO+ENdFM/WeSX4x0cqoIor5lVshgcwAUBEREREdIhKSsb3tR37ZkRwKYA0eFDAK9mIQMcSAJGooLnZRuOuAJzdOY2GxvYwJiXoIC3VQWZGBOlpUdh+rzZIiQKDtwEr803fxLf+vDOKJ7d7I/hXUOttFSh7eV7lJ/AIJgCIiIiIiA7StHC4ICrRm6HUJRDxZOC/R5p4aMXdPigFVG9LxdaaVGyuTot921KTim11KdhZH8SOhkDs+11N9kEd4+Y7enRrQd9eTSjo3YSBBY045uidOKLvLvjKtFXAkG3A5kygJhPYkgk0BU3fyhf+Ue/g17XeCP4BtRlRu/TlVyrWwEOYACAiIiIiOojAP2JFb4moyCUikgqv9NfvR87Bxc3xZys0Ndn4YE0WPl6fiTXrM/DR2kys3ZiB5pbOu6SbUHATCO63f7+X998f75rXitHDd2DccdswcUwtUlM83pLQbVf7t89yNwNs3Z0MqM7c/c9ZQEOKqVt6zrwGB/fXRGOT/81TNXCc8nmvVH0Ij/H+31xERERERIZMKSrq5wScbwtwGeDtJ/57Oy3HwpXdzDzvq44ovNeisLxZ4b2UZny8LQDHMR96ZKRHUTS2BlMmbcUxR++A7+0rMbA5G2hMroqBql0O7toaQdQL0b9SO5RSZfMqXnsTHmT+s5CIiIiIyGPKygqPkIjcqoCLRODLx6y39wggnKlnmJwbeK1ocfB6k8K/mxx82OKFSGz/BvdvxBknbUTpxGpYX9Cm4PvEwMZsoDoL2JrRnhjoxIoLr3h9l8KdWyKIeOLZv2pwLDVl/vzXFsOjmAAgIiIiItqtuHhCfxv2rVD4ul8Df1eqCP7YPxDXfYQtSmHJLgcVjQpLmxw0ebyy/osM6LcLl5zzMU4ctR0Jz20Z2LI7IbAnMbApG2j1Z2LgrSaF725pQ6sXYn+gScT50pwFry2EhzEBQERERERJz33ijyhu8GOp/76cmmPjqm6dH9RFFPBGk4NFDQ4W73LQ7I3Aq1MUnlCLKy9Yje7dWpB0fJgYWN7i4NbNEU8knpRCKyBnzFv06kvwOCYAiIiIiCjJn/hb10Ph8vbhfv6XbgGPFwSRb3fel/pbIu6E9Shero9im1eGrMdBWmoUl5yzBjPKN5m+ijd4NDHwUavCjZvb0OCB96JSKgrBufMWVj0PH2ACgIiIiIiSTnlR0UAVULcLcCGAhJqYdl1+ANOzO9777z7c/9cuhRd3RvFGk3J3miNZFJ1Yg+svXYXM9Ijpq3iPO8xxe/qngweXdwc+ydZ2/Mdu8L8pgp2O+fejUnAsOBfOWfTaM/AJJgCIiIiIKGmUloYGSRS3i+CCRAv8XW7g7yYAOsIdpraw3sHzOx2s9UhztQm9ezTjjm+twKB+jaav4l1udcDjxwFNej6VNrQp3LApgu2eGPcPpRy5bF7Fq4/BR5gAICIiIqKEV1w8cXBAye0QOT8RA/89wf+1+TbkML/Ed2P9v9c7+NOOCGr44DvGrQC48/oVOHZYAqwM7Gy1GcDjxwP1emZlbm5TuH5zm3femwrXzl1U+QB8hgkAIiIiIkpYU8LjhziW7Zb6nw9Ixx6Ne5Q76f+ybvZhl/27D1MXNDp4ui4aC7LofwUDDm6+8gNMOrHG9FW8Y1s68Jgb/OsZm+EG/TdsasMmdwqlJ6jb5i6sugc+xAQAERERESWcskmTjoTt3C5Q5yVq4B+AYEq24MK8ALoexu/QDaUqGhz8ri6KjQz898uyFL537UpMHFNr+irm7UxtD/7dOQAauOX+btm/W/7vBUrhrnmLKr8Ln2ICgIiIiIgSbbjfLQJ1UcIG/gJMzrRwfhcbfdx/OQyrWhV+WRvB+4m0xy/OUlMc3HPzexh51E4k9VaA3x4PVGfoOc4BbtrUFnu/eoGCemDewqpr4WNMABARERGR7zHwPzg7osAT2yP4Z31yTfXvLFkZEfz8u+9iYDIOBtwVbA/+3en/Oo5TCjd/EsV/Wh14gVL47bxFlZfsLp7xLSYAiIiIiMjfU/0d3JzQgT8Ek7OkQ4G/65VGBw/WRmJJADp8fXo241d3vYWM9CT6g2wJAE8cB2zUs+6vRSnctjmCd71SoaLU0xPDVV+78054IxvRAUwAEBEREZHvJFPgf0EXG707EPjXRhUerIngtV0eCaYSQHhcDW6/eiWSQpsNPDUKWJOn5Th3DeUdm6N4o8kbsbZS+Eubsr9cUVHhlf0DHcIEABERERH5RtmkScPEit6qgHNFxEYCD/c7Py+A/A6mNv5R7+DX2yLwSCyVUL518SqcVLwZCa3NAp4eBXzcRctx7pD/H2yNYMkub7xhlcKcQFrWjNmzZ7cgQTABQERERESeV1ISGm476hYG/gfHLfP/RU0bn/rHkdsC8PhPl6JbXisSUtQC/nAM8EE3Lce5If+91REscif/eYKa3+oETq6oqGhGAmECgIiIiIg8K6kC/y428u2Of3n+VpPCT6sjqIky+I+30tBW3HzFB0g4jgCzRgDv9dBynPtO/UVNFLPrPTJXQWFxq7KnVFRUNCDBMAFARERERJ4ztbhwhKNwMwP/g+c+N31qexTP1kX9PabcR0SAn9z2LkYN24GEoQT4f8OAt3vpOQ7AQzURvFjvjSf/CliW2oaSlyortyMBMQFARERERJ6RDIF/UIDyLKvTAn/XTkfh3q0RvNnE0F+3owfX44E730ZCcN8+LxwFvNlX25GPbYviec+splDvOlZr8fz5b9QiQSXkxFQiIiIi8pfy8ISREOumqGoP/CWBA393qn+3TvwdftiiYoPTtrgT1Ei7lR9l463383DciDr43stDtAb/T273VPD/oRWxps59NXGDfxcTAERERERkPPBXkPNEYCVi4J8qgpOyBWfndW7g73KH/N2zNRLbm07mPPu3Av8nAOYNAqqO0Hbcn3c6+EOdR4J/hXURccoXvlq1CQmOCQAiIiIi0i4ZAv80AaZlWzgnN4Cucfiq+4WdUfyqNhrr/Sezli3Pw6o1WRgywKcz4yoGtH/T5G87o3ik1jPB/0bHRvHC+YvXIgkwAUBERERE2pRNmnSMWM53IThr9wy1hBPvwN991v/7uiie3u6RAIpi5lV292cCYElB+9N/TebUO/hVrTfSVgqqGo5dPn/RK6uRJBLx71wiIiIi8njgjwQU78Df1aaAn1RHUdGY2MF/dlYmuufnoktuNrKyMpGTlR77sWCg/Q82KzM99n1rWwTbd9Rj3frNeH/lajQ2mVvZnpfThmcf/Bds20ftGP/uDfx1WHtWSYNXGx3cvTXikaoVVedE7ZL5r7zyFpIIKwCIiIiIKG6mFIfGKIXvQZxTEjXwT7eAGTk2zsqxkRvHvQX1jsIdm6N4r8Ub4VNHiQh69+yGAUf0Qv+C3hjQrxf69OqOHvldkJ6eesivF4lG8OZbK/Hnlyqw8kP91dx1O4N4890uGDd6G3xhWS/gr0drC/6X7HLwo2qPBP9K7VBKlSdb8I9E/UuYiIiIiMwqC088AZbcIZAvJXLgf2q2jTNz4xv4u7ZGFG7dHMF6twTApyxLMHTQERg5bBCOHtofw47sH3uqHw+VS5bh4Sf/hvqGRug0o3wTvvnVj+B5K7oDz40EHD2fmhvaFL65MYJdHhhWqZRqFMjUuYsqq5CEWAFARERERJ1mSnHhKKXk9kQu9XcD/6lZFr6SZ6OLhoWF1RGFGzdFsMmHa/4y09MwdswwnDBqGI4/diiyMjO0nBsaPxpHHzkAd/7st1i7fjN0WbY8F563qivwxxHagn/3XXt/bdQjwT9alZKz5lUkZ/CPRP1LmYiIiIj0mlJSdKJy1B0QTEeCyhDBabkWzsi1kKNpb8Ge4P8THwX/qSlBjD1+BMLjR+H40UcjGIhzecR+NDTuwq13PaI1CfDcQ/9C17xWeNLqLsDvRwFtlrYjq3Y5uHNLBF4I/gE5Y96iV19CEmMCgIiIiIgOW/nk0DgF3OGuukeCB/5n5lrI1riw0G/Bf0GfHphWMg4lRWO0Pek/GFurt+Pa79yHxsYmLefdfvVKhMfVwHM25ABPHAe06k3I3LCpDe82m30PK6WiouScuRWVf0KSYwsAERERER2ysrKJfRCVnwM4WxL0oVKmBZyWY+PMHBtZmh9i10Tgm+B/1IghOOPkyRg98sjYYD+v6dG9Cy457xTc/+jzWs5bt9E7yY//2pQF/G609uC/NqrwnrnFDDFKwYHI1+cuYvDvYgKAiIiIiA5J2eRQqUTVc4DkI0ED/9NzbJxhIPDfE/x/e3Obp4N/N9Aff8JInH1qCQYN6Auvc6sSXvjnq/h4/aa4n7V+U/uKQs/Ykgk8eRzQrD/0e6dZwf0/g5RAXTl3YdXTJi/hJUwAEBEREdFBmxIOnewA/w+QFCSYLDfwz7Vjwb/7zya4T0y/vTmCTzw87f+4Y4bigpnTMGRQAfzCTVicOr0I9/06/lUAG7yUANiW3h787woaOX5Nq/H38Q1zF1X92vQlvIQJACIiIiI6KCUloWMdB38UQUqiTfWfkWPjbENP/PdodIDbPRz89+vbA5deMAOjRw6FH0044Rg89NifEYnGdyDd5uo0eMKOtPbgv8Hcp2td1Nx7WSl8Z96iyl8Yu4BHMQFARERERAc0ZsyYoO2oZyHiwQbnw+MG+26Zv/vE3y37NykChR9sjWC1+Semn5ORnoZzzyzH9PKJCNgGMyQdlJ6eiiMHF2DFB2viek5Tswf+jHamAr89DthuNhnhGDpXKdwzb1Hl3YaO9zQmAIiIiIjogLrkpl0FJcORANxJ/u4qv9NzrdiEf9PckP/n1VG81eS94P+EUUfjyovOQH63PCSCIwp6xj0BEI0KWlotpKYYCn/dJ/5Pjm4v/zcsS+PWjD0U1APzFlXdpv1gn2ACgIiIiIgO+PQfCtcjAQJ/d5XfaR4J/Pd4YlsU8xtMPSvdt8zMdFx2wakoDh2PRJKXk63lnMZdAaSmtMIIt9+/OhNe0C+o+/NMPTZvYdV1mg/1FSYAiIiIiGi/8rLSwwL0g0/l7An8c+xYv7+XvFjv4LkdUXjJyGGDcP0V5yTMU//PCgT0vAEcx2CCqUcj0Lse2KQn2bE/I1JF67o/Zbfesruohr4AEwBEREREtF+WhWnwoVwbODPHxqkeDPxdi3c5+KW7888jLEtw3plTceYpxbF/TkT1DU1azklLM5zUGb3ZEwmA/imCvkHBRg2DLUVgQQVnAngk7of5mAf/KiQiIiIiL1FKHQefBf4XdbXxVEEKzsnzZvD/UavCj7ZGjQ1J21tuThZ+cMtlmHlqScIG/64tW7fF/Qy3uyTDdALg2C2A5Y0H4SU6d2o6coG+w/zJg38dEhEREZGniPSBT7jB/nX5AZyd683A37XTUfj+lja0KG8EaEcO6of77roWxw4fjESmlMLKVWvjfk5K0IFlOvjOagWGxD/ZcTBKsyzoSimJyISySZOO1HScL3n0r0UiIiIi8gpR8M3qvyYHuHNLBBdvaMNfdkTR6JVH7Lu513Gf/G/xSOX/uBNG4EffuRzduuYi0a38cC127GyI+zld8wwN/9tXG4AH9AkIhqdpqyoRWA6rAPaDCQAiIiIi2i8F1MNnNrQpPLwtiq+sa8V9NRGsbvXG0/bHt0XxbzdL4QGnTCnErddciNSUFCSD2QuWaDmnoLeeOQMHNKwaSPNGpqk8y9Z3mKjzY4kA2icmAIiIiIho/0R9DJ9qVsA/6h1csbENV33SFvtnU7mARQ0O/uSBif8iFi4692RceuGpCd3v/1nrNmzBK4uXaTmrn1cSAAEHGLnV9C1iwpkWdC0EEMjA8uKiIj2n+Q8TAERERES0XwIsRQL4sEXFqgEuXN+K322PoiaqLxPgViD8X03E+H6ylGAAN119Lk6bPgnJIhp18NDjf4p9r0NBn13wjFHeaAPItIBxGfpCTwV1obbDfIYJACIiIiLaL4G8iASyLQo8UxfFBevb8MOtEbzdHN/AsN5RsbkEbjWCSWmpKbjjpotReOKxSCZPPPtSrP9fl6MHxX/OwEHrXwd09UZFQrnGbQCi1Fnjx49P13agjzABQERERET7NWdh5VJAvYUE4xYAvNro4MZNEVy0oQ1/rIuioZMr9N2Y/+fVEWyKKOPB/3e//XUcMyyxJ/3v7Zk/zcELs1/Vdl52ZgSD+3soASDeqQI4Id1CV12jAERys1MDp2o6zVeYACAiIiKiA3KUdTcSmDs08PHtUZy3oRUP1kawtq1zAvYXdkbx2i4G/7o1NjXjJw8+gz/+dZ7Wc0cN3wHx2lgFdxuAB+5kCzA5U98wQCVgG8A+aBzHSERERER+9fGadSsGD+w3AZAhSGDug/oPWhRe3OngnWaFdAsoCAoOZ1beR60Kd2+NwOTYP3fC//duTJ7gPxKNYG7Fm7j3/qfwwUfrtJ9/6tRNOMpLLQCu9AiwqiuwI830TZAXELxUr2cWg4ga2K//oN+sXbvWYx8QswKGzyciIiIivwg4F6qItVQgBUgC7mwA91u+LfhSjoWTsu2DLmF2+/1/tDVibONAsgT/Tc2tqNuxE2vWbcLb769C1b/exY6dZuK9gK1QNLYGnuRWAazLNX0LDEkRDEgRrNHyiSGBFImeC+D/NBzmGx4oBiEiIiIivygtDQ21olgIQR8kmQAEEzMF07MtHJdu7fcLabfv/+UGPU869yVg27Hgf/TIofCjxsYmrN2wOba+b/3GLfhkSw0aGpvQ1NyCpqYW7Gpuwa5dzVDK9F6FT407bht+eMNyeFJzALg3BETNd4A/vyOKx9xJnBooYNm8hZXHaTnMJ5gAICIiIqJDUlw8oX8A9p/cuV5IUoNSBKdkWyjNtpG211fUCxoc3FsdMXU1iAiuvfzLKAmNgV/s3NmIpe/8B2++vQLvr/gY2+p2wm9uv3olwuM8WgHgem4k8H4P07dAbVThvHVt0JUeE6jRcxZWva3pOM9jCwARERERHZKFCxevHTNmzMQu2WnXQOR2AbogyaxuVbi/NorHtkdj681m5NixWQGfRBQeqDHZ9Q+cd9YUXwT/m7bUoOK1ZXhz2Up8uHoDlDJXMdFR3fJaMXHMNnia2wbggQRAN1tiFTRLm/R8vBXkArejR8thPsAKACIiIqLPCIfDWUGleovldHUUuoiFLqLQRQHZe/9cgWoQqDoHdp37vSWqrtkJ1FZUVHhj75YGMyZOzG5Mtb4mwJUCHI0k/qLaDWpqI6rTNggcjinFJ+KbF58Fr3KD/Lff/wgvL3gdi998F47jnRL+jrj8vI9x5kkb4WmOAD8tBBpSTN8ECxqiuLdaV6JMbW51Av0qKirMleV4CBMARERElJSmTTsxJ9KcOgHiHBebbK/UkRAcKZDeHX911QyFdRBZpxTWiaiPHWWtEEfe6dKz5+pZs2aZfUQcJ2XhwpCIXANRp7sDuEzfJ9mMHX00bvvW12Db5vu899bS2oaXFyzBS3MXx578J5Lc7DY8fd+bSEv1waf1P4YCi83P8GxRCl9e1wZNRQCAqOlzF1T9U9NpnsYEABERESWF0tKx3axI6kkQFEJUoVIyQgQmIqUmBbiTwt6DqDcRVUvaEFyWSE+nphYV9Y7a6kKI+maybAwwbfDAAtzznSuQlmr+6e5nuUP6KqqW4elZ/0R1bR0S0cVnr8HZp2yAL2zMBh4ZCy/4WU0EczStBIRSz85dVOVuBEh6TAAQERFRwgqHw72CdttpoqwzATXZq0+llcIuAEsharEIKtOb1aIXXnutHj43c+bwlLrarqdC4TK3QMD0fRJVbk4WfvHDa5DfLQ9e8p9V6/D4My9i5Ydrkaj69mrCo/e+hWDAR/MLHhoHbMk0fQssa1a4aVObptNUc6sT6F1RUZGYWahDwAQAERERJZQ77oC1eFFohrLUN5WSYkNP+TtIRQBZohTmQqk5XXr0ecPvbQNlkyYNgx29AgoXi4j56CNBuOv+fnDLpRg5bBC8tMLv4Sf/glcWL0Oiu/eW93D8SJ/FlK/0B+YONn0Ld0UfLlzfii26ap+UumTuoqrHkeSYACAiIqKEUFZWliuR5otVe9n5QCQUVQeFf8KSv6Q3O7P9XB3gzl5wWlLOUUpdC5Hhpu/jd5ecPwMzpoXgFcve+xD3P/o8arftQKIrnlCNW6/6D3xnZyrw84ntQwENe2J7FM/WaRsGWDF3YdVkJDnzH3UiIiKiDjj55DEZzQ3p34bg27KPSf2JRzUDmK8c66+BqPrb7MrKaviTlIZDpZbgMg4NPDzFoePxrSvOgRe0tkXw1B//gRdfror1/Se6Xj2a8au7liErw6ejO54cDXzU1fQtsKFN4eINbbFqAA2UY2HI/PmVq5HEbNMXICIiIjpMUl4SmhlpDfxVRE4XIBVJwQ2UZagIZjiWun7QwCOmDBnYPzCiT8EH/1m/vhU+8vHadatXr1k3a9CQfo+LQoMCRgjYHnAwBg3oi9uu+2qsBcC0rTXb8d17HsXrS93ZlokvYCvcfdNy9Onh5uL8SoAV3U1fAjm24I0mBzV6igBElKpdvWb9K0hirAAgIiIi3ykLTzwBlvWIAGNM38UrlFKNEPxFBH/I69Znjh9nBkybNi012towg0MD9y8rMwP33X0teuR3MX0VrFy1Fj/6xVOo2+HbrpRDduWFq3HalE/ga6028ONQ+/eGvbAziodq9fx1pYBV8xZWDt09giApMQFAREREfiJlkwuvAeQnIvDWvjMPUVCbBPIUIvLrua+++jF8aEpxaIwDXAaF80WQYfo+XnLbdRdi/AkjTV8DiyrfwkOPz4qV/yeLs6ZvxGXn+vJT6vP+NBx4u5fpW6DeUThnXRvaNIXkjuVMnD//tcVIUkwAEBERkS9MKSrqpwLqKQBJP8TpYCkFRwQLIHh0246mvy5dulTXzq1OHe6ISNPXBHINBN4ZdW/I9LIJuOJrp5u+Bp7981w895d5SdHvv0dpaCtuuvwDiN8jqG3pwJIC4M2+QJs3lqTcuSWCql2aVikq9fDcRVVXIkn5/e1LRERESaBsctFUiHpegBzTd/F3VQAeRsD59dy5i7fCh+sdKxeFStyhgQrqDBExX7us2cB+vfHTH1yNlKDZeYlPPPsS/vJSBZJJaGwtbvvmylj/v2+tywVe69fe+++BDQCf5Qb/bhJABwVsD6Rm9Z49e3YLkpC3PvJEREREeykLF31bLPVjAN54VOVzSqFVoP4YteRnCxZUvgMfKi6eODgA61JAXQxIPpJAWmoKfv6Da9Cvbw9jd3Cf9j/+zN/xwuxXkUymTtqC6y5eBduPwb8S4INuwCv92xMAHhWBwlfWtWGHpskljpKz5i969f8hCTEBQERERJ5VFi78q1hyqul7JCql1AJLyS/mVFS+5MehWHuGBipHXSciE5HArr7kLJRPPtFo8P/rJ/+Kf8xPntZpt9T//NPX4YIz1sF3ohbwbo/2wL/aH4s13EGA7kBALRRemLuoMin/fwsTAERERORFVvnk0L8hGGX6IslBvasg93TJ7/28H7cHfHZooAAXAEhHAgmNG4Wbrj7P6B1+89Tf8OKcKiSLrMwIvn3Zh5g4pha+0hwA3uoFvNofqPfXZtSVLQrXfKJrTImKRCVSsGDB61uQZJgAICIiIq+R8uLQvwCcYPoiyUZBrYHCfQ3N0UeXLFnSBB8Kh8N5QYl8FYLrBDIAPtclLxsP3Xs9srPMPcV9/m/z8ftZLyNZDB3UgNu/uRK9ezTDN7anAW/0Bf7VF2gxOyOiIy7e0Ib1utYBKFw7d1HlA0gyTAAQERGRl0h5ceFCQMKmL5LUFD5RlvppWzTwSEVFhY+ioE/NnDnT3la9+WSBukoEZX79uvd7N16EE0Ydbez8BZVLcf+vn0+Kaf+pKQ6+fPIGfOXU9f4Z9rc5C6g6Aninp+cG+x2OZ+uieGK7niIkBSydt7Ay6RLN/n+XEBERUaKQ8pLCF6HkS6YvQu2Ugrst4P/alH2/XxMBrtLS0FDLwZVQ6msQ8e4ktL1MLT4RV118lrHzX3/zfdzzwFNwHJ8Ewx0QHleDy89fjfwurfAFd6Cf29//Qb4Pp3d8sa0RhQvWuyMB9fymooIRCxZULkcSYQKAiIiIvEBKJ4eeswRfNn0R2ndrgAX8sMUJPFVRUaFnV1cclJeXZ0qk6Tyl1FUQORYe1qtHV9x/97eQnm6mj3vV6g249a6H0dKqqyfbzJC/CWNqce6M9bGyf99M9F80ANiQuBtRb9rUhmXN2rIaP567sPIWJBEmAIiIiMg0KSsNPSwOLjd9EToQ9aEo9d05i1573o9bA/Y9NFBdCEgaPETEzIA37AAAIABJREFUwj3fuRzDjxpo5PztdfW4/nsPoHbbDiSi9LQoQmNrcdb0jRjYrxGe12oDb/YBFvcD6jz1Vo2LOfUOflajKc+osDGve+/+fh1+ejiYACAiIiKTpKw49KAAV5m+CB2SNx1H3Ti/omoRfK6kZFxPywl+TYBvQNAfHnDa9Em46NyTjZzdFoni9rsewcpVa5FI3J7+Y4ftQFloKwpPqI0lAXzDfer/dPIsRHEf/p+9rhVNjp7zHAfl8ysq5yFJMAFAREREpjD49795KmpdP++VV96Fz4XD4UBAnFN3Dw2cbOrr5D698nH/j76F1JSgiePxwKPPY94rb8Lv3AD/iD67cOzROzF6RB1GHrXTX0H/Z63JAx4/Hsnkx9URzG/QlAFQ6um5i6ouRJJgAoCIiIhMYPCfMJQ7ses3dkTumF1ZWY0EUFZWGJIo5upuDRAR3H3b5Rg5bBBMeGnua/j17/4Kr7Jthb69mtAzvwXpqVFkZUZiQX37NwfZmW3o2b0FBb2a0L1bCxLGJ9nAw2NN30Krfzc5uGWznjYApVRjmwr0qqio8MEgiI7z75JIIiIi8ispnxz6FYArTF+EOoMEIPhGNKi+Uja58PttKvBLPw8KdEkEl0H0zwWYVjzeWPD/0ccb8NtnXoTXDOrXiMKxtRg7ajuGDGjwz3q+zpTq08qFDhidbiHfFtRE4//xFpHMFETOBPA7JAEmAIiIiEj7k38G/4lI8kRwXxDRb5SGQ9fNr6icDR8qLy4qAdT5us/N75aHr37lJJjQsKsZP37w97H+f69M53f79M+YtjFWup/0UrzxcdHJcudzZFl4foem37vggmRJALh/tkREREQ6sOw/CYjgKMvCP8uKC18sLyoyM8b+ME2bNi0VynnYRJvsN75+BjLS9U94V0rhwd/Mwuat2+AFw4fU47473sb3rl3B4H+PYPIlAFzlWfpCVaWkeEpRUT8kAVYAEBERkQ6+CP7dHuzMrGxkZOUgIyMz9i2QkopgMIhAIAjL/vQLUuUoRNra0BZpQ7StFS0tLWhu2oXm5ia0NDehsaEe0aivK+E7RCAnK1uVlE0O3b29vumnS5cu9fxC+Uhzwy0iMlT3ueHC4zF29NEw4e9zXsPiN8zPcAwK8PXT1uPMM9bGKgBorxYA988kybof+qcIhqQIVrXqaAOApQKOW/lzDxIcEwBERESU1MF/WnoGevTqg675PZCb2xV2INBpT1ZbmprQ0LADDfX1qN+5HTvrtsUSBclCBBkA7u6SnX5uWbjwinkVVZXwqOLiCf0F6hbdD/+zszJx6fmnwISP12/Ck8/+Hab1CQq+1yOAQUObOaJ8X0QBgSjQZiPZlGVbWFWrqQJC4WtMABARERElYPBvWRa69+yNgv6DkZvXNW7VBGkZGbFv+T16//fH3SqBurpt2LmtFrW11WjalfiDp0UwAiKvlE8ufCwlIje/VFm5HR5jw/6xmw/Sfe7XvzIdOdmZuo+N9fvf96vnjPf9j0gTfL9HELlubLsuFzhmi9H7eLoKIAkTAMNS3KorXXMAZGhp6YSx8+cvfgMJjAkAIiIiSprg3w3Ke/Tqi8FDh8ee/JvgntvL/da7IPbvzbt2YVvt1ti32uqtidw2IBC5tDWAGVMmT7xhzqLXnoFHlIULxwvwZd3nDj9qIEonnQATnvrjP2MVACaVZlm4obv9aUCyNtfofTwtyQYBftSq8P92RLGw0dF6rhW13GGACZ0AYJENERERJUXw7wbew485Hnld8+FVjuNge81WbN26CTVbN6OtNZHbBdRLUYlevmDBko2GLyJlxYWvCqRQ56G2beH/7roWA/8/e/cBH1d55Y3/99zpI2k0o96bC7Yx2MbGTQJJtgQmAUJITDahJLCbQBqbDSGbff/vhrTdN4VsIGST0EMgNFNCC2DLRVgypphqy8ZF3VbvZeq9z//zXFlgwEW2NbfMnG8+ioQk+7lWmbnnPOc5J/+j6hCt7NrThP/zX3eCc22DqyNdmCTh+2kWkRX66J0SB/7PVsARs0mwU/eHpUBXot5XEVXipP+bfgWPDyp4N6DXzybv9aYN5K5b1xBCjKIKAEIIIYTEfPCfmp6FMxcsgXWazvdH82hCakaW+iJ6CAwO9KHzUBt6ug6pDQdjC/usRbHsqq4ovWnDlvr79GpxdkHFyiu4xsG/8PnPVugS/IuRf7f+8WFdg//Peiy4MVX6ePAvKAxo9wAzjDGRwHBHAGJUBBybRzmeGJLRpEHDv+NjaYO93goA6xGjjP0sSAghhBCzYdUVZX8EcAMMIiu3AHPnL1LL/81EXK8vJU19OWPeAvT1dKrJgN7uLl2Dt2nFmKj5vqe6snQtt+AbNTX1rVouX15e7lRY5Jda/2RkpPlwxedWQQ/3PfQs+vqHoJfKBOnowf+RxwAoARAXRwDGOccLwwqeHpbRa6CiDw52ISUACCGEEEKmuPNvpOBfdPefd9Yi0596nGhamKO+hEJBdB5sw6G2ZozHTANBdiEieL+6ovSHG7bU36VVNYBNinyPgRVBY9+89vNwOuxaL4u339+LjVt3QC9LXAw3p1uP/9vY4tXugswkhhIAfTLH00MKXhiRofER/ylhwALEMEoAEEIIISQmy/49yT7MO3uJ6YP/T7LbHSgonon8ohkYGujFwbYWdHceMn1VAGPwAOzP1ZWll0kR6bqXt26Naoe68vLyLHD5P7T+8ShbtgCLF8zRdlEAfn8Q/3vvk+rREj2c4WD4zwwbrCf6eosjAOIogOgHoKWAFdidDizo1H7tOEkAHApz/H1Yxj9GFOhe6X98OYhhlAAghBBCSMwF/xaLBfMWLFZ3zmOVOCLgTUlXX2bNCaC9tQkH25pjoHEgW6NYlfeqKkuvr9lc/1S0VrGzyP+AMQ805HY58c9XXQw9PPDoP9Ddq8/0xRQrcEumFa6p/DqGLEBnIpAzAs18kAY8ewYw7ADq84EvNgBZBquuMXEC4P0Ax+NDMl4fV/Rp9HGSOOBCDKMEACGEEEJiKvgXimbMgdsd2x2zj2R3OFEyay6KZpyBro52tDXvx+jIMMyLpTHgyeqKsnX2CK5/oa5uWiPX1eWlFWDsn6Cxq664EKk+7Ufd7dzdiBc3bYce7Az4aYYNaZaTKLUQxwC0SACMOIDnZwMN6R+9T3Tav3MJsKoJKG01TjWAySYjcHDUjQHrhiLYEzTI13CKGIeZHzxPKHbT4oQQQgiJy+BfjPsT5fHxSFQ8ZOcW4NyVlViweDm8vlSYGsPaoI2/deGqledN11+5Zs0aB2Psz1qfDZlZkofPrF4JrQVDIdxxzxO6lf5/N9Wqlv+fFNEIMJo4A97IAW5f/vHgf1JEAtbPAO45B+hzwxBs5jjiI2L950dkXNsewc+7w6YL/gXO0IgYRhUAhBBCCImZ4F8oKJkV06X/Uz0eIEYfihcxSrClaR/6e8T0APPdjIsmfQpntVWVpXcMDAd+sGPHjtOahygHR/6DMXYGNCRJDN+57gvqa609tG49Orp6oYfLPBIuTDqF38XWKDYCFMcL/j4HODiF0x9tycD/LgWq9wPL2/VtJ2LwMYDDCsezwwqeGZYxZOxLPTHO3kQMowQAIYQQQmIm+LfabMjOydf7MgxFVAGIl5HhITQd2IO+7k4zJgIYA7vRl+RcuKa8/MqXamvbT+UvWb26bDaX+Y+0ngh58QWlKCnK1XZRcbR9fyuee3kr9DDbwfB1cfj/VIzYgQEX4PNP3wWFLcDmIqC+YKLJ4JT/nAT8Y/ZEn4DLdwMenXps2Ix5BKAzzPHksIKXR2QETPewcnSKhOcQw+I7PU4IIYSQmAn+hcysPFgstL9xNEmeZJy9aBkWLz8fqWmZMCPG2Pkyk9+pqlx56an8eUnhf2SMOaAhb3ISrvyCGCuurXBExh13r4OiaB+VJUrA/023wnY6iZbpPAawNxX4/TJga+HJBf9HOpAy8XeIowN6MFgFwL4gx391y/hae1jd9Y+V4J+Dv7ZpU917iGH0DEkIIYSQkwn+/8SA62FQ6ZkxPb1p2sYjLliyAkOD/Whu3KtWBJgKQyqD9Ex1RemDIwH5+u3bt09pm7i6ovSrAFsNjV35xQvhcmmac1A9+vQGtB7s0nxdEV7flG5F1mlF/4cTAAtP82dTVBKsnwm8k4VpEbQCz84B9qQDn98NJIYQT1MARIz/5riCdUMy3omViP8TJIX9AjGOKgAIIYQQcjI7/4YN/q1WK7wpJm96p6FkbwoWnLMcC89dicQk7TvTnzbGrk50WupWry4rOdGnrikvzwPDbdBYUX4WqsvP1XpZNLV14Knnt0APn02yoNQ9DSFG22n0ARCxqQj6/7Bs+oL/T1YUiN4AR2sgGIMJgAgHakYV3HAwjP+vKxKzwT8H//v62rrnEeMoAUAIIYQQU5f9T0r2pcZ9879TkZKagaWlFZi/8Fx1goKZMMbOYTLeXl1x3heO92kRJt8FsCh2lju6a79yseaN/zhX8Kf7noIsa981Pscmzv1bpucv604A/LaT/3Oia//9i4An5wHjp/Dnp2rUDjxyFvDo/FO7ThMcAfArwBNDMr7aHsaveyJoCsVm4K/iaJRs8j8jDkzTbyghhBBCYpQpgn8hK6cAvpQ0vS/DpBgSEj3IyS9SKymGhwbBFXOMHWMMDsawtqSowLH43GVbGhoaPhalVFeUXs8Y+zetr+vcRXPxpcuqtF4WL23ejpc2btd8XQsDfpFpQ/bplv4fqWgQSJ1iI0Axuq+2CHj8TKBfw0RWTwLwdjaQMTb1az0VASvweh60wMHxj2EFP+6SsW1cwbg5HgpOHUerYsHqmppthxAHKAFACCGEENMH/0JB8Uy4ExL1vgxTExUUYmJATl4BwqEQRkeGYaLJh+f5x0bKZszKe6mxsX1MvPPC8vIiReJPM0DTQ/gWi4Qf3XgNkj3a/jwODo3gv2/7K8Jh7TvGf9VnQaXo/jedvEFgxsCJP6/ZCzy0ANiVoQ5x11zIAryfBYw4gOIBwBKFnfKIBdgW/QknIwrHz7plPDWsIBjDG/6TOMdWi8zWbNhS14Y4QXVyhBBCCDF98C+43Ql6X0LMsNudmHvWOViy4ny1aaBZMMZWIWx5q7qirPSWWyApknw/A5K0vo4LK5ehIE/7SQv3/u15jI1FcRf6GM6wS/gnbxT2FVuTT7wrLpry3XcO0KPz8RURLIsJAX9YOpGQMGEPgCEZ+EFHBG/E/JY/RJVDh+hp40vPrnx569YOxBGaAkAIIYQQ0wf/YvvXRQmAaSeCfzE2sPNQGxr37kIwqNMM9JPBkAvwLfW1ZS8yhgqtl09IcOErl1+g9bJ4Z+de1G57W/N1rWC4Kd0SnV3FNg8gS4DlKAGp2O1/7gxgTIPz9ydjwAXctwhY3g5ceODo127ABIBo9PfTrhg/5z8R+DeB43ZnYuDu55/fMY44RAkAQggxmaqqqmRZHvPaIHkVzrwczCtx7mISPDLgYBxiGySBMdg5ILYhrIzDI/4sBxIZwyfulriNg32qTpVN7GcMfvoK+Bg4C3HGZYANAzzAwPwAH+WchRn4IGMIc8ZGxPsUxgdZ2Dpo4XwwIEkDtbW1gSh+eUgcBv+Cze4AY1TYGK3kSnZugTpi8cDeXTjY2nx4u9PImJUxXKLHyl+94iJ4PNomo8IRGXc+8Az0cKVPQpE9SmX3Ivg/lATkD330vn4X8OwZwIEUGJY4hvBq/sQ1fqEByBk5/b9TJBLEi/iaRMGDgzJ2BmN455/jDUj4jS8156l169bpP1NRR5QAIIQQHS1fvtzlcrEMiyJlMwvSoSADDNkcELOFMsCRIU5BMjAvZ/AxEdDLAWaFRb39ZkwE6vzDaF29LTjiPox94o2j36KxY7z/WNRFj/hTH70W13P4ig7HBwySuBGyKBC3FXbIqK4sFQmAQQ42yESCgaOfM/QAvIuBdUJBD7PwLiVi6Qwz1lNRUdv905+qf5xEnymDf8FmM9guYAwSzQHPmLcAuXlF2LPrHQwPTeFsdpyZVZKPC1ct1Xzdx56uwcGOHs3XLbEzfMkb5cSbOAYgEgAKA17LBWpmTJy5NwMxyeDOJUBpK1DVCEj89KsA/NP/9T4U4Vg3GJNPs6Kf4YsK57/ZWFuvz1xMA6IEACGERMmlK1cmBR2sIKKwfAaWxyQln4MVMvA8DpYrXmNy5108n6sR/dED90+8aXLMKRq2MyDriHzCR/9CSTTlYWAWBXYA9bVlSnUFejj4QQbWDvAWgLVzxtuhoFWWlLbh4dChHTt2hPX8V8UA0wb/gpUSAJpJ9CSrxwLamg+gaf9uyHJcb6Z9rPHft6/7guaVKAc7e/D0C1t06fr//TSregQgqlpEAiAZeGbOREBtNiJxsbUQaPIBlzcA6eOnmQCY/se6J4dkRAxf1TN1nCMEhkeYIt+6ofbVnXpfj9FQAoAQQk6RaDD1yisr8i3cMpOBzwTYTA7MYIzPBEeBnzG1e9HEWPKJ6H4y0P1YwEuOizE1PZLJwERHrXM+ShcwNVkgqiF8SS6luqKskzPeBLD9DHw/BzvAJXm/M2jZ/0JdHW1VxnDwL1gsdEuj9bEAMXUhIysHH+x6B3293Yh3l1xYhpKiHE3X5JzjT/c9pR4B0NpajwWzHRo8j+1NBfak6dPdfzq1e4A/LQWqDgAr2gF2CgG3Q47K2f/No7Gx+88BcfTwfkmWbl2/dWvcdPU/WfRsSQghJ3DBBctTlKBlniSxeQrnc8AwSwT79bW82MqYYyIePTKk/3BLm2ibJMhhYOLuu3QyycIUC0I2oKqirB/g+xnYfjC+jwMNTFEavBlDe9etawghvpk++J8MSIn2nC43FixZie7Og/hg17sIh+Pz1ykt1Ysv69D4b9PWHXiv4YDm6+bZGK7yaVSGH6Uz77oIS8CLsyYaGIreACknObHBNv0JgF0BBaaP/zkOgrHbYXHcVVNTc0TDCHI0lAAghJDDPltW5gvbUCKDnymBzePgZzLO5vEwipk0kav/WJBBAYdpMIYUgImDuUs/rMCQLBjs9UWqK8paOeMNDGyXAt5gAdtlT/DvjpPuwDER/BP9ZWTlItmXhg8a3kFvV1xN1FJ94+pL4XKKQ0vaGRkdw/2PvACtiUfQH6RbEa2+f3FB9DUQ4wKrD0xMC2D6VQDsN3HXf86xi3F2qzej72FK5k8dJQAIIXGpqmplDlPYYnAsBmfzAH5miGGe+Jh0ZIk53eDEOCaOr5YwsBIAF4vvvbgVCo45I9UVpXsBtguMN4BhR0i2vlpbW9uL2BFbwT83701srHA4HDh70TJ0HGzFvj3vIxKOj7YcSxfNw/Il8zVf9+EnN2B4ZEzzdS9LljBPi9L/WBe2AP+YDexLAy7bDXiCuowC7InAhHgt59JvarZs/YcJRpIYDiUACCGxjl1QvuIMDssSLvFF4FgIxhYxGb6PPuPD/yPkyMSASAjNmxyxYJdkXl1R1sQZfwucvc0k/rbCQq9v3PhGH8yHVVWW/oEB30KMiERMeRcbk8TIwJS0DOx+/y30x3hvALfLieu/dpnm67a2d+GlTds1XzfbynCtVqX/8WJfCnDHMuCC/cC5hzRPAIybJHzmnMtgeFpi0m/Wb6p7Xe/rMTNKABBCYsqaNUs9Eb/tbDBWCsbLGLCcg6WJj9GOPjlN7MNqAYYvioZUEnegqrK0g3FWx8HrwbEjDOubtbW1YtShwYN/FjPBvxCJxMdus1k4HE4sWLwC7a1NaNy7K2YnBfzLVZcgPdWr+br3PfwcZFn7g9vfSrXCSc+j0y9gBZ6dAxxIAS79AHCHNTsCYDuVZoTa8oPzv8iM/3bz5m3aN7yIQZQAIISYugv/ti0rz+YWVsYUcbYby+Qgm/3RBCa6SyHRx8CywbCWga0VP3J2RAJVlaU7ALzGGNsuhVndy1u3GuVQdEwG/0K8lJubieiZkl9YgtS0dDS89xaGh2JrGMeis2Zj9flLNF/39bcb8NZ7ezVftyJRwjI3Pa9GlWgO2OKdSALM7fn0x23TX+lk3IQO7wXYvVKE3f7y1jqjPIfGBEoAEEJMY+3atZah3o6FChc7+6y0vharmYSUie58el8dIZOYuJ8qVacRcECxclRXlDUCvJ4xVscjbMOGrVub9LiwWA3+BdF9XoxEo2kAxuNOSMI5y85D84EP0NK4V/0+mV2C24kbv75W85+3iCzj/r9p3/hP+HoKlf5rYtQOPHwWcGY3cNkewBmJagWA02CPmRy8CRy3M5v7ng0bNmjf5CIOUAKAEGJYixcvtqUkuZZyoJwxfv5g7yEx3i1x8obLWE9ZhBwHQwnASjhwNaxcHBtoBlgtgFoZyisalDXGdPAvKIqiJgHsdofel0KOQpIklMyai5TUdOx6bweCgZMcf2Yw37z2cqSmJGu+7gvr63Gw8yg7wxoYkYF0ygFoWw3Q7gEu3w2UHK6esU3/sQ+XQaYscuAdDv67iGJ9uLa2lpq6RBElAAghhrJ6dVmJRUEV56gC+AVgSKZwn8QaBlYEQLx81QrpcB8B1EBizzFrZOP69dv7p3O5WA/+JwUC45QAMDhvShrOXVmJ3TvfQl93J8xo5dL5OH/FQs3XFR3/H/37RuhlV4CjhGb/aWvICfxlEbDkELBmH+CY/rjYpfO3VPTPYQy/qtlU/5y+VxI/KAFACNHVmrKydNmOChHwM441UFCgFodSZ34Sf30ErgbH1UrIqlRVlr3NgBpFQY3Nlbj1pZdeCp7qXx0vwb8QGPfD4/lowAcxJrvdro4LbG9pxIG9u9TqDbPwJCXghq9+Xpe1H35iPcbG9Kuc2BVUcAkMsl0cT8RN0Rs5QJMXmDGduWFdKwDC4Pg758qva2q3vanLFcQxSgAQQjRv3FdXt3IZk6VLwHCRDCyAOLYrPkjxPiHil0Hcji0WL5KEf48ERsaqKks3g/EXpLDlhfVbt7ZN9a+Kp+Bf8I/TcVFTNQgsmgFvSip2vvMm/OOjMIPv/PMX4E1O0nzdlrZOvLzlNehJVAAQHfW6J16mmVMSTznaTOngwAjA75ci0q0n8VxGphklAAghUVddXZ0AeXwV5+zi+lf4JdLEbichZAoYYwkALgZnF3O1oWBpAxh7TlQHRGDZcoyzknEX/Atjo8N6XwI5SUkeL5aurEDDzrfQ03mCGeg6u2jVCixfMl/zdUXTxLv++owuY/+O1BXh6I0AaRQ9xBS3RhUAHLgXFudNNTU1Q9qsSI6FfoUJIVFRWblyhoWxSxjHxYj4zweYjc7yEzINGJsHYJ6oDrBxubu6ovQFBdILES69XFtbO2rE4D8hyYexkeiPgBulBIApWaxWzF9wLtq9xj0SUJifheuuuliXtTe+8ibe322M8ec7A4o6DpDEDg3HAO6g4N8YKAFACJk2F1aWnilzdjEYv0SM6VPPrRFCooYxZADsWgn8WjuLBKoqS2sYWKIY2Q2DSExOQVpmDsZHh8B5dAO78dERGgVo8iMBiZ5kNLz7BoLBU217Mf2cDjt++J2r4LDbdGn895dH/wGj2BXkqBCPMCRmaNUE8PBzEzEASgAQQk476FeAtQCuUMDm0mF+QvTCxEaOPluUJwj+xWOCze5AKBjdBmZi51gkARKSPFFdh0SPLyUNS1ZWYuc7b2BooA9GcMPXLkN+boYua9/90HNqEsAoRCNAgGYBxhKnZgUdijjORgyAEgCEkJPFqspLl0FSg/7LlYlxZoQQcszgX7A5op8AEIYGBygBYHIOhxMLl6zE6/WbdG/sWFl2Dladt0SXtd9+fy9q69+CkTQGOfyKcWbHk9On1feSA9p3zyRHRQkAQsiUVJ1//lxmkb8E4CsAm6X39RBCzBP8CzaHU5O1h4b6kZNfqMlaJDrEMY59e97TPfjPzkzTbeRfMBTGn+9/GkYj9v8bggoWUwYgZrg0OzKlNrQlBkAJAELIMa1atTxXUixfBMNaBqWUSvsJIacS/At2uzYJgOHB6Z+TTTQO/hvew6G2Fl2vw26z4kc3XgWXy6HL+o8+vQEd3cY4AnG0cYCLXXpfBZkuokOzlQGR6Pdtoh4ABkEJAELIx5SXl3ttkryWgV/JFXbe4ZnkhBByysG/YNeoAmBsdBSRcBhWm/YN28jpa9zXgPa2Jr0vA9d/9TIUF4qfZe01t3XimX9shVFRH4DYIxrIjEY5AcDAKQFgEJQAIITgllsg1W8pXQmJXQ0euZKpZVpMdBgnhJDTDv4Fq9UGSbJAUeQoXwlHf18PMrL0Cd7IqWvavwctjfv0vgxccmEpqiuW6rK2onD84Z4nEJGj/Xty6vYEOWQOWGLgHkH0MxD/lgQLF3c9iFcuiWFUiXoJACUADIISAITEsTXl5XkRJl+5rRbfYBJK1HdS1E8IOUlJyT6kHif4n+RwuuEfH4n69QxQAsB0mg98oCYA9HbW3Bm47iuX6Lb+U89vxt4DrTB60HwgxDHbYb77hcYQR+2Ygrf9CppCQJBPBL0i+M+2AfMcDCvcFqxwM7UsPp4qAKKNUwLAMCgBQEicufjixe7AmOsL4LhWZnIFo4P9cUGSJDW5I7GJ10cS/8mko5Rzcq6OVfukifdxcEVRz+uS+DYR/OdOafynw61NAqCvtyvqa5DpIwJ/IwT/GWk+/Pt3r4LFos/Jt6aWQ3j4yRqYwa6AgtkOi6kC/7v6ZbwlshdHwcFxKAwcCnPUjCpIswJXJlvwGY8UF5UBmvR05IwSAAZBCQBC4qiLPyzyDcExXMMAbxw8n8VM4G6xWiFZrLBIFjCLBImJtyUwiwUWi0X9HCZZJz4G9lGwLz5fEkc5ovvMLkq6RR6AKzIU8YaiQOGK+n5FPvxafI4sQxZJAyWivl+WxccjkOUIJRLiIPifrADQQsA/jvHxMbjd1HTayMTv/f4PdqGteb/elwKH3Yb/+Ner4fHo8zMTjsj43Z8fRUSOwAwWhMt1AAAgAElEQVR2BTn0mY9wckS8f/9ABM8OK+oEg6nqjQC398l4eVTBzelW5ItOeTF+BEDdo48iRhUAhkEJAEJi2Nq18+xDPd7Pc8a+CSjltNlvHBYR0FttaqMy9Wy01TrxPotVfdtqscFitUQ9eJ8OItGgspz6bpBIAkwmBJRIWD3/KkcikMXbkTBkOYxIKAzOT+YWjhgp+BecGiUAhP6eLrgLJ042EWMG/3t3v4eDrfo3/GOM4cavX4EZxXm6XcNfH3tRbf5nFjsDxn8sfm1cwR19MrpPo7296HfwzYNhXO214Apv7FYDaHEEAIxTRtYgKAFASAy6sLy8SGbyNwZ7cB0YMvW+nvjDYBVBvM0Bm92uBvmTwb7FMvHf4oaTfGQy+QEcf+SWqCQQHd7lcBhheeJ1JBJEJBRCOBTSoMEcOdXgX2CSpE4DCAUDiLburg7kUQLAoDj27HoHHe36jvqbdPnF5ThvxQLd1n9/9wE8+1IdzKRfBjoiHNkGPCjfHwHuGYiopfzTIcSBewdkvDqu4IfpVuTEYDWAJkcAqALAMCgBQEjsYNWVK6sBdqPM5YtofF/0WW122GwOWO3itQjs7bDaHerbFOBHr9rALs6dOpw42hhqUUUQCR9OCITFy2RyIEjJAZ2D/0lOd6ImCYChgV6EQiHY7faor0WmbnxsFLt3vo2hAWPMuF+5dD6uuWKNbuuP+QO4/c7HTVndtCvAkZ1onOc6sc//4oiCu/pkjEfhWFlDkOP6gxFc55NwWbIlpmoBXJr8Y5hz8eLFth07doS1WI0cGyUACDG5NWvWOMLBkS8xsJsBzBfvo9hzeokz+Ha7Eza7Q929FEG+w+FSdzOJsYieCBaL+6hnzRVZRigUQCQUVAPQ8OHX4vgB0Sb4n0wADA/0QosS8/6eTmTlFkR9LTI1fd2d2PneDvVojxHMKsnHv93wT7oetbrrgb+ju3cAZiT6AFQZZE+3KcRxW18EuwPRPccupgb8qV/GG34F30+3Ii0WZiGqCQBt/h2JiYniGMCgJouRY6IEACEmHuEnM/nbcmD06xJjqXpfTywQzfNsdifsDhccTids4sXmnGiqR0xPsljgdCUA4uUIosdAOBRAKOBHKBBAKOhXqwfI9Af/gvo9UP+O6Dd+7Ok6RAkAAxDJmNam/Tiwt0GT7/tUZGek4sc/uBYOHStEXntzFzbXvQWzmugDoO8kgCAHHh+S8ciAgoiGP1tv+jm+0R7Gv6RY8Zkk898jODX6J7gmjgFQAkBnlAAgxGSqK8qWcca/J0P+AgCb3tdj7lJyF+xOp7qbL16LM/tUuh9/RBNG8eJyJ334PnFcQFQHqEkB8To48TpeTVfwL4iEmtPlRsA/hmjr6+1We0aIvhtEv+C/4f230HWoDUYhOv3/5Ef/gmSPftvXYtf/9rvXwcxaQxwjCkeS2kFee+/6FbVTf3tYn6SSaDFwW28Eb/klfDfVimTzTEXULQGgIGSQmpH4RgkAQkyiqry0DBL+HcDFsdqFNprsonzf6VKDfrEDKQJ+mopAjpcgEj8nE7vVE8QZ3aBaJSCSAX41gBXBZaybzuB/kishUZMEgKIo6O46hJy8wqivRY6GY8/7bxsq+Bfj/v7v97+mVgDoRUw5ufV/H8bo2DjMTITdDQFgmXbDPVQi6XBvv6ye9zdCPckrYwre84fxvTQLViaYsxrAqdHmhwJGCQADoAQAIQYmmqX4PK5/AvBDdvh8P5laqbfDKYI3FxwuNxwON53XJ6dNnBP+ZFIgEg4hFBhHIOBHcHwcoZBf3fGMFdEI/gVRbTGALmih82ArJQB0IH4P1E7/h1phFJLEcNO3r8Scmfr+PPzlkRewZ58xJiCcrl0BBcvc2mx9i0dW0dn/rv4IhgzW03VQ4fhJdwTnJ0j4XqoViSarBtBoCoAYBUOjAA2AEgCEGLux338yYKbe12N0ksUKh8sFpzMBLnci7e4TzaiTH2x2uJO8H1YJBPzjCPrHEPSPq7vcZk0IRCv4F0Q1jvi6iQRKtA0N9qvfE3HsgGinrWW/Ycb8TfrGNZdh+eJ5ul7Dttd3mm7k3/HsjHLTvUmHwhy/75Pxlt/Y0xJENcCeYBg3pVmxSJvW+tNCu0ulCgAjoAQAIQayevW5qUx2fEcOjnxHAkvT+3qMSsyLdyZM7MQ6XIlqeT8hRqkSEEko8fLhsQG/OC4wisD4mBqIGqUJml7B/yR3QhKGB6M/Ck4kYDoPtaNoxuyor0U+Sro07t0NI7l67Rp8pmqFrtfQ0dWLO+5+HLFkb0iBOIJvi9JDhfi7Hx2U8eiQrL5tBt0Rjh91hvE5j4R/TrHAYYLeQlolACTIlAAwAEoAEGKQwF9S7N+Fgn8Fg5d2rz/dNEyMdRPjw2iHn5ju2IA7QX1B6kcVAoHxUfjHR9V+AvEY/AvuJI8mCQBB7EQXzZhFjxsaEKM2d779mtp/wSi+eOkqrP3cKl2vIRSO4Je/fwhj/thqJhriwL6QgnkOKSpTBm7vldFilsj/COKK/z6s4LVxjpszLJgfha/PdHJpdGSBUwWAIVACgBAdlZeXp9mZfBMU/h0qi/o4EeSLc8Ii6Bc7/dSdn8RahYBPjKnrbMfY8EDcBf+C05UIi8UCWY7+YV6/fwz9fT1ISc2I+lrxbt+eXQgGgzCKi6tLcc0Va/S+DNz917+jqeUQYtGuAMc8x/R21//rQATPDHOI/5lZR4TjB4ciWOu14BqvJWqVEqfLqVFylE+MASQ6owQAIXoF/lLkO+CR74GxZNqV+miX35WQhISkZFisNLaLxLa+7kNxG/xPciV6MDqkzdfgYFszJQCibLC/B90d7TCK6oql+Po1l+p9GdhS9zZe3vw6YtWuIMfaafq7to8r+H2vjF7Z3IH/kUQtzGODMl4bV/DDdCtm2ln8NgGkzS5DoAQAIRqqrl6RgbDlZo7INwGWEO9xv5i9Ls4BiyBA7PTTLj+Jp+B/RKPyd6MG/4I7MVmzBEBfd6e6M+1wUM+QaBAl/x80vGeYppfnr1iIb1/3Bd2fVxqbD+GP9z+JWCYmAYjv+ul8pTvDHHf0y3hj3DhHR6Zbc4jjxkNhfCHZgq96LbAa6JbHpd3vCU0BMABKABCigaqqqmREAjchwv8NDIksjiN/u8Op3vS7Ez3q24TEGwr+PyKOQoimnrIc0SRA7TzYgsISagYYDWLnf2x0BEYgOv1/74YvqWP/9DQwOIJf/O4vCASjP+3iaDjHAcYwI9rriJF8B8MceadQ3y42+p8dlvGXQRkGb/A/LSJ8ohrgHf9ENUC+Qc4EaFUBwMCpAsAAKAFASBStXTvPPtSb8jUeCfwMDJnxWuovuvS7k5KRkOSFjTr2kzhGwf/Hid3ZBI8XwwO9mqzX3tqI/KKZ6pEjMn3Ern9L834YwdJF83Dzd6+G1WLRvenff9/2AHr7BnW6Ah7hFuXLUKSnGFieFn0ATjYBsD/IcVtfBHuDxqga0dIHQY5vHQzjKq8FV3gl6L0x5JS4egUafCcoAWAAlAAgJArKy8utDkm+brAHPwZDbvzF/QwOlwsJh3f6xbxvQuIdBf9Hl+BJ1iwBEAwE0NN1CJnZUY+H4kp/TxfGRob1vgyULj0bN337y7oH/yIh8od71+GD/a06XgP7xcaNr75RXVH2Kti0HdE/pp1BBRcmTS2xFuQcDw0qWDcoq+fj45XIe9w7IGO7X8HNaVbk6FgNIBIQDgYEop4BoB4ARkAJAEKmF6teVfZFKJFfcLDZ8Rb4T+70J3p8FPQTcgQK/o/N4XDDancgEtKmc3xb8wFKAEyz9vZmvS8BFWWL8K9f/xIsFv2rO558brPa+E8vnPPXw9z6X+rb4PUMbK0WFQBTIRrh3dEno1vUwpMPv3bfOhjBN1ItuChJVAPow8kYAlHu4UFTAIyBEgCETJOq8tLlYPgtOFYijprZqY38Ej1I9KSoo/sIIR9Hwf+JJXq8GOzt0mSt4aEBDA32I9mbosl6sS4SDmOgt1vXa7igcim+fd3l6phNvb325i48uG69butzjnEL49fUbKlVG2tIjNVpEWqLHgCDCof3GH0X+iPAPQMR1IgZf+RTxjnHbb0R1I9L+Lc0C9IsOvRkkYDB6H97KAFgAJQAIOQ0rV5dNpsp/FcM7DLECcliReLhM/0Ol1vvyyHEsPq6D2JksB9GkeRNQWqGCP6NJcnj0ywBILQ278dZC5dqtl4s6+nuUBss6uWiVStww7WfM0Tw33qwC7+78zFwrt/XgwE3v7x52weT/x1ULO/aJHmEAUnRXFckGRr8HCsT2Kfe/+KIgrv6ZDXIJccnpiB8o13Bt1KtqErU9mdai0aAjFETQCOgBAAhp+iCC5an8LD1h1zm32OMxUVnO9GxO9GbgoREj6F2DwkxooHeTmMF/2LnPyMHRmSx2uBK8MA/ps058p7ODrVjfUJiVGOiuNDb3aHb2p//bDmu/fJnYQSDQyP42W/uw7g/oN9FcDy7YUvdn458V21tbaS6svR1gK2O9vK7giIB8NF/N4YmdrX3xGGTv9MhiiR+3RPB634J3021IEmjaRYaTQKgBIABUAKAkJO0ePFimy/J+S0exk8AePWeMRxt4myu2O1PTE5Ry/0JISc2PNSPof4eGIURy/4/Kcnr0ywBICKl1qZ9mHvWORqtF7uGBgY0X1OM97tq7Rp88ZJKGIHfH8TPfns/unu1/1pM4uBNjgj72jEaudeJgkUtGgECFrW53eNDMh4ZUBDRoq98jNoyquBdP8e/plmx0s006QEQ9TkAnB2RIiJ6oQQAISehqrL0cgC3MrBixDAmSWp5vyjLpRJ/Qk7O+Ogw+rsOwijMEPwL7gSPmmSMRMKarNfV0Y7imXPgpMe4UxYI+BEKabvjnZbqxU3f/DLOnGOMp+GILONXdzyI/Y3tel5GmEv8yhfq6o+RgeDbtPj93xcAto1z3NkXQQc1+ZsWAzLHT7rCanPAG1KsUd2l16ICgLPoHkUhU0MJAEKmoOr882dBUm5nwEWIYTaH2O33ISk5BZLOY5QIMaNgYBw9HfqN/jLLmf9jSUz2YbBPm4Zy4tx6W8sBzJpzlibrxaKRoQHNO/1ff/VlSEhwwQjEWf/b/vwY3npvr77Xwfj3N27c9uqxPh5SbNvsUiQCsKje94vdfhGskukn+ii85Q/jpnQrFjqjk8xxaZEj5hAVABqUGpDj0b9jCiEGVl1dnVBdWfoTSPL7jMVm8C+OMCQkJiMzrxi5hbORnJJOwT8hpxhQiuBfzAA3AiOf+T8WkXzU8ljVwdZmzXewY8noyIhma33x0lX4/g1fNkzwL9z7t+fxyqvv6HsRHI/XbKr/w/E+pba2dhTA+9pdFImGrgjHv3dE8Oc+WT1mMd2cmjQBhFRdXU1lVzqjBAAhR8eqy8uuQti/F2C3xGKTP3G235eehbySOUjPKVAb/BFCTp0o+xcj0YzALGX/R2sG6E4STUa1oSgyWg7s02y9WBMOapM8mT+3BFevvQBG8sRzm/HsS+JovY443+sKKf8ytc9V+wCQT/RNUBRcxIDrAS6SJIbHwfHUsIxvtIexMzC90yZcmiVfR6kPgM4oAUDIJ1SXr1xYXVn2CiQ8CAZzbZ9NgdOdiIzcIuQVzUKyLx0WC50EIuR0jQ4PYnRkEEZg1uB/kic5TdP1DrY1IRigKoBTEdSoeuLLl1cbYszfpJpX3sSDj7+k92X4ZYmtfXbbtimVYTDw+uhfklnwCAf/fVixnr2xtu6l9Zvr7kJEOhvgtTAJ0WPh5s4I7h2QEebmqQAQFMVCO046ozt/Qg67+OLF7uCY68cAvynWfjfUMv+kZHh86bA7nIgX4t9ttVghSRKYRYLEJDCJwSL+m7FPlRqL51B+eJ61eFuJRCArCuSIrDZ60nO2MzEuORJGf/chGIHZzvwfjWg8Kl6C/nHNjm40H/gAZ5y5QJP1YkkoGIz6GgkuJ+YbpOGf8Mbbu/G/9z5hgKM+/HebNtW/N9XPjkhKnYUbJ4miF875W+D8+prabW8e+f4NW7c2Aaisqii9EcCvzFD5KXPgsUEZr40r+GGaFTMdzPg9ANTvAY0C1FtMBTmEnKrqVaWXBEfZHWAoNOuu2dFYrVZ1fF+SNw2WGDzXLwJ7u90Om90Oq8WidhC3WCT1tfi3i49PJ3HDJ8uyWuYdioQQCoURDk+8lkV/JRKXBno71VJyvcVC8H9kFUCPX7tmih0HW1BQMhMuF1WmngyuRD8IzsxMNczu/649Tfj1HX+DLOufDObA1WvKym57qa5uSvNGN23afrC6oqxl4j4n/nDOxwD2c196zq3r1q071gM2r9lSf/uqVWUbLBwPAFgCE2gOcdzYEcaXvRZc6bWccnm3S9Lm/tfKGSUAdEYJABLX1pSX50WkyB3g7LIYivvVXX5R3u9OSta0oVa0iOSFw+6A1W6D3SYC/onXWic11IoCq1V9ceLjjagUWUEgFFBLicf9fiopjhOhQACjw0N6X4YpG/4dj+gDYOmzQdaop4KoAmja/wHmnXWOJuvFCskS/cB8sipLbw0fNOFnt96LYCgEI2Bg+RErHrrlFlz0059iSl8kzlDHEH8JAA7+vCRL31q/dWvbVD5/06a6hvLy8hU2JouK0J8xBjsMTkxdfHBAxhuiGiDdijzbyd/7RWm4wKdwyJQA0BklAEhcuuUWSK++UvYvES7/hoFp13EqykTZrOjiL+Zpm5UIsu0OOxwOJ5wOJxwOB2w2G8xwI+x2udUXn29iPJTfH4Df78fY2AgiEf13iMn06+sRpf/6lgKb/cz/sR4Hkr1p6O/p0GzNzoNtKCicgURPsmZrmp0WCeaOrj5E5Ih6nEsve/a14Ke33gd/wBjB/yTGcMG2V0pvAepvmeIfEX0ArkSc4OAdTGE31tTWP3Gyf7a2tlaU9f1q1aqyFyUFf2UMpjgjtCfI8c2DYVzlteAKryQSRVP+s06NKgA4qAJAb7FXE0zICVy46rxzWloKngXwDcZg+DNeJ8bgTvQgLTMP3tRM2Ozm+ieJMn2Xyw2PJxm+FB/SUtPUt91ut1reb9ajC+LGWCQuxL8jOdkLl9Mldl8QiUQMcHaUTIfx0WEMD0yp+ja6Zf+ZeTEV/E+yO50YHerX9PdlfGwU2bkFmq1ndj2dBzE+PhbVNUT/leKCXOTnZkAPe/a34Ce/vhd+f/T7HZwKztl5M0ry32hsatt/os8tKikIScA3EeM4hwKGu62O8OfWb3z17dP5u5qaWrvyC4v/YmHcxjlfwYxyHuU4xHbD2wGOdwLAWS6GpCkG9r0RoGZUi4ob9kJjc+uU+1eQ6WfOO2tCTsGaNWscxfmZP+Pgf2Fg4o7Z5BgSPT6kZ+XD40uF1QS75JOBsdjZT/IkISUlFWlp6UhMTITT6VRL62PhyMLRiO9PQkKCmgyw220IR8JqPwFiXj2dbbr2fojFnf8jiccCEfwH/NENMI8U8I8j2ZsCl5t6AUzF4GA/RoaiP/2itb0T1ZXL1AauWtp7oBU/+dW9GPcb90iX6GfLObuosDj3sebm9uOeR7rmmtaetub874GxmO0GzDnelSR22YbNdXfu339wWrI2LS0tkcbm1poZxUVbOHgFA/PBBLojHBtGFaRYGGZMoUHgsAK8OKLJkZsNjc2tH2vCSLRFCQASN6P9FCX8PANbCxg/e3uim+JEjxcZ2QVqgz+L1fgnecQuflKiB16f2OFPhyc5GS6XSw344416xMHuUKscHE4nwmFKBJhRIDCOob5u3daP9eD/yH4mw0N96l29VkZHhpFbUBTzX9vp4B8bRX9v9H8PhkbG0N3bj+WL52uWJN7X2IZbfnkPxgwc/E9iDC7G2UpfasYDHR0dx4zgamvBS4oKz2cMsxB7/AD/b1/6wDXPvbAjKh1EG5tbW+bNz7g7ErYmMbClZniQECMCt40r6tGAhS4G93GqAcYU4DkNEgAMrLaxuXVb1Bcix0QJABLTysvLnbNL8n/Bgb8wxkzeIWsi8E/PKURScgokHc9DToXVakFikgepqWlIS0uDO2GipF+M4SMTxBGBpKQkOOx2BINBtREZMYf+nk6ENZqBHq/Bv8AkCYosIxjQZiSgEAoF4XQmIIl6AZxQOBREV8dBTdZqbu1U80Bnz5sR9bX2N7bjx7+82xTB/yTGWK7LbnM1NrduON7nlRQVFDGGVYghnGMzt+Dimk31TzY09EQ1o753b0e4sbntpRnFea9yoNIsfaQORTheHlGQZmUosR/9uSPIgadFGUDU8W2NzW1bNFiIHAMlAEjMWr165QoL8CIDLjPDma1jY+pOf2ZuoVryb+Qz8WL8XpLHg7SUVLW8P8GdEJe7/CdfEWCHx+NRy51DBukwTY5NjoTR361N0BPPwf8ku8OFkcE+TdccHhpAbn7RtI8SjTWSZEFbywFNO/FnZ6ShqCA7qsH/f/7qboyNmyf4/xDDihkl+a8frx9AcWG+hTH2NcQCji6F8W9v3FL//aamVk0fJBqb2w6UzDzjPvBICgMWa7n2qQpxoH5cQUt4ohrA8YlqGhH6Pz6kSQ+AHY3Nres1WIgcg3EjCUJO0fLly11zZxb9BpzdyRjSYVoMHm8q0nMK1J1/caNlROIG2SN2+tPSkJqaqnbBj+Wz/NEivl6iYaDL6YTfPw6FGgUa1vBgHwLjo5qvG8sN/070GKN1FYAsTzTrTEnTp/GcmXqbiOkJkYg24xqFN97egzPnFCMjffqPYe/c3Yif/OZejJsx+J/AOHBBycz8vzU2to0c7RMys3O77FbpZsZMHQNwcP5QiFs/t3nL1lf1uojGxsZgY3Pr88VFhTvBuKgGMEXzEJEA2DDK1VGB+UeMCxQzAx4ejP6RRA68L75uUV+IHBOltklMWb16xbmJLutbYPgeY2b9+WZISExGbvFspGTkqLvqRiQC/YyMTBQWFqnBv2jsR06f0+VCbl6+2h+AGNP4yHH7bEUv+M8QO//xKTk1HVoXcrU1H1CnApDj86WlabqeGAn4yzseRFd3/7T+vdt3NOAnv77H0A3/poKBpTOZ/VWMOz7ax7dv3+4H46fVGV9PHNjPOao3bKm/pra2thcGsHHL1ieZVZnPOZ6GSQzIHLd0RfDrngj8hzf9RS7Aqk1+mcYA6szM2T9CPlReXm6dVZx/M+PSg4whEyblciciI6dQ7epvxFJ/q82qdrHPyMhQG/mpZ/pppz8qO55JiUkIh0Nqk0BiHOFQCIN9XZqumeBJVsd8xtvO/yd/JzhXEPSPaxpqiARAVm6+hmuajywr6Ok6pOmawWAY7+7ch/Kyc2C3nf4xs011O/A/f3oEkUisNGRlJa3NBeHG5tatR/toSXHBXAa2AuYingxvtToSr1hfs2kfDKaxsX2ssbn1sRklBQ2cY7VozAgTaAxxbB5T1CkBWVaGJ4dl9ahANDHwpsbmtkejuwo5HuNFGIScpNWry0qs4H9nDNeZtaTNIXbTs/ORnJphuK7+E6XpCeouv+jgL7r307lYbb7uYmwgJQGMRcyl17L83+lKUPt/xHPwf+REgNGhAbU0Xyt+/xiSkr1wJ9CG1bGIkYntrU3gGjcxFZMBdu4+gPOWL4TNeupP/S9s2IY/3vd0zDVhZYyfX1JYsKGxpa39kx8rKS5IZGBfgmnwWgn8M+s31z+2f/9+Q2dpGptaG0pm5j/KODtLfKlhAqL7f80ox5jC0RoGAlF+iOUchxqb2/4a3VXI8ZgyWCLkMFZdUfptcPY0Y4h+W+AosDudSM/Khy8tC1abHUYLQD1JycjISEdycrLasZ7okwQIBgKI6DhvnnxkoLsTsqxNQkb0/cjMLzZs/w+9qgAC/jFN1x0eHFDHApq6l2yUvy/iezIyrP3RmL7+IexvbEPpsgWwWE7++/O3J9bjgcf+MVFYHnOYxBjK8wtL7m9paflYd9mikpx+CZYfwOA4R7/E+Hc2bK7/3oHmNkOU+09FY2PbUGNz60MlJfm94KyCMZjiBmp3kEc9+FcxdDc2t92jwUrkGOiugphSVdXKnJKCwicYY981ywPrkcS5/pT0HKRm5sBqc8BILBYrvF4vMjOzkJCYYMijCPHYHHBsfDTmdqjMRjSi6+/p0Gy91IwcON2083wku9ONkcF+TasA1AZ3ijjrbuKeslFmszvQ0d6iy9qd3f1o2NuEFefOh22KxwHEz8+9f3seTz0f65PIWKrEeNonG641NR0cm1Gcf6X4OIyKYx2zyZ/dsHFbHUyqsant9Rn5hY9wxhcxxkQpFxE4EwmSP+p9GfGM7uyJ6VywqrQaCnuJMbYAJiN2kJJT0pCRXaCW/RuprNdusyM1LRXp6RNl/nS231g7bA6HEyMjR23qTDQidjnHRgY1K3ePt3F/UyEel8SLX+MpDEND/UjPzFa/L+TTnE4X+nu7EQz4dVm/u3cA7+7aj2XnzIPTefyk+vDIGH77p0ew6ZU3EQ/EiLoZJflvNTa17T3y/SXFBecwsIUwGA7eBC59uWZL3S/FuXqYXGNr6+DVX237a2tz/gCASsaYsc556oAB/sbm1tv0vo54RgkAYhqLFy+2zZ9T8mPO2d2MsSSYClNH+WXmFsGd6DFUcG232SbO96enw253GOrayEfEaEVRARAMBvW+lLglgn+tys9F8G+zU7B5NA6XC6PDg1AUbY8Cj44OIyevgJIyx+B0utF5qE239fsHhvHKq+9izuxCpKV4P/XxMX8AL6yvx6/v+BuaWrRtWqg3ztnqGbNy/3pkQF1SWJTOGC6FwZr8ORMCX3pp/fY9iCG1teCNzW2vlRQUPwOJr2BAlt7XpDO5sbn113pfRDyL+ywUMYfVq8tmSwp/FGCLzBafihLelHTj7RyJYwii1N/j8eh9KWSKfN4UjI6OQpYN3QMpZgXGxzSbrS4SheRYGFLSMtHdoW2wOTTQj0NtLcjJL9J0XRqBI8IAACAASURBVLNISUuHLyUNA/36HdXuGxjCf/z8T7jkwjJcULEUg0OjaG7vUJsF7nhnL4Khjx2FjxuMIQMR6QEAn5lseCAhUscNsg/IOX8LnF9fU7stpssyal555f3y8vJzbUy+iTH8XJyeQTxiPEHvS4h3JgulSDxaXVl6jQT8L8BMdRhWDbDTMpHo8cFIbOK6fD4kJZmsiIKoBgcH0N8/vfOvydTODLfub1Cb0EWbLy0TySkZUV/H7DpaDyAY0HIs4ERyZnnZasMldI1ieHgAO159RdMeDWTqOHBdzea6+w//J6uqLO1iYLo1t+CcjwHs57707FvXrVsXV5ntC1adt1Th/AEGzEEc6h/223fs2EEjjnRCLW2JYa1Zs9RTVVn2kAT2gJmCf1FC703NQG7xbEMF/6KZX2pqGvLy8yn4N7GkJGMdIYkXohGcFsG/kJCYrMk6ZufLyNZ8zUg4jD0739F8XbPweHwoLJql92WQY2Cc/25NeXne4f/kDHhFr2vhHE8rknxGzZa6X8Vb8C+s37T19VF/5Bxw3Ma5aDMaX7JcLtPc18ciSgAQQ6o6//y5csD2KgOuhIm4EpOQWzQb3tRMQ42MSvYkIz+/QB3nR8GjuYlEjhgNSLQV0ah0WOwsW+3Gmgxi5DPnehyV6O3pRFfHp0ark8OKZs1BYhIdYTleDwtvqk6b7owlR6TInz78b47ntL4EDt6ucHZZzZa6yzdt2n4QcWz79u3+DVvq/o1zvpqDNyOOyBYL3cjoyDgRCiGHVZef9zVIyptgbB5MwmZzICO3CJk5RbDa7DAKl9OFvLx8tcmf6CRPYoPbTc+bWguHtWm+6HTR9/ZkiP4qeiQ19+1+D6EQNeQ8GvFcM++sxTRC9hjTEhafex7OXrgUTreYBKQ9BnZxdXnZVep/2NxPgKNPi3XFLjcH7rI6wmdu3LL1GS3WNIuNtfVbnAmBMzn47yd7NMQ6BSGqANARPToTwygvL3fOKsn7LWP4f4yZozGKuPFMTklHek6B2kHfSOf8MzIykJKSSjdhMUh8T4eHh/S+jLgyNjyoyYgzjzedzpefBEk8vnGu2XSGSaIRp39sFJnZk9XU5EjiZ1hMvunujOsN3o9xOJ1YtPQ8uNwJ6s9tsi8FHe1t+sR7jK8qKsl9aOPGV/pKigpcjKEimstxjncliV22YXPdnfv3H6TM2VHs3dsRbmxue6mkOO8NAKsYzDbt6uRwjgcaW9riaxyHgdCWIDGEysoVhTYWqWVgN8IkHK4EZBfOgi8ty1Bl9aLMPzcvn3aJYzwBIMYCEu2EIyHNggRycpJT09Wmq1rr6e6kAPc40tIzMWO2aQr5osrhdOGcpWUfe14W/RJmzJ6r0xUxr6RY7xBvjQYivwb4vmiswjnGAfbDMLcsEWfeo7FGrKnZvO0fkk2ezyEmX8UubqLeXrGItgaJ7qpXlV7CIL3EGJsJExCZ+9SMHPXFYjFOEGZ32JGdlaM2+DNSQoJERyDgRzhMDXS1MjzQCzkSifIqDD6dStrNTHy9LFYbxke1r4oZ7O9FZk4BJeSOIdmXioB/HKMj8Vux5HA4sWiZCP4/He+IKoDhwQH4NRoxeiTGMLe4qHDn1rpt780sLniFc3bN9FZf8peYLH12Q+3WF1paWuKuyd3pOHCg3d/Y3PZkSXH+bgZUAkyf8yJRJHH25IGW1r16X0e8ogoAopu1a9daqipLfwXOnmGAcdrlH4fo6p9bdAYSk1NgqKkDXi9yc/LUJACJD0ZKPsUDrkS/SbXVbqfg/xQlJCXDqUNT6VAohN3v76Cxd8cxZ/5CeFPSEI8cDgcWqTv/x/rZZJh79mLdjv0wptxRXl7uXb+5/l0AlwI4/XNOHF0c+MqGzfUXbdi6tWlaLjRO1WyufzykWM/iOjRrjDYOUAWAjigBQHTx2bIy32DvoRcY2A/VZ0CDE439svJKkJaVZ6gz9U6nE7l5eepZfwoc4ovVQg/fWpLl6G9g2ayUwDsdqRn6VE/093bjYHtcNfA+KWIizlmLlh4nCI5Noi/QwnNL4U5IPOHniaaJetwKMbBsO5N/Lt6u2VK3kQHnnUY3eg7we+wRzK3ZXPfI9F5p/Kqtre2s2VJ3KQP/Z84xjBhBRwD0RXeQRHMXVq48I2jDNoBdCBMQu/05hbPgNNCZenGT6/P5kJ2dA7uBpg4Q7XDj581iihYVAJKVnpJPh83hhMenz07zgT07MT4+qsvaZmCz2XH2khWw2+1x0+3/nGXnIWGKYypT0tJRUDwDeuDg31y9esW54u31m+t2hNUdZ/6bifP7U7adK/z8DZvrv/5CXd1A9K42fq3fXH+fzOSzOeebEAssCiUAdGScrUwSFy4oL7uYAy8yxvLMsOufkVsAjzfNULvrFqsVWZlZSEryGOq6iLYCgYDaB4BEH+cKBvu6o76O05kId2JMN36OOofTjbGRISgaJGyOJI4ADA30Izu3gB6Xj5MESEr2obujPaaPTLgTktSGf6Lb/8kQxyR6uzs1Hy/JGJOYwpb5UjPu7ejoUFpaWkKNzW0b8guL77Iw3glwcT4hDWD2T+z27wfH45zj+zVb6m9pbGlr1fTC41Bzc/tQY3Pbg8XFBX3gKDfLxKyjYUB9Y3PbK3pfR7yiZymiFVZVUSbK/f+bMaNXnjAkJvsOl5Ma61Jdbhcy0jMNdQyB6KOvvw9Dg4N6X0ZcEMFk6/6GqK8jRoqKqSLk9PjHR9ClU0l+0Yw5KJk1R5e1zaK78xB2vftGTCYBkjxeLFyyArZTHAs8OjKMN1/dAkXRoWcex00bttT9z9E+dMstkLZuXZ4tReweblOCLpe/8/nnd5xMhQCZZqtXl82WFDwAYDnMiOOXG7bU/YfelxGvKAFAom7NmqUeOWB/EExtMGNo4ixealaeuotkJGJHKcWXAk9yMu0uEVVPdzdGRkf0voy4IG7GW/fvivo6ySkZ8KVlRn2deNDT0apWAmiPYdG5K+FLTddhbfPoaG/Bnl3vxFQSwJuSjgXnLFOr9E5HW/N+7NuzE9rjozKT52zatJ1mW5qESMzU15Z+F8CvGGOnlnXSC+d3bNhSb5rR37HGWNubJOasKS/PiwTttWYI/sVZ/+zCmYYL/sVuvzjrn+z1UvBPPkQjAAk5Nl96DiRJj0opjl3v7kAoFNBhbfPIzivErLlnIVakpWdhweLlpx38C/lFM+DTZWoCS5S45Zc6LExO0U9/CqVmS/3tFobFnPO3YC7UA0BHlAAgUVNVXrpcZvKbDFgIA7NabRMd/jNzDVfyLxom5ebmqt3+CZkkds1C4ZDel0GmGYuh3VC9Wa1W3Y5TiOB/9/uxtbsdDXkFJThj3gLTF6Nm5eRj/qKl03g0j6lTAcTPsNYY2JVV5aVlmi9MTsvLm+t3DYwElnOOH4n9AZgCTQHQk7GiHRIzqipLr2AS2wQGQ9ezJiQmI6fIWB3+J7ndCcjJyVUTFIQcKRwJ63NGNG5pE8gpnL6n0ynJmwKXW5+min09nWhrPqDL2maSW1CMeQsWQ5Ik0yYx5p19zrRfv8PlwswzdKmQEPsgv1+7di01GjKZHTt2hGu21ImjAGUc2AOD41QBoCtzPuISozf7+3cG9qjoWQeDEqWh6Vn5SM8p0KlM9Pg8Hg+ysrJMe1NEoivgp+7/WtLqMYKSOtMvNTNHt8fRA3sbMDxME9FOJCs7D2ctnM4d9OgTx/FKZs3F7HlnR62CITuvACmpGdAeWzTQd/DrOixMpsH6TVtfDyuWRaIvAOcw8pMKJQB0ZJ5HW2J4y5cvd82dWfQQY/hXI9f0uRIS1ZJ/h8tYZ/0npaWlwedL0fsyiIENDAxSDwCNDQ/0Rb2kW4weTUjyRnWNeCNZLGCSBf4xPRpmcvT39iArN99Uwa0e3AmJSEnLQH9vNyKRCIw+zvDMBUuQk18U9SSDNyUVhw62gGucHGTA8pmzc+89cKCdss0m1NLSEmlsbq2ZUVSwkTOczwDD3VQyxvsbm9vu1Ps64hVtL5JpsWrVssxEp2ULGK6AYTH40rORmVs8LY16ovFkn56eAY8nWe9LIQYmdon9fpq+pDUtdpEVWdvZ9fHC402B06XPMa+AfzxmR95NN0+yD0tWVuq06z01Xl8qlpauQlpGtibrOV1uzDzjTGiPpfGQ9T91WJhMow1b6uqtjtBiDtyl2Vm2qaMKAB1RSpqctsrKlTOssGxkjIlaOEOy2mzIyCtCYpIxg2s1+M/IQFKiPudViXmMjY1ibGxM78uIO6PDA5DlKO9MMsDj06P7d6xjaiA1MjSgyz2wf3wckiR2c+l7eyKiUiIzJw8WixUDfb0w0j3EjNln4owzF6hvaynJ48XgQL+aTNISB84pnlHwcFNTK51jMbH9+w8GG5tbn59ZWLADjK8yTPM9zsYam1tv0/sy4hVVAJDTcsGq85ZawF4F2CwYudFf4Sw4DTbe78jgPyMjE4kJxnhMJsY2PDys9yXEJS36AMgGL302M6vdAV+6PlMBhMZ9H6jl7WRqz4mFJbOwePl5SNS5Ik5cS3ZuAZafV6WO59NjFK9Yc+78BZr3smAMdknG/9N0URI162vrnlek0HxwPA5D4DQrVUdUAUBOWVXlyks5Z88xxgx5aJVJEtIyctSbPqON9zvyiT0zMwsJCcabQkCMJxQMoX+gX+/LiEvj46MIazDbPSk5xZCNSWOBw+lG0O9HRKcRmn09XcjMztV8B9msnE4XcvOL1OMbQwN9UBQtj8gwZGTl4qxFS5GTV6hWJOjdd0DsyQ/0a1wVwTBvZnHhhgPNrW3aLkyioanpkL+xufWJmUV5ewBWCQYdd8ZYY2Nz6936rR/fjBkVEcOrWrXyBnD2FNP1wePY7A4XcgpmITHZcH1PPkbs/LvdhvwSEgMaHKRKTL3YNArawjoFp/EiNStXtwSL+N7ufOcNmvZwUiZ24JeWrUZOfmHUd8HtdieKimdjRXkV5i88V21OaBSFJbORoP0xQaZw/kutFyXRtX7LtsdkKXwmwJ/R7yr4Tv3WJrTNQE4Wq64s/QmD9Btm0G31RI8XGbmFhmz0d6TU1DQkJdGZfzI1out/n4HOxMabSCioSSd5u8sNh9OwE1RNTwT/YtrC+OiQLusHgwG1CiE9U5smcrHCarWqjfey84rUPgF+/9i0HZmx2+3IyMxF8cw56hn/lPSMwzvuxqsYFH2MOg9puxkvTmTMLCx490BLq+Fny5Opa2o6ONbY3PbojJKCBg5UMe1Hd9/e2Nz2rsZrksMoAUCmrLy83DqrJP8+BibG/BmO2BlIzciFNy1Tl3N6J8Pn88Hr9el9GcREent7EQrR7rBelIiMsZHBqK8jglN3AiUGo8nucKq78eGgPkdQR0eGYLXakOw1doWaURMBvtR0FBTNQEpqJqw2K8Sk84nHxhM3eBT3BqIhpBg5mJ1biOJZczBrzllIz8pRd9eNfu8grj0Q8GN0WNsEFgfOuvqrrX+urTVcJ3lymhqbWhtmFRY/poAvYAzF2qzKA4oldIM4kqDNeuSTjP1IRwxjzZo1Djkw+jAYLocB2ex2pGcXqjd2RpeYmIT09HTD32gQ4/CP+9HReUjvy4hroWAAh1r2RX0dhysB2fklUV8n3onz5Iea9yESCeuyvnj8X7B4JVLS0nVZP9ZwrmBkZAihYBDhYAiRSAgcHFaLTa0YsNrtcLncaj8BrZvpTTeRvNr+So3mx4U48JWazXWPaLoo0cwtt0Cqry39LmNMNH6MajWAGEtYs7nu+miuQY6PIhByQuXl5Yk2Jovz/tUwIHeiB2lZeaZonOV0uZCdlU3BP5kyMT+8vb1NPQJA9A0wWvY1RH2MnHgcK5g5L6prkAkB/xg62xp1W1+UmS9eUQ63m5rAkpPT3taEvbs0rp7mfG+IW8+sra2lcSUxbPXqshIm4y+M4bxo/P0c+P/ZuxMozc6zsPPPe799rX2v6upFkjd8jCOMZalbpZa6JXFwWDJoMiSZARJCZsKBDIRZTiZzFMgcznAggUkGAskhJJ4YhmUCkwNGY0tYsiVZXuQttryoVV1d1V1dXXvVt2/3znlvS0JLL7Xd9733+/6/c4q2haznSl366r7P+ywlV7Xf9Rd/8cKVIP762Jtop0ERuLm5ueGk0/lkGA//+hA9ODIho5OzkTj861uI0ZHwtycgXLa3tzn8h4AeeWJieru+mW41G4HHgU7I5qR/aMxafH2D+5+/9FnWP2LfpqaPm1+RqNRdSXH/ltmgMO2pp56db3mxBz1P/rHnyZGXmSjP+xkO//aF/9QEax45c2bCiXWeFFHvl5DRK3lGJmf9gX9RMTY+LqlUyvZjIEJ0efLa2jXx6LoMzY2xicO5HgKoN5kgeOls1v99bVtKsunvJz0TYGximuQw9jcQMK8HAi6aDv3+uz+Q/42XXlozuZMRhl26dMmdX1j89KnZ6T8VkXtFqSPJlHri/Ysnn37uF4/ir4XDIQGAGzp/5swJL+Z9UpR6p4SM7vMfnz4RqUnZeuBfsVi0/RiImJWVFWm1uB0MC31Y04dFEwlO3doEE5Sks3mp7G757TY21KoVP9k3NGKvGgHRo1sKa5WylMu75oIq6W9UM5dfWVh80VxQ2DJ/aWnlrne+53e8djPuifehQ23/8uRXnnz6uX94pA+IAyMBgLd5+Ox97xMlT4uSGQmZXKFPxqb0GqBwr/h7o3Q6LaOjvNhhfzY3N6RcLtt+DLxBp90xsj5ODy8r9g8FHgfX6RYyvf/dxJaHm9nd2fKH2Rb72A6DvSv2D8jy0oLZ5JUn75mZPfEb+pbYXFDYcuHChc78wuJTJ07NfEI89UElMrqvv4An1zzl/Z0nn37u1wJ7SOwbCQC8yUP33/9+peRJURK60cR9gyMyNDYVqTJJ/awTE5N+/z+wV9VqVTY2Nmw/Bt5KKSltB//74nbaUugfivy08ihJJFPidlxp1KvWnmFzfVUKff2SzeWtPQOiRa+T1ANKtzcN/rxQMhDzvJfnLy1+1VxQ2Hbx4tLlmdkT/yYm7qIn6pRSt04EeOJdVSK/3PTi/80nn/40FSMhE52TFAJ3/oHTHxTlPSGiQtVYr1+CRyaOSSaCu7EHBgZkYIBdz9i7drsjV64sSadDi2UYLb7ykrgGfm+GJ2YkXwjVR3EP8OTq4rzVJEAsnpC7P3hG8gVaQLA3nU5bXvjUJ6TRMDc81PPk608+/ex7A1+LgtB68MHT74658oCnvPcoT414Iro0d0sp9U0l8tyH7v/0Cz//80KVSEiRAIDv4bNn7nU978+VklC9dcQTSRmdOi7JZPSG58UTcZmZPhapigXYpcs4l69ekUadKfBhde3ygtSqpcDj5PsGZHhsOvA4eDPdi3/10stWE3DpdEbuvuf+SM25gV1Xli7KtwyvBVSu/ODHn3n2T4wGBXAkqC+EnJu777Qr3hNhO/yn01mZOHYqkod/bWhohMM/9nX4X129xuE/5FIZM4eyeoX5D7ZKqocnjll9hnq9Jl/+wmesbSZA9ExOH5ec4cGhnpJ/ZDQggCNDY3KPO3/2zP1KeR9TokJVX58t9MvI5LHI9s5nslkZpPQf+6B7/svl4G+WcTiu5xkZFue6rmTzfRKLR2fgabdIJJJ+gaSJjQ+32jixs7PNekDsif4e0VsBrl29bDCoTJ08fuzZ+YXFi+aCAjgKVAD0sPNn731YxO/5D9XEof6hMRmdmIn0ACzd+w/s1fb2luzuBj9dHkdTmWSqe65qcr0X3qR/aEQyWbt58e3NNfnGV/XsLNqscXvDI+PSN2B4e4jy/nuzAQEchWher+LQHpo7fU4p+U8iKhOmDLYefBX19Vf69n+gnwQA9qZcKsmGyQnOOBTlOP7BXA/eCprrdaTQF+3Pw+hSks0VpFLeEde1Nw+gUi5Js9n0D3fAXhKUK8tLxuIpUXfeMTv1+69curxuLCiAQ4vuFSsO7OEH7z2rlPy/IiotIeHE4jI+c7Irpl739fXZfgRERLlcltW1VbM7nHFo6WzOSJxmvS7tVtNILLydE4vJ6OQx69VoVxYvyuLFC1afAdEwODwiA4PDJkMqT8V+0mRAAIdHBUAPTvv3RD6mlDLzBrvHSf8T0yckmQpNMcKBJRIJGR4y+sMXEbW7uytra6u2HwMHoZRUdoOfA6DFk0lJ+W0HsLWWL55IS7Vst0Vna3PN3wpQKEY/SY5gZbN5uXrlkrF4nnjvueOuqd985ZXLNWNBARwKFQA95Nzcffe4Iev51y80etJ/PKKT/t+qkA/NP1qE2M7ujmxsUDEZVelMztitcKXEbAjbcoWi9A2OWH0GXSX0ra9/Wa6tXLH6HAi/voFBGRweNRZPXyi5zdiPGQsI4NBIAPSIh+6///3iqI8pkdBM+09n8zI+fVJise6Zcp0jAYDb2N7elo31dcr+I0zPK0kaupVv1KrSarEa0raB4XHrQwH1Z8ZLX3lRNtepHMKtnbjjnUbjKVF///HHOVMAUUELQA94+Ox97xMlTyklodlLly8OyMjEMX+gVrdIJpMywOo/3OLlfXNzw5/4j+hzOx2pVctGYukkqam5A7i5bL4gNX8ApL2hgLrgenVl2e/zTmdoDcGNpdMZ2dpcl3qtaiagkoGlS9PPzy8svWImIIDD6J7TF27okbP3vcfzVKgO//2DozI83n27jfUOXuBGPM+Va9euyc4O5dzdIps3N+yzXDIzbwC35jgxGZmY9X+1SW8l+MoXX5ByiTWRuLnjJ+8yHFH9hOGAAA6IBEAXO3fuvmOupz4mSkKzR2pgZEL6h8ekG2XSJADwdu12W65cuSLVasX2o+AIxRMJSabMLFJpNxt+KwDsS6RS16vXLCew262WfOnzz0mlTBIAN6bnABT7jK4k/v5HzpyZMBkQwMGQAOhS589/aFTa6uOi5JiExPDYtPQNdO+E/GQqafsREDL1Rt0//Os93ug+2XzRWKzy7qaxWLi1TC4vg6OTth9DWs2GfOlzOglQsv0oCKljJ+40GE3FO3H3RwwGBHBAJAC60Llz5/qk7TyhlLxDQkHJ6MQxyZvNRBvlOEoS8YTtx0CIlEolubq8LJ1O2/ajICDZnME2gN0dv/Qb4VDoG5Riv/3iumazIV/+wvNUGOGGRscnJJszNz9EeerH/Zc+AKHGEMAu8+EP353tNNSfi6gPSggo5cjY9KzRmzIb4vGE9PWZOwwg3MP+9Iq/rS1ubLtdLB6X8u62oYO5J/F40l+dinDI5ArSqNelbXlLQ6fdlrXVqzIyNiGJBJVoeCMlnijZXL9mKtzgnSenn3rl4tKimYAADoIKgC7y2GPvTtbLmT8SkdMSAk4sJmMzJ6yvTjIhFiOXBpFmoylXLi/J7i59ub3CZHKztLNhLBb2ZnRixtgsiFtp1Grypc8+a27qOyJjcvqYP7PElI7n/E1jwQAcCAmALvHYY4/FttYHPqqUfI+EgF5bNTF9UtKGdmXbphwq3npduVySK8uXpdlq2X4UGF5pakqzUZdGgwNemOhVtqNTxyUej9t+FKnXa/Klzz/vJwOAN76PTU7Pmgvo6VfSd1OKAoQYCYAusb22/KtK1A9JSH7YjM+ckEQIbkWAoLmuXvG3Iqurq375P3qLvv01eQO8u0UVQBhbwEanTojj2H+lqlXL8uLnPs1MALzJ9LGTxjZX6LXTm2tDobiMAnBj9n9a4dDOPXD6H4lSPyUhEEskZHzmlCSSvXX491wOfr1Iv2QvXV6SSoWX7V6WLfYbi1Ut7UinTZVJ2Ogk0MjErPX1gJpuA/jy554lCYDXpTNZGR4xt4LZEY82ACDEaFyOuHNnT/+wUvLrYZi6qm9BxmdOSiLZe5Vf+qWPIYC9Q0/2X1tbla2tLfFc1/bjwLJEPCm72xtGh6tmsnlj8bA3+mef7rWulu3PAGnrwYDXrsrw6DiDAeHTbSrXrl42E0x5p+5658S/vHDhit0JmQBuiAqACHv4wXvPiuf9TigO/4nk9cN/j75o6Jctyr97Q7lUkqUlbv3x5sqndMbcqq3yzobfeoJwzoQYGDZ303orjXpNvvjCs1Ip2U9IwL6hkTG/EsAMlXbrcdoAgJCiAiCizt1//3tFeU8opfJhuPWYmDnpJwF6WT6f8+cfoDu1W21ZXb0m2zvbJHtwwyogUze/+vtPf96yEjCcdDKo0+lIs14LR7XStWUZHB4NxbYC2KSk3W7J9ua6kWieUp35hUW9mQpAyFABEEGPzs1NS6zzMRFlrvH0JuLJlIxNn5RY3NyKmbCq1+u2HwEB8DxXtrY2ZenyolRZsYWbyBb6jK4D3d1cIxEVYkOjk5LNh6MtrNlsyBc/96zsbG/afhRYNjl93NycCk++59FHH02ZCQZgP6gAiJjvPX16oB13n1aiTtl+Fn0DpVf9mdwvG25K8nnrBRk4IvpwVa1UZOXailSrHPxxa/qlWt+2NupmvldctyPJpNkNBNifXKHofz+0W81wbCtZviyFYr9kc/yc6uU5ADoRVDMwIFIpSXlu4/n5i0sXAg8GYF+oAIiQu+++O9FMyB+IqHeFYtr/9An/V1xXq1Xpy+2iao7l5StybfWaP98B2ItCcdBovJ2tVaPxsF9KRidnJWWs7/r2SaOvfvGzcm3liu1HgUVjE9PGYnme+gFjwQDsGQmACBkspP8P3f4fimn//s1/b/f83+jGuMSwpUhrtVp+n//Vq8vSaDC8GPuTSKWMHvaajbrUyiVj8XCwjQ1jU8clEZJKDd3S9NJXviBXL1+y/SiwZHR8UhzHTAGw8uTDYRhUDeDNaAGIiPMPnP5ZUep/sf0cesidPvwnkrR13ewAWSz2hWIXNPZOD0ba2Nj0V/s1m/bLdRFdjnKMroFrt5tS6DNbeYD9JwFy+aL/faFv4cNgY+2a//O8b4DvnV7jOI5UyiWpmPicUlK488TMH76ysLQWfDAA+Zpb9AAAIABJREFUe0UCIAIenjv9YU95v630W4RF+mVhbOakJFMc/m9GtwDoQWDpdDhue3BrurxfD/hbW1vjxh9HQidHK7tbxtqBOu2WX3WQSPC5HGb6xjWbL/or+fQtfBhsbqz6yc+h4VEuaXuME4vJtauXjcRylbw8f3HpBSPBAOwJCYCQe/DB0+9W4v2ZUipjO2M8PnOCgVN70GjUJZ8v+P/MEE7tdufVg/8q2xtwpHT1j+u5UjcwZOs1rWaDKoCIHLr0AD5dCRCWJMDu9pZUymUZHp2gcq2HpDNZWbo0L56BRKXylDu/sPi7gQcCsGckAEJsbm5uPCHe06LUmM3n0AdZ3cOYSodjkFEUZgHoVoBcLs8LVcjo8v7NrU1Z5+CPACWTKSntbBpb09dptyWZytCaFQGxeFwyuYJUSjuhWeOoy8G3NtZkZGzC6CpL2KPfTfT3oP69D5on3uRd73zPP7tw4UI4+l8AkAAIK7071XEbT4iS99h9EiUjk7OSybI2aD90AsBROstutXADr9KH/fX1Ndnc3KTUH4FTjuN/BjQbNWMxm42GFPt1FQBJxygkAdK5nFRDlARo1GuysX5NRkYn/FVx6H76W2/t2nLgcZRSSa/T+sT8wiKTJ4GQoEY5pDqN0v8pIvfYfQoloxPTks0V7D5GRG1ubUm5Urb9GD2+laEkS5eX/JV+1Wo1NC/b6H7F/iGj8VrNun+jh2hIpbIyOn3CTxaFhZ5P8IUXnpYy30c9YXhk1GCronufoUAA9oAKgBB66Ozpn1Jif+L/8NiU5IoDth8j0vShM5VMSiLJykRT9M3r7u6OrK6uSrlcFrdD1SHs3PI26lVpt5pG1wIWB3TigSqAKNArdTOZ3KuJm3AkJ3U7ycryZckX+/x5BejuwZTbWxtSMzCvxPNUdX5h8fcCDwRgT0gAhMy5uftOK1EfVcru783A8LgUB4ZtPkLX0FUAeoNCiu0JgdE3+9VKRTY21/0y/1qtxm0/rIsnklLe3TIWT6+Y04PmmNcSre+RdDZcSQA9oHB15Yp/QOz3E0roVrp1SG+DCJpS3tD8wtKvBB4IwJ6QAAiRc+fuOyaeelIpKdp8jr6BYekftjp3sOu8Vn6eyfBifpTqjbpsb2370/z1bX+71bb9SMCbDnd6G4BetWayl7vQP+jvnkd0vk/0KsdqaTc0SQBNDwZsNZsyODzKQNsuFYvH5MrSgoFIKnvy2PGPzl+6tGkgGIDbIAEQEvfcc08mFYs9oZTcafM5soV+GR6bpIQ0oEF0+mZaJwFYEXi4Ev9yueQP9dve3pZGs8FtP0LLicelUto2Fk//u+AnG5ndEikJXQkQsnYAbXdnS0q72zIyOu5XBKC76M0hy0uXpNMJPnnuOe4XLi4sfSXwQABui0/zkHjXHbMfEaUesfkM+uVjdHKWTH+A2u227O7u+v+MdUsA/6z3ptVuSaVUlo3NDdna2vQrKjr09iMiL9jVcsnIC/Zr9PaBfHHAbwdABNsByjvXR7SHhO4RX19dkcGhMebZdBn9DlLe3ZZyWVefBG5pfmHpCROBANwabwchcP7s6Z8RpX7O5jMkUmkZnz7BzbQhuhJAH2IT8bgkEgnbjxNKzWZDdnZLsr6xLlubm1KtVf0EChA1+iBe1Yc6gzrtluQKfUZj4miSANlswa8ECFNlk24FuLq8JPl8gc1AXabRasjG2rXA4yiR8vzC0kcCDwTgtkgAWHZu7r57xPLQPz2JeHzmpD+oDuboG2zdt16r1yUei/m7l3u5IsB1XalUK7KzuyMb6+t+eX+9XmOKPyIvmdJVALtGqwBazYZ/m6wPlIiWmN4OkMv73zN6IF9YeK4eDrjstwL0+XMmevfnVTfRFz8m5gB4IoX5haVfDjwQgNsiAWDR+fMfGlWu85RSYm3Xnv5BPjZ9wi9ThR36VlsnAqp6FY+nb4ASPVGJoW+39BC/cqnkT+7f2FiXSqXiTyXWyQCgeyhxYgnjVQDNek3yfRzUIpsEyBb875kwVQK8NhxQD7ccHBnriZ9V3U6//y1desVP8ARJicqdunPqX83PXw5+7yCAWyIBYMljjz0Wq5crfyxKvtPWM+iXwrHpWVZGhagiQJe57+xsS6PR0L9BfntAt7y869tPfaNfKpVla3tLNjfWpbRb8ocjmrwZBWxVAdTKZel0WkY/U2LxOJ/xEaV/77L5glRLpVBVAmi6Z3xj/ZoMDY/5SWtEl37H8JM6tWrwwdzYE/MLixeDDwTgVkgAWDI5OvgLSsmP2nyGodEpekRDPOle34bv7u68ekB2xVGOv7InCvQNvk5i+H8POzuysbnpD+/TlQ7670dXPYTsUgsw0m5lciOA1qhXpdA3IIqb2kjSrXm5QlFqlZK4brjaoXS11oqeC1DQcwHyth8Hh1Apl2Rn28CGPs/7/PzC0ueDDwTgVqJxmugyD82dPqeU91vK4qLm4sCw9A+N2gqPPdKlnzoZUKtVZbe0628QaDSu35jrQ7YuDtDfRraqBPQNY7PZlGqt4h/ud3a3/YF9uqS/VCr5z91sNSnpB14tta1Vy/6APpOfIR23I9l80VhMHP0QSb2it66/d0JWLaWTEqsrV/xfBwZHuqZirdfo94r11asGIqmX5hcWP2EgEIBbYOqbYQ+fOTPjOe7viShryRe9H3pwZMJWeBzywK1v1fXXa3QCIJlMSjKR8EsxY7HY61/6xTHu6F/3nmvSh3V9aHA914+nqw867bb/4qlv7tv6j+lf29eTEAD2rn9oTK5dNlsBW97Z8tcC6lWviCY9JHZ8+qRcu7LgV3WEif55cWn+Zdnd3pL3fOd3STKZtv1I2KeCuWrQY6YCAbg5EgAG3X333Qkv7v2BiBq29QzJVEZGJvj87Sa6N1Rn7/XXzehbmTfezOj/rFsKXqMP+67rha7PFOg2mWzeH+5Wq5aMxl2/dkWmZu/khjbCdEJXD+1dW77kV5KEzdbmunz+M8/Id7zvA/6WAESHnjWhPxuCHjjpKW820AAA9oSmQIMGi5l/KiL32LxBGJucZWpvD/Jv9F339S99s99qt17/0v+dwz9gxsDIuPGY7WZDdrfWjMfF0dI/v0enjks2pPN7GrWafPGzn5ZL89++vvgNkfm+ShsYFqpESAAAIcAMAIN9/yLyr/RFrLWXhunjkqA0DwCsT3dvt1vSvEXVThAatarkC33ixCj+izJ9U6sHA7qdjjTqNQkjPVVeD5UbGBrzLx8QfmurKwY2AajcXe989/9+4cKFcE20BHoMV8EGPHr69IhyvI/oqmtbzzA4OimpFKugACAM9MHIdDWWrgTaWF02GhNBUf7P9evzfMLZ1rG5viafe+4vZGNtxfajYA/SmYyJMKrd3h0yEQjAzZEACJ5qx+W3lShrU/f6Bob9AVAAgHCIxRNS6Df/Hqx7x0s7W8bjIriNPiPj06FNArSaDfnqFz8rF771ddrMQi5jJgEgruv0GwkE4KZIAATs3AP3/axS8ldtDpzqHzbfbwoAuLW+wRF/z7tpW2vL0mmZW0WIYOWK/TI+fSK083105cnixZflc88/LeXSju3HwU0kUmZaROOeIgEAWBbOnxZd4uGzp+8WUb9oK75eCTc8cYypzwAQQo4Ts5Kg1YNA169dNh4XwUlnczI+fUpisYSEVaW0K1/4zDOytPBK4NPmsX+JuJnvHVc6JAAAy0gABGRubi7vifd7SknSRny9G3508ri/Cx4AEE6Fvn5Jps2U3r61FaC8SytAN0mm0zI5e8pf9xtWOvn08jf/s3zlxeelUTc7BBO3vzQygwoAwDYSAAFJqvY/F1F32oo/PD4tSUPlXACAg1IyNDplpYd7c5VWgG6cLTE+c1IyuaKEmR4Q+NnnnpJry0u2HwWvihuqAFCuY+ViDMBfIgEQgHMPnHlElPpxm32luZDuCAYAvFkqnZF8X7+V29iN1SvG4yJYehbA2NSs/y4QZu1WS77+1RflK1/4DNUAIUC7KNA7SAAcsbm5uWGl3H9nayRvOp2V/qExG6EBAAc0MDxuZYhbtVKS0vaG8bgw8z01NDYV+oPdxvo1+eyzT8ry0gKzAQDAABIARyypOr8hoqyM3dfTpEcmGfoHAFGjP79tJW8311ak3WxYiY1gFfoG/XlAeuBkmLXbbfnm178sX33xBaoBbDH06ug5Hi+pgGUkAI7Q+Qfu+xFR8pid6EpGJmb8/j8AQDR3utsY4Kb3s69eXeL2tUtlcnmZPHZKEsmUhJ2uBnjh2afk8qV5vh8Nczuu7UcAYAgJgCPy6NzctKfUr9qKPzA8Kuls3lZ4AMAR0CXbNjQbNdnZXLUSG8GLJ1MyeewOyebDPRxQ67Rb8u1vfFU+/5mnZXeHTRWmtFtNI3Ecz60aCQTgpkgAHIHHHxenrTofUSIDNuJncwXpGxy1ERoAcMQDAYv9Q1Zi72yuSaPOu3m3Uo5eDzzrzwawNKZoX8q7O/KFz3zKbw3otNu2H6frtZqGNoI4atNMIAA3QwLgCDz36fv+vlJy1kbseCIpwxMzNkIDAAKgD2g22rl0yfXq1UVx3Y7x2DBHbwcYmZwRpaLwCuj5wwFfeO4pWV1hY0WQWoYqADrK3TYSCMBNReHTP9QemZs7Lp76RRux9bC/kfGZ0A/3AQDs76Z2cGTSSuxOqyXrHLS6Xi7fJxN6LkAiGivZG7WafO3Ln5cvfu45KZd2bT9OV6pVK0biuC4VAIBtJAAOR3VU57eUSMFGcF32n8pkbYQGAAQoVyha69eulndkd4d39G6XTKVlYvYO/3stKrY31+Tzz3/SbwtoNs3cWPcKvRLUBNdNsHcUsIwEwCGcf+C+n1BKHrYRO53JSf8Qff8A0K2GRqfEidmp8NpaXfYHA6K76QrCkQk9F8DOCsqDtqrotoDPPvuUXFm6yLaACCUAPM+rPPPMMzuBBwJwS9SOH9CDD94z5YjzH0VU2sYP7LGZE5T+A0AXcxxHYrG4VCt2Sp7r9YoU+gb8djN0N32poDcJ1aslcd1orINzOx3ZWLvmzwZIplKSi8CGg7CqVcuyMP+ygUjqG/MLi79pIBCAW6AC4IAcN/5vRFS/jdjD49MStzAgCgBgVr5vwForQKvRYB5AjyUBxo/dIal0tFoLq5Xy9fkAn/207O6yNvAgtrcMtfwoz0SWAcBtkAA4gHNnT/+YUvI9NmIXB4YjsccXAHA0hkYnrbUCVErbUtqmZbdX6MuF8ZmT/qaAqNne2pAXP/Mp+dpXvmCsn71bbK6vmgnkKRIAQAhQQ75Pc3Nz4zHl/SclkrExsGdk4hjlmADQQ3S7lxOLS81WK0C1LJlsXuIJKs96gX7H0L/fqXTO/733vGi0BLymUt6VK0sLUq9WJV8sRmbTgS265UMPVfRMtH4o+Z35hcUvBx8IwK1QAbBPCaf9q0pkwMYP5OFxvbeXwz8A9Brdi5/J5a3E1kPW1q4uSqfTsRIfdujvt4nZO/1kQNTo79mry4vy2U8/Jd/82pekXmeg5c1srK1Ip90yEssR74tGAgG4JSoA9uH82XsfVuL8ko3YAyPj/t5eAEBv0gexyu62lRtZfUvYatQkXzSe/4blQZT691xXoZjaE3/UiYDS7o5cWbzozwrI5QuSSKZsP1aofOvrXzaSIPE82e0fmfyHL730EmsbAMtIAOzRPffck0nFY38mSgZNx05lsjI8Nm06LAAgRPQhLJ5MSrVkZ4tWu3V977qeFo/eot9D0jm9JaAirtuJZCKgXLreGlCplCWby/ltlb1OD02cf/kbpsJ96k8/9sRHTAUDcHO0AOxRPh3/X0XJKRvZ9xEO/wAAEb8SLF+0soDGt72xKtXStrX4sCedzsrU7J2S7zN+D3KkiYDVq5fl888/LV958QXZ2liTXnbhG18zGe45k8EA3BwVAHvwyNn73iNKfcTGP6+hsSluWwAAr0tnC1Ip7Vi7idU7wzPZgsRYR9tz9BwivYkomcr4LQFRGxD41u/jleUlWbu27F+25PLFnpqztHL1siwtvGIy5P82v7B40WRAADdGAuD21IkTx/6jEnXcdGD9Q3ZgeNx0WABAiOlDSjKdkbKlnef6FlUfnnQlgnIoJOxFuo8+3zcg7WZDWq+2hkRVs9mQ9dUVvz2g0277ww/1OsRupnv+v/rFF/zZHmZ42wMjWz/10ktr0esfAboQCYDbOHf29N9Von7SdNxYLCZj0yf8rDQAAG8UTyT9g3ijVrUSX1cfNBo1yRX6e+rWFH/JvzUv9ksslpB6reJPeYsyt9OR7a0NWVqYl92dbYnF45LN5rru+7vTactXX3zB6FBHT+SP/vTPvvhHxgICuCUSALfw8MP3DIqr/kREZU3HHh6fllTaeFgAQESkM9f3tJta4fVW7VZLPLcjmVzBSnyEQyqdkXxhQFrN+uuDIqNOV7joWQFXL1+SdrslqXS6K7YH6Bv/r335c7K9uW40ruOqx1+5tPhNo0EB3BQJgFs4cez4rypR95uOm8kXKP0HANySvpnUqwHL/mpAO7evjXrNvyklYd3bnFjMXxeYSKWlXilb+34M4rZcVwVcXrwoqytXpNPu+FUB+ns+anTC7isvfsb44EPPk2qqUPtvv/3tq3YylQDehgTATTx0//3vV8r9TaWUY7qkbmxKl/7zWwMAuP3By+ZqQE1XIaQyGUkkon9DisNJJtOSL/RLq9nommqA17SaTf/wvHTpFT8poJMDqVRG4hFIBujn/fIXnvdXIRqn5A+e+Phnf998YAA3wynzxtSpEzO/r5T5wX/+1P9MznRYAECED136MNKs16w9Q6286w+ujcXCfxiCiWqAfn9OhZ5REeVNATdTr1VlY+2aXL70iv9rs9n0qwKSyVSoZgboAY2vfOvr8u1vfNWvALBBefIT8wuLV6wEB3BD4fmUCpHzc2d+VBzvd0zH1WuVxqaN5xwAABGnS66vLl6QZqNu7RniiYRMHLuDJABe53basrm2Ym1jhWl6TsDg0Ij/NTA0IumMndYY/Tmg2xYuL85bO/i/6oVPfPLZD9l8AABvRwLgLb7v3nsL1ZT6lhI1YTKuLvmfmr1TYonuXj0DAAhundnK4gWDq73eLp3OytjMyVDdgsK+eq0sGyvL0mo1pJekUmnpGxiUvv5BKfYPSl5XyQTUMqAP+utrK7J6bVk2Vq+Fo/LClR/+xDPP/t+2HwPAm5Gmf4tqUv286cO/1j8yzuEfAHBguvx4aHRa1lYWrT1DvV6V9ZUlGZmY4Y4Br0tn8jJ5/E7Z2VyVnc21rhkSeDuNRl1WV5b9L00nxvS8jFy+KIVcUdK5nKTTGUln9Fduz6ufm8261CoVqVbKUtrdke3tDamUdkP1z9UT7/JWuf7/2H4OAG/HT+c3ePDB0++OefJlXcVl+sZk/NhJfjsAAIe2ubosu9sbVp+h0D8kQ6OTVp8B4aSrALZWr0q1UrL9KKGjq0ETiYTfTvPWYdCu2/EHKzabrXDc7t+GEu/vfPyTz/1b288B4O2oAHiDmOf9MxFl9PCvs8GDY/olicM/AODwBkcn/IGA+jbeltL2hj8Erm9g2NozIJz0tojRqeNSq5b9ZJXeGIC/POQ3GvrL3iyPo+B58pX+kcl/b/s5ANwYWwBedf7smQdF5J+ajts3OOLvzgUA4GgoyeQKUt7dtnpTWK9WJJFMSjKVtvYMCK9EIimFvkH/IqThb7AIT/k6Dsfz5L/+04898Yrt5wBwY0Z33IfV44+L43nuL5uOq29H+odGTYcFAHS5WDwho5O6D98mT9ZXLku9Wrb8HAgrffjX70HTx++SXLHP9uPgSHh/9tQzzz5p+ykA3BwVAHpwkrrvbyul/p7puCPjM5LgZgQAEFCSWRzH+gG8Wt6VTC646eeIPicWk1y+z/8+abcatlfX4aA8b0c6zvfPLy5u234UADfX8wmAubm5vOO4f6xEFUzGzRb6pX9oxGRIAECP0ZPFm82mtJr2eor1ZPJaZVeyuaI4MZIAuLl4POG3RaYyOWk16tLptG0/EvZBiffjn/jUc5+y/RwAbq3nWwCSTvvnTK/9U44jQyPGNw0CAHrQ8NiUpNIZq8/Qbrfl6pWL/hRz4HYy2bxMHLtDBsemJEbSKBo8+d2PP/38R20/BoDb6+kKgHPn7p0UV/2eUippMu7A8Jg/oAkAABN91vpAVS7tWB0K6Lmu1GplyRX697zvHL39fasTV8WBIT8J0GzUI7H+rkctJ9vy4ZcXF6O9vgDoET2dADh5bPbXlFIfNBkzkUzJyIQezMTaPwCAuR7rVCYrlZLd1ly305GGnwToE6VIAmCPiYBMVgr9Q+I4MX/FpW4rQTh4Ii2v4zz4/3360xdtPwuAvenZBMAjZ+99hyj5LV2QbzLusB78l0yZDAkAgD8UMBaLSa1SsvocnXZbGvWqZPM6CUAyHHujv1f0TAt/daCjpNkgEWCd/sfven/jqU89+5TtRwGwdz2bADh5fPZfi1LvMRlTv+yw9g8AYEsqnZVOu+MfnmzSU951Sff1SgCSANjfHKV0Nv96RYAeFkhrgB2ekl9/8pnnjK/RBnA4PZkAODd373cpR/1zk3X4ut9xdHLWL8MEAMCWTC7vl1HbHsin4+vtBFQC4CB0C4lfEaATAbG4/72k50zADE/cP3/yk8/9TdvPAWD/evI0eurk7L/Xv5iM2Tc4Ktl80WRIAADeRh+29c+jarkkruU1a62m3vlOEgCHbQ3ISrF/WOKJuLRaTX/WBILk/emTn3z+w7afAsDB9FwC4PzZMw+KyM+b7rvUvf+83AAAQpMEyBX9oYC2y6d1EqDVavhJCX5O4nBbA3QiYFBSmZy4bkfaTdZOHjnP+5NPPP3c99t+DAAH13MJgFPHj31UlOgx/MYMjdrfwQwAwBvpljTdS13Z1ZsBvBBUAjT8mQDA4ShJJJKSL/T7X1qz0bD+Pd4NPPE++uTTz/11288B4HB6KgFw/sH7flBE/ZzJmMl0RoZGJ02GBABgT+LxhCSTSamUd20/yqtJgJZk8wVW5eJI6NkAmVzBrwrQ/7nTpj3g4Nxfe/KTz/89208B4PB6JgHw+OPiLF6a/QMlYnQM/8jEMb8FAACAMEqk0npSrdSrZduP4m8G0D3cuTyVADjizQGZnD8nQLe+6FoAXXHCGsG9cRz1Cx//i+f+Z9vPAeBo9EwCIBk7/UNK5CdNxswVitI3MGIyJAAA+6YPR67rSqNetf0o/lo3XQ3ATAAEIRZP+N9bhb5B/z93Oh3pWB6GGXK/9PG/ePYf234IAEenVxIA6tTszO+KUmMGQ8ro5HGJsfYPABCV9YB6IF9T90vbpZ+h2az5lQAkARBUVUAqk5VC/6Dk8v0Si8ek3WnTIvBmv/SJTz7LzT/QZXridHp+7vQPiaN+ymTM4sCw5IvXh88AABB+19cD1msV6bRbth/Gn+DebNT8wYAkARCkWDzuD8Qs9g/5vzqOI+12WzzX7oYMyzj8A12qFxIA6tSJmd8zefuvJyuPTs6KUo6pkAAAHJo+aOv2tVp51y+Ntq3dup4EoB0Apui5TXpwYN/AsGTyBYnF4v5Kwd6qDPB+/hOffI6yf6BLdX0C4NzZ+/6aUuqnTcbsHxqTTDZvMiQAAEdCJ68z+aJUSzv+XIAwJAEatapkCzoJQGIdZrdkZF6tDMgV+yWRTPmVMm6n1cUDBP3D/z+x/RQAgtPtCQB18sTs/6VEJk2WkY1MzHBTAQCILMeJ+TMBqqVd8bwQJAHaLalVy5LTlQAOSQCYpysBUums395ZHBiRbC4v8UTC///pCoEuSQj8Ejf/QPfr6lPqw3Onf8Bz5I9Nxhwam5RC35DJkAAABKJZr8nVy/Oh6YXWN7DjUyck9urBCwgDffjX2yvq9ao06hVp1Gp+5UrE0PMP9IiurgA4cWLmo0qpCVPxEomkDI1Nc/sPAOgKek2avvXU7QBhoPuwq5UdyeSKbNlBaOj3vtf+XdGbK/QgaP2VzRX9P6bfD5WK+YmCcFYK0PMP9JKuPamee+DMI0p5T5iMOTwxI/kCk/8BAN2lWt6VtauLoTm86HLssenjkkxlbD8KsGf63x/975H+9yk86PkHek0XN9J5/5PJaMlUWvKFPpMhAQAwQk/hHx6bDs29QafTlpWlealWSrYfBYjw4d/v+efwD/SYrqyfe+ihD33AEecXTcYcGp9+dTosAADdRye69ZrbWkgO3fpAVSntSDyZ9J8NCPfhfylkh3/K/oFe1ZUVAMp1/keT8XR/VzZXMBkSAADj9Dq0wRFjo3X2wJP1q0uyvXHN9oMAt7n5D8ccjVdx8w/0sK6rAHjoodN3KVf9ulLm6hSHx6ckkeD2HwDQ/VKZrL8mUK/lC4t6reIPCNSrC8PSpgCEt+yfaf9AL+u6CgDH9f4Hpcz9fSXTGclkuf0HAPQOPeG8f3BUwmR3e0NWry6JG5KVheht4S375/AP9LquqgCYm5sbjyn334qouKmYeu0fvf8AgF6Tzub9Q06jVpWwaDUbUq9W/KGFjtN1dxyIiPDe/NPzD6DLKgASTvtnRFTa5O0/vf8AgF41MDwufYMjEiaNelWWL12QZqNm+1HQg8J7+OfmH0CXVQB8+MN3Z9vNxH9QSowtBR4am+L2HwDQ0zLZvN9/36iH58Dtua6/ISCZykgimbT9OOgR4S375+YfQBdWADTK6R9TSgZNxUum05LNFU2FAwAgtAZHJ0NXCeC6Hbl25aI/GwAIGtP+AURFtyQAlCfqp0wG7B8cMxkOAIBQC2M7gLa5uiwbq8v+AQ3orZt/yv4BdGkLwLkHznyvUvLTpuLpsv+hUb0HmVVDAAC8sR1AKUfqIVoRqDXrNWnUKpLJFxgOiB7p+afsH8CNdclPQe8fmIx2/YaDwz8AADf6GamrAcKmXqv4wwHDNKsA0Rbewz83/wC6uALgwQdPv9sR+RVTJ/IYdIbLAAAgAElEQVRYPCEj49MkAAAAuIl0JifKCV8lgD8ccHdL4omEPyAQOCgO/wCiKvIVAI4n/8DkabxvcJjDPwAAt9E3MOIPBwzjwW195bJsra/YfhREFD3/AKIs0hUADz30gSHlxn9HKUmYiOc4MRkenxGlSAAAAHA7qXRWEomU1ColCZtGrSr1akXSOeYCoBtu/un5B7A3kf6J57jpv62UZE3FKw4M8ZIAAMA+5Ir9MjoxG8qfn3ouwMriBT8ZAET38M/NP4C9C99P471TIu7fNRZMOVLsHzIVDgCArqGn749OHfcr6cKm3W7JyuV52dlcs/0oCDEO/wC6RWQTAOfP3nteRN1pKl6h2C9OLG4qHAAAXTcYcHz6hMRC+LNUH+70TIDVq0v+oEDgjej5B9BNIpsA8ET9dybjFfr18D8AAHBQyXRGxmdOSDxuZHTPvlVL27K8+LI0WRWItx3+dyRch//n/ontpwAQTeGrxduDc+funVSe8xumnj+TK0hxgAQAAACHpSsAcoU+f0Vgp9OWsHE7HSnvbvlXDelsjs0/PSy8Zf8M/APQYxUAqqN+QsTM5P/Xhv8BAICjEYsnZHzmpN8WENaD3/bGqqxcXpB2O3xJCvTy4Z+yfwA9VgEwNzcXj4n3EVFSNBEvmUzJ4Ej49hgDABBleriu3hDQajWk1WxIGLVbTamWdiSZykg8kbT9OJBe7/nn5h9AD1YAJJz294mSKVPxKP0HACAYSikZnTgW6p+1r20J2Fxd9g+G6JWb/52wlf3T8w+gNxMASkSX/xuh1xXp2wkAABCcwZEJGRgelzDb3d6Qq4sXpNWo234U9NzNP2X/AHq0BeDhM2dmPOX9C6XrBg3o6x/2BwACAIBg6XkAiWRGapWSP4AvjPTQQj0gUFcupDNZBgR2kfD2/FP2D6CHKwC8uPsjSilDSQsl+X6G/wEAYEquUPTXBOpNAWE+KG6tr8jK5Yv+jABEHzf/AHpJlBIAyhP1I6aC6Zv/eCKce4oBAOhWqXRWJmbvkGQ6LWFWr1bkysLLsrO5FtqKBdwePf8Aek1kWgDOPXB6Tin5WVPxhkYnJJFMmQoHAADeOIOnMCDNZl3azTDfsntSr5b9ZEAqmw115QKiVPbPzT+A4ESnAkDJj5kKFY8n6P0HAMAix3FkdGJWChFox6vXKrK8cMEfFEg1QDRQ9g+gV0WiAmBubi4fV+5viygjS3iLQ6P+MCIAAGCPHraXzRUkFo9LrVKWcPP8AYa1alnS6az/zAj74X8nZId/yv4BBC8SFQBJ1f7rIipvJpqSQnHATCgAAHBbhb4hmZg5KfEIHKobtaosL16QzdVlcV3X9uPgLej5B9DrIpEAEKV+1FSoXLFIDx8AACGTymRl/Ngdkkrp9XvhP2TqdoDlSy9L1V9riDAIZc+/Jx+j7B+ASaFPAJw/c+aEiNxn8pYBAACEj57RMzZzQvKFfokCvSZw9cqCrK0sSrvdsv04PS2cPf/+jismTgMwKvQJAC/m/Q2/Lt+AeCJJ7z8AACEfDjg8MSMDI+P+jIAoqOzuyPLCt2V7a80/iMKscPb8X+d56uyDD94zZfs5APSO0CcARMl/ZSpUoW/QVCgAAHAIfQMjMjZ9IjLD9vQ8gO21FT8RUAnhQbRbhbTn/3VKiRPz4v+l7ecA0DtCnQB4+Ox971Mi32EmmopMSSEAABC/am/y2B2Rqt5rtZqytrwo164sSKvZsP04XS20Zf9v5ckP234EAL0j1AkAV0SX/xuRzeUllkiYCgcAAI5ATM8FmD4hfYMjEiV6ZaAeErh+7Yq0223bj9N1wn7z/yZKPvDQQ6fvsv0YAHpDmBMAurHPWElUjtV/AABEkp4FMDA8LqOTs+I4MYnSIbW8sylXLn5LttZXxGNtYPdO+78N1aEKAECPJwDOnz1zRok6biKWflnI5osmQgEAgIDon+UTs6ckmU5LlHieKzuba3L54rf9hACDAnug7P+tlPwt248AoDeENgHgiT/934h8sT8yk4QBAMDNJRIpmZi5Q4r90Vvr2+m0/JaAKwskArq+7P8tlMgdD589fbft5wDQ/UJZJzc3NxePK/e3RVTWRLzB0Sl/tzAAAIg+ndTP5AqSTGWkXq34N+xR4rodqVZKUilt+2sPk+mM7UcKvSiW/d9AaX5h8eO2HwJAdwtlBUBcOg+IqGETsRLJlKT4wQoAQFe2BEzORmtLwBu1W81XKwJelsruNhUB3Vb2/xaeeP/FqzOwAKC3EgCOEv0BaESO1X8AAHT1loDxmZPSPzQa2Xa/VrMuaytLfmtAaZvWgBsf/qNX9v9WevbVw2dP/xXbzwGgu4UuAfD44+J4yvt+U/FyxT5ToQAAgCX9Q2MyPn1S4smURJWuCNhYvSKXL35TdrfW/VaBXtZNh//XuJ65SzAAvSl0MwDSsXtPizg/bSJWKp2N3N5gAABwMPFEQvLFAX/dXqNek6jSz1+rlqW0vSGtVstPasRiceklXdLz/zZKeePzC0v/0vZzAOheoasAcD3HYPk/t/8AAPQSPVRvcHRSRidnI39odl3X3xawvPCyXFte8JMCvaBbev5vTN15fu5D32H7KQB0r7D95FPiyQ+aGn+Spf8fAICeHRCYymRlfeWK1CpRP0h6UiuX/C9dDVAoDki+byDyCY5eKft/G8f5IRH5mu3HANCdQlUB8PCDZz4gSo6ZiJXJFiQe774fjAAAYG/0AXlsalaGx2fEcULXFXkg7WZDttZX5PL8N2VVl8hXStI9euDw7/9dKuYAAOiNBIDneX/NVCzK/wEAgJYv9svUibskVyhKN92UV0s7snplQRYvvOSvE6zXKhLldofVK5e6/vCvKZHveOih03fZfg4A3SlkCQD5ARNx9BqgbBf9kAcAAIevBhiZmJWR8WPidFnpvN4WoGcFrCzNy+WFb8v2+jVpNqIzBLHZqMvK4oUuq2a4Nadj5p0YQO8JTb3b2bP3noop9QsmYmVyeSn0DZoIBQAAIiSZSvv98+12W1rNunQbt9PxKwFKO5tS3t32VwsqR0ksnvAvSMJ267+7tSbrK0vS6bSll3jipeYXlv6d7ecA0H1CkwC48/jsj4mSR0zE0qv/UumMiVAAACCCmwJ0q6AeEtioVf0b9G6k/770OkSdCChtr/t/r/qgrWIxqwMEPU9vN9iStZXwrfmLxeP+GkYDpk+cGv/1ixeXo1OqASASQlPj5on3vcrQ+H89+RcAAOB2A4Onjt8p2xursru17vfVdyt9265L7P0y+7WrfgJAJ0BS6aykM1lJpDJ+YiQ4ntRrVamWdqW8uxXKpEv/0Kgo5fhDFoOmlIqJm9QXY78beDAAPSUUCYBz5871Sbt+2kSsdDbXlWtxAADA0dMHvoHhcckV+mVTD9KrV6UX6EoAffv+2g28bg+IJ5KSSKUlmdRfKf+/xxOJA81M6HQ60m41pFGv+gf/RrUS6jJ/ffjvHxrzWyZMJAA05cmHSQAAOGqhOAk77eqjnnKSJmJl80z/BwAA+58NMH7spF+arg+A+gDbS3T1Q6vZ8L+qsvO2JEk8mZCYiokTi4mKOaIvsF///4vn3+h32q64blvarVYob/hvd/jXdNJDfy/owYRB85R6dG5uLv7MM8+ENzMCIHJCkQDwRH2vqVi5HOX/AADgIJTk+wb9y4TtjWv+IL1ubgvYT89+q9GQlnQfPTfqtcP/a7KFPiMJACUykFCd+0TkmcCDAegZ1tcAPvbYYzFR8j0mYuletlgiYSIUAADoUvqWe3B0UiZn7/TnBKA76cO/bv+wWU2qxG8DAIDuSQDsrK98UEQNm4iV5fYfAAAckUQyJWPTx2Vk/BgXDF1Gl/3f6PCv6fkHiYSRzlU9CMBYlSyA3mA9AeB63qOmYmVyZOkBAMDRyhX7ZObEO2RwZCLgSfmwVfb/VhljG6XUux6ZmztuKBiAHmD9p5RSct5EnHg84Q9tAQAAOHpKigPDMnXiHf4BUk/NR/eU/du8VHJV+yFjwQB0PasJgLm5uX4R77tMxDKXqQUAAL1KrxrWB8jJ2bskx+ahrjz8a+lMzli1h6eUkcsyAL3BagIgGWufFVFGNhFk85T/AwAAMxLJpIxMHpOJmVOSzuZtPw4O0fN/I7rCI22oCkB5cu7xx+1X7QLoDnY/TFwz5f96P206ww9fAABglt5AND59QiaO6URAzvbj4IA9/zeSNbUBQsnQZz51+v1mggHodlYTAKZKmjK5PL14AADAmlRaJwJOyvjMSb98HNEr+79xdamZ90tXPNoAAEQ7AaAnmiqRO0zEYvo/AAAIA33410mAsakTJAIiVvb/Vk4sLqlMRozwzFTNAuh+1hIAntN52FSsjKkSLQAAgD1WJ+pEgJ4RwEWFncP/Qcr+3ypjbL6DOn3+/HkyRgAinADwxMhKk3gyJfFEwkQoAACAfc8IGJs6LpOzd0i20G/7cXqAksGRiSM5/Ju8ZFJKkm6zdsZIMABdzVYCQDdMzZkIlGXyLgAACLlkKiOjEzMyc/Kd/u2048RsP1LX0fOgRsZnpDgwfGR/zWQ6Y2wdoKPMvDsD6G5GVvC91bn773+nKPdoUq+3weodAAAQFbF4wr+dLg6MSLW0Lbtb69JsNmw/VuTphMro1OyRz13w1wFm81It70rQPPHuDzwIgK5npwIg3jaSwXztQxkAACBK9K1yvm9QJo/fKaNTxyXjT5zHQasr/DWMAQ1dNPWuqZT6AHMAAESyAkC56n4TW1P0yh1TZVkAAABHT0k2V/C/Ou2WlHe3pbSzIe1Wy/aDRUKxf0gGRiYCXQet2003xYiE16rdIyJPmQkHoBtZSQB4Sk6b2JrK7T8AAOim9gC9t15/VSslKe9sSq1SEs/zbD9a6MRiCRmemDYypf+1gdMmkjJK+W0AJAAARCcBcPbsvaeUqBkTsdI5EgAAAKD7vFYV4Lodv/+8srsttWrF7xTvZfqmv9A3KP3DY0YHKaazBT8hYwCDAAEcivH6+IQoIx9cuvQ/lcqYCAUAAGCFPuTmiwMyNn1Cpk++Q/pHxv2e916UK/TJ1PG7ZHB00vgWhUxA8wXeyvPknrm5ubSRYAC6kvEKAFfU/SbK/1PpXKD9XgAAAGES1xsEBkb8r3ar6VcGVCu7UvcrA7qVkkyuIH1DI5JOZ609RTprJgGglEollfvdIvIpIwEBdB0LMwB071LwB/NUxt4PAQAAAJviiaS/715/dTodqZV3pVYtS71alk6nLV1R+dA3IMW+Qb8HPwzzGfQ/c514CZ6r5wCQAAAQ/gTA+fMfGpW2OtFNmVgAAIAwi8WuH5b1l9Zs1PyqAD1IsFGriue5EgX+eudMTrL5PskV+4yX+e/l3bO8YyIBIHoTAACEPwHgtuIfcpRn5AeEXgEIAACAN9MzAvSXrg7QGwRajbrU61Vp6K9a1dAt9j5mOmXykssXJVsohu7Q/0Y6OVHe2Qo+kKd0AkCX0/b2xEcA4U8AKPE+aCKOLv+n/x8AAODW9PtSMp3xv0SG/D+mWwSajbqfGGg169JsNvz/7rnBVwroMnp9iaPf5dKZrCSS6ci80+kEgBFKhs7df/8dT37qUy+bCQigm5ieAXBPV30AAwAAdJlYLC6ZbN7/eqN2uy1uuyWtdtPfed9pNaXdaYvX6UjH7fi/uq57wxkD+hDvxGLiOHG/JeH6f45JIpn0e/gTiaTEEyn/xj+qdPIilkhIp9UKPJZSrr5UIwEAILwJgMcfF+e5Z+RuE7HSmTf/wAIAAMDhxONx/X8kKb25ZnAvMumclFvbwQdSohMA/yH4QAC6jbE06/NPf+jdSknRSP9/hh9MAAAAMCtlrg2AQYAAwp0A8JzYh0zESaR0r1h0y8cAAAAQTQYvod734Q/fzcRrAPtm8qRsZgAg0/8BAABggd6uYGiOQaJRzrzfRCAA3cVYAkCJ990m4qT8KbYAAACAedc3KnTP5RqA7mIkAXDPPffoT8J3mYil18YAAAAANqRTZt5FPSV/xUggAF3FSAKgmE28V0QFvnHAXyeTSAUdBgAAALihpKHLKOV5tAAACGcCwJWOkQwl/f8AAACwyVQ1qifyDgYBAgjnDADPMZKhpPwfAAAANsVicYknkoHHUUrFGuXMewMPBKCrGBoC6L2vy1avAAAAAJaHUnvfaSgQgC4ReALgsccei4mn3mtq9QoAAABgk6l3Uk8p5gAACFcCYHv18ruUksBr82PxhF9yBQAAAPREBQCDAAGELQHgOTEjH0zc/gMAACAMEqm0kThKqffOzc1xAwYgTDMAzPQmpQx90AIAAAC3oqtSdXWqAZlYrHOXiUAAukPwCQBPfYeRCgBjw1YAAACAcFSnOp5n5F0bQHcIPgGgvHeb+ZClAgAAAADhYKo6VYkYedcG0B0CTQA8+uh3F5WoKQmYE4sZ2bcKAAAAhKk61RN5j5FAALpCoAmAViuuP5CUBCzFAEAAAAD0YAuA8qgAABCSBEDMVe+SLpq0CgAAAOxFPJEQxzEwb1upOx977N2UwgLYk0A/lVxDJUmJJAkAAAAAhIuhS6rE7vrAnSYCAYg+pxuGkiRSKRNhAAAAgNBdUrlK0QYAwH4CwNRQkmSCBAAAAADCJZk09I7qeQwCBGA3AfB9995bUKKmJWDxeMLfAgAAAACEibE2VY8KAACWEwD1lHOXiQ0AcVOZVQAAACCEFQCeiH7vBgCLLQCee4cYkGQAIAAAAEIoZmgTgFLeKRMXbwCiL7BPJFccMwkABgACAACgpzcBqPzc3NyYgUAAIi6wBIASPxMZOFoAAAAAEFYJQ++qCWkbuXwDEG2BJQA8UXd004cqAAAAENbLKmWo+hZAtAXXlKS8wD+EHCcmsVg86DAAAADAgSTjSSNxvOtzAADAfALg/PnzOSVqXAIWT5j5QAUAAAAOIp4wVQFAAgCApQSAalfvMDGJNJEkAQAAAIDwiht7XzXTfgsg2gJJAHQ8Mz1IVAAAAAAgzPQaQCMtq8q7M/ggAKIumAoAcY+LAQlDJVUAAABAuKsAVP/c3Fy/gUAAIiyYIYBKjklXlVQBAAAA4b60isU6Rt7BAURXMAkAT82IAQlaAAAAABByptpWHdfMOziA6AqoBUCmxUQ/VTwRdBgAAAAgGpdWyqMCAICFCgAJvgUgFuPwDwAAgPCLJ8y8tyrxAr+EAxBtR54AePTRR1OiZFS65IMUAAAAOIxY3EwFgGfgEg5AtB15AqDVKk9d7wIIVowEAAAAACIgFjewBvD6CzgzAAAYbgFom+k9itMCAAAAgAhQShlpX6UCAIDxBIByzEwfpQIAAAAAURFPGnh39dTU448HNuMLQBcI4APC0y0AgWMGAAAAAKLCRPWqUpJ8+um5wGdxAYiuo68AEDUuBsRZAQgAAICIMHV5lXLaY0YCAYikI08AeOIZ+dCJkQAAAABARJh6dzX1Lg4gmo6+BcALfgWgUo44TizoMAAAAECk5ld54pAAAGCyBUDGu2WVCgAAAHAUYjFD76+exwwAAAYrAFTwFQBxUx+gAAAAQJQSACJUAAAwkwCYm5uLe54alIA5VAAAAAAgQowlAJSiAgCAmQRA2nVHlAp+9ygtAAAAAIgSJxYTpVTgcRRDAAHcwpEe1l2nY2YDAC0AAAAAiBjHzDssCQAAN3W0t/VO8P3/fhgSAAAAAIgYI1WsHi0AAAwlADxRw2IAQwABAAAQNTEn+HdYTzwj7+MAouloKwCUVxQDGAIIAACAqIklgn+HVUql5ubm0oEHAhBJR5sAcJ3ANwBosVjMRBgAAADgyMQcY++w/aYCAejtCoC+I/3r3SyMuQ9PAAAA4EgoQ5dYKWmSAABwQ0e8sk8Z+bChAgAAAABR4xi6xOrE1YCRQAB6OwGgvODLjfT+VKWOOG8BAAAAdEkCwPHMXMoBkF7fAiCBZxsp/wcAAEAUOTEzl1geCQAARioADAwciRn64AQAAACiOARQecFfygGIpqMeAhh4AsBRrAAEAABA9JiqZPXYAgDASALAU0UJmgo8AgAAABDdCgAlwb+TA4iko50BoCQrAVMkAAAAABBBjqlNVp4X+Ds5gGg64hkAXkYC5nlBRwAAAACOXsftmAmkJPB3cgA9ngB49NFHUyLBN+i7rieu6wYdBgAAADhSrVbLTCBPUQEAINgEQK1WM5JpVI6SVrNhIhQAAABwZFqNhpF+Vk/RAgAg4ARAItEy9EGjpNVqmgkFAAAAHAHP8/x3WEcFv9JaCS0AAG7syD6BnJZrJAGglK4AaPofogAAAEAU6PdXn4kKAFoAAASdAGjH4mY+aJSeA+BKu22ohwoAAAA4pOarLaxGFloZ2MwFoNcrADpmeo3Uqx+br2dRAQAAgJB7fYaVgQoAJcwAABB0AiAW/ArAN35oMggQAAAAUdBut81usaIFAEDQCQDPk4QYrAC4/kFqaJcqAAAAcMjy/9fmWRlg5L0cQPQc3RhSpWJiWFOvUgEAAADCvv7PLOPv5QB6LAGgOoYSAOrG2VQAAAAgbHTF6puHVxupAIibCAIgepwof9DoQYBG+6kAAACAfWjYqFhVHhUAAIJNAHQstABobAMAAABAVMr/TcwA8MTOezmAXmoBUK6hD5o3f2jSBgAAAIAw0pWqby7/N9MBoGgBABB8C4CtCgASAAAAAAgf/Z7qed5b/qiBCgCPIYAAgq4AcM180Ly1akp/qLINAAAAAGHTtNeqSgUAgKDXAJoaNvL2rCltAAAAAAgXz1qlqlL+O76RdQMAejQB4Cl1lBsFbu4GH2VUAAAAACBMGvUblf+bO5U/9thjZt7NAfRoC4DnmdnH9/bPUdGhqQIAAABAWDSb9Rv+8RslBYLwh3/4hx0jgQD0aAJAvLZY1Gzc+EMWAAAAMEkf8m+6qtrEGkDP4/APIOAWAM8x9EFz46ypbgMwlVEFAAAAbiYE76VWL+YAhNfR9QbFxEgC4GafpX6mtWVt0ioAAABwy/J/zUxiQFEBACDoCgD7pUaNOm0AAAAAsMd13dsMqDaQAFBmLuYARE/XtABo1z9saQMAAACAHbetSDXzqkoLAIBgEwCxEFQA6E9UVgICAADAlka9ZvsR9HDuELyXA+juCoCYoQ+a22RNaQMAAACArfL/dqtl+zFEPGYAAAh8DaCZUiPvNhkAXXalP3wBAAAA02upQ7KVigQAgGATAK6rzIzgv82Hqv7QbTSoAgAAAEAYy/+NJAh4GQYQdAtAp3pUf61bxtnDn9MMQe8VAAAAeken05Z2+/YFsSYqVT0RXoYBBJsAiLtONQwVAJr+8NUfwgAAAIAJYZpDpUTMvJcD6N0EQNtRhjKNXuQ+hAEAANDd9jz938SMAOWRAAAQcAKgHTPTArDHD80wrGABAABA92s19z6E+nYDrY+C5ykSAACCTQBkMjVDLQB7+9P0h7D+MAYAAACCtK+LJwMVAIoZAACCTgDUahlDQwD3/qFJFQAAAACCpC+dms2GhIlHCwCAoBMAzzzzjJ6615LA7SMB4O9iDX7SKgAAAHpT03/f3Nv7qf7z9vrnHg4tAAACTgD4vOCzjd4+V6cwDBAAAABBqdfCV3FKCwAAMwkAURUJmbqh0QQAAADoLe12a3+rp43c/vuBQvdODqAbEwDK25GA7XXC6ms6nY60WgY6EwAAANBT9nvRtN/32INztg0FAtDLCQDPk62j/OvdOMb+PzgbdaoAAAAAcHR0L3+zsd/hf2YSAJ54JAAABJ8AUKKC/7A5QOlUo95gGCAAAACOjN42td+BfmYGAIooJSQAAJiYARD8h831z839fnh6DAMEAADAkTnIu+V+h1kflNsJvioXQDQdbQuAMlFupNen7P9/VWMYIAAAAI5Aq9X0BwDul7EKAHGpAABgogXAULnRAT48XX8YYDOQxwEAAEDvOPjqPzMJAIcEAAAzLQBmJo4etJ+flYAAAAA4DD3Jv9k4WGupqS0ADUmRAABgoAXA0MTRg3546kmtuhIAAAAAOOjwvwMz1AJQLpcDX80NIJqcKE4cPcxE//phPrQBAADQs3QP/8HL/w/3DruPKOUXX3xx/wMKAPSEI54B4K6LCYfInh5kZQsAAADQajbEdQ9eTXqY/+1eeSJrgQcBEFlHmgBoi3NNDDjcB+/B+7YAAADQu2rVw82T8lwjl1CrJoIAiKYjbgFoGEkAHLZ8ipWAAAAA2I92u32g1X+mWwCUp4y8jwOIpiNNADz11Oc3dXWUBOyw2dNOu81KQAAAAOxZvVY51P/eTP+/nwGgAgCAqTWAehFA8H1HR9E/Vase7kMc/z979wJm51UX+v+33r33XJJeoa2gpG0SOAr6IFiQtkk6TZqUokUB6UH5H9TjURT1HBTxHO9Yj+LByzkIDwfhIEVRBIKAUCDNTDLZzUwawFBAqC0290ILpZnL3rMv737f9/d/1jszvZGmmWTvtd7L9+Mzz0ymkrUyk+x512/9LgIAAFAKtoS02zm7ElJXIwBFhAwAAM4CAKJm8HVH/Yig9sIwzQQAAAAATqXTj/JRVxkAasgAAOAuAGBEBx517FcDlU6HXgAAAAA4FU2nSJ317+IqA0BpAgjAYQBAnDQe0b5kAdhULofpWAAAAMiZTrvdl+dFV8+ciegDThYCkEv9LwFwkAGQrtOHF1FV7U9KFwAAAAqpX8+K/ehhdTq0QgkAAKclAMZJ1DGJ4769qNtAAAAAAPBoYbcjcZ+eOV2VALgayw0gnwbQBFDvEweSPjVSIQsAAAAAJ9Nu9e8Z0UUGgKq0du36/EMDXwhAbvU/ABDo8X7/niddp48vora2CwAAAFgWdrsSRb2+/X5OMgCMHBv8IgDyrO8BgFpUcxIA6GcU1f5e/ejuCgAAgGJotxcy18D6NJYhAADAbQDg3EsuuV9E+hcudRRFbbX6+SIPAACAvIp6vfQta72rnpQRJxdxAPKr7ysKKBYAACAASURBVAGA7du3x6JigwAD1e86KvvCbFO9AAAAUG6tVrOvv5+T2/90IQIAABwHACw1g+8DMIg6qn6/2AMAACBfbN1/Lwz7+nu6ygAIHDyDA8i3gQQARNxEH/udBRBHkYQhWQAAAABl1R5AWWjiaARgnBh6AADwEABwlH40iGhqe4FeAAAAAGW9/R9ESWgSR+JElSaAAHwEAAI3Lz79HAX4mBd+sgAAAABKZ1AXQf3OWn0COjravs/FQgDyazABgCQ4LA7EA4qmkgUAAABQLtEAS0EHcWn1HWuIPnDrrQdaA18IQK4NJABQMfG94sAgGgFaZAEAAACUyyBq/5efV1V1IL/3YxcyTp6/AeTbQAIA5100e1hVBx7qTJLB1VORBQAAAFCm2v/OQH7vZPCPxIuMHnSzEIA8G0gAYPv2u0Ixg+8DsNgEcDARVbIAAAAAyqHdGlzmvKsRgEaEAAAAb2MAnaUhDXKsClkAAAAAxTbI239X9f+phBIAAB4DAEbUUR+AOLc/EAAAAOBXq9kc6O/vKgNAJSEAAMBfAEAdpSHF0WDnqrYWBvtDAQAAAH70emH6NkjJgKZWPd5wHFACAMBnACBwVAIw2KhqHMfSaTNRBQAAoGjaDi56BjW2+jFUHvrU1NTM4BcCkHeDCwAE+u/igIuoqm0M42R8CwAAAJywzZ57vV6uL6qWqTABAIDnAMBTn3riXhGNihBVtS/e3U574OsAAADADRdlnq7S/8WYf3OzEIC8G1gAwI4CVDWDj0aqig5wEsCydmuBLAAAAIAC6HY6A+8j5TIAYFTucrIQgNwb3BjARU5ejNxkASRpEAAAAAD5ZS90Wi03TZ5dTQAgAAAgKwGAr4oDruqrbADANgUEAABAPtnmzq4O5k4aAKZjsY2TZ24A+TfYAIBxE410Vl/FWEAAAIDccp3RqQ4uqVR14eote48OfCEAhTDQAEAgWrgAQNjtDLxjLAAAAAYz9s9VTyf7fOpkLWPuvvlmGXxDLACFMNAAQDep3qOqcZECAK5mxgIAAKB/bNp/x+FUJ1fp/0bdlNwCKIaBBgDq9XrHGDkkA2ajqy6DAL1emGYCAAAAIB8Wmg2n67l6NlVHTbcBFMOgmwC6mwTgYJTLoy2QBQAAAJALvTCUMOw6XdPVs2lABgCALAUAVM2XxYEkiZynkbXbLadrAgAA4AzG/nm4uHGVAWCk8hUnCwEohIEHAEygd0oBMwCWewG4GiMDAACAlet22hJFbhs4a5KI6uD78qnIzG31OhMAAGQnABDEVScBgCTu+YkotygFAAAAyCLXY/+Wxa6eSzW9aHMz1gBAIQw8AGCjkqpywk0jQPe38d2OHQsYOl8XAAAAp2YP/zYI4JqrzFRjjJOLNgDF4aIJoI1KfqmIfQCWtZpkAQAAAGSJPYR3PPVrcpWZqo6esQEUR+BoQKmjPgDuywAsW1dmMwEAAABQzrF/Pp5JK6JfcLIQgMJwEgAwiSl0AMBqLTS8pJgBAADgOxv/+SrRTJI4LU11oN1Jqve4WAhAcTgJAASOJgHYcSuOXnAz02QGAAAAj7DPggseyzNdXUip6r/W63U/9a8AcstJAOC8i777btsw38ULvib+xvLZOrNez18WAgAAQNm1FppORvB5z0ilASCArAYAtm/fHhtHTUp8lgFYrWbDWxYCAABAmdm+TL4a/7l+Fg1EqP8HkNEmgGmXUt1fhgDAYkPAttc9AAAAlFGzMe91fZfZqJERJ8/WAIrFWQAgEP1sGQIAy6lnNAQEAABwx97829F/Ptnxfy4yQVWk8dSnPv2rA18IQOE4CwAYrX3WXefVJAPNZ/yNngEAACiTJI7TCxjfXAUgjMgBW2LrZDEAheIsAHBbvX5EVL7hYq04A434wm5Hwm7X9zYAAAAKbyFt/Oe/B1MUuRk9qCp3OFkIQOE4CwCkjH6+SC++T2ahOU8pAAAAwAB1O/bSpeN7G2lifuJqBKAYJ5m1AIrHbQBApDR9ACx7+G+3/KejAQAAFJG99W8tNDJThuAqCyHSgAAAgOwHAIxxMwkgiaNMpIFZnXZber1sZCQAAAAUie25lJVsy8jR856KHq7X6w84WQxA4TgNAGhl9edE1El3lDgjZQDWQmM+MwEJAACAIuiFYaZGLzvMQOX2H0A+AgDj4+MLKuYrZSoDsOI4lnYGOtMCAAAUg0qzMS9ZEsdunj2NGhoAAshNDwD7gn172QIAVqfTligD0wkAAADybqHZTEc/Z0VafuqoFMEYrTtZCEAhOQ8AqAa3l60PgGX30mzM+d4GAABA7lP/O+2WZEnkrPu/zFx1zfS/OlkMQCE5DwDUojQDQF0cuBNHqVgrKQWwzWoAAABwJjQds5w1iaveUypTN98s2eh6CCCXnAcAdkxNPSiid7tYqxd2JWtsxJpSAAAAgDNL/bcXKlnj7tmO9H8AuesBYF+7TL2MfQCWNRpzmSpPAAAAyDo7Vjlrqf/Lz5uqbi7ltZI4KaUFUFxeAgBqxF0fgIzMhn20JI6lxVQAAACA0++lNJ/NXkruRk9rM4qG7nS0GICC8hIAqERmj6u1ImcvyitjI9g2kg0AAIBTsz2Ukgxe6liRu+e5qXq9HrlaDEAxeQkA3LZ37/0qcm+xorIrZyPZlAIAAAA8sbDbkW6nLVlkn+MclpyS/g8gpz0A7AxT1UkX68QZvmW3kWxGAwIAAJzqWSl7Xf999JvSRJw8OwMoNm8BADUy4eoHh625z6qw200j2wAAAHgse1GS5WzJqOdq4pTOXnjJd3/e0WIACsxfACAId6m6mWPq7sX5zNjIdhZH2gAAAPjSbi1IL8xuJqfTTFM1u7dv387DIoD8BgB27fr8Q8bIFwrWnOXMO9tSCgAAAJCKoyjzE5PstKkkcXMm1yAZd7IQgMLzFgCwVGXcVSNAV/NZz1TU66WRbgAAgDKzFyON+VnJOpcXTLGjZ2YAxec1ABA4jGZmuRngMhsAsIEAAACAsrI3/3kojXQVAFDRI5OT+w46WQxA4XkNAJz/1NlpEXWS35X1MoBHIt5zmZ1zCwAAMEjdbkc67Zbk4ZktiV1d2pjbHC0EoAS8BgC2b78rVDV7XTUCzHIX2WW2lmwhw+NuAAAABsHe+uflGSh2+Fypakj/B1CMAIBljJuaJvsi7XJW69kIw660cxD9BgAAKMvIPy/p/6pxZag36WQxAKXgPwCQxJ9xtVYe+gAsazUbEuUkYAEAAHA2FuxzT476ILkaMW2MuWPnzv0nnCwGoBS8BwB21u+4W0XudbFWFLl5se4X+gEAAICis5mPeaj7f+x0KVeZCvppRwsBKAnvAQDLqNzqYp0kjtO3vLB7tRFxAACAIkpyVPe/rBc6vFBKkk+6WwxAGWQiAJCofMrVWlGvI3kS5qQbLgAAwEo1GvnLdnRWUqpybLx+x1fcLAagLDIRAJhttusiOlu4qG0f5+H2ctS/AAAA4Mk0G/O5qvu3bENpO7HJkU+4WghAeWQiAHDgwIGeOBpxksRR+pYnts6safsB5Kh8AQAA4FQZjt1OW/LGVfM/1xmyAMojEwGAReqwDCB/WQA2Pc5GyvMyHgcAAOBk4ihKn2nyKHKUSaqqC5FU9jhZDECpZCYAUInMp+2sUxdr5bEMwLJlAO3Wgu9tAAAAnBHVRBrzs7m80LCBC2fp/0bG6/V6vhpXAciFzAQAdkxNPWjEfM7FWrYEQHPWcGaZDQDYtDkAAIC8ac7PS5zTkkanGaRJQPo/gGIHAFLGfMzVUr0wv4fohv3hGeWrjwEAACi3VrMhYU6zMF0GAGxGbFIJGf8HoAQBgEg+4mypnI0DfCyV+TR9Lp9ZDAAAoFxs9mI7x2ON0+7/jppIG2P27t792W86WQxA6WQqADC+d+9hFfmiszqunE0DeDQ7EWB+zsnkRAAAgDMWRVGavZhnLtP/1eg/OVsMQOlkKgBgGXH3opfXZoDL7OzchWbD9zYAAABOyjb7s03/bPZifqmz7v92sWpc/birxQCUT+YCAIHodldrRTnuA7Cs027lco4uAAAoweF/bjbNWswzl93/VfWOHfX6fU4WA1BKmQsA3Da57x4R/TcXa9kXc1vTlXd2lm5UgD8HAAAojtZCMx1hnHe90N1FixFD+j+AcgUALFV3L355ngbwaEWIsAMAgGKwDf9slmL+2fR/h0GM2N1ELADllMkAgNHEWQDAYU3XQCVJwmQAAADgXS8Mpb3QlCKIeqHLZ6t/sQ2xXS0GoJwyGQAYr+/7oorc62It+6IeR/lPT1uuUWvMz6U1dwAAAK7FcZw2/SvKs4jLflHqsBE2gPLKZAAgpfKPrpYKC9REz0bdbc0dAACA62zExtxMYQ7/9pLI4cQorSTVD7paDEB5ZTYAEGj8AbfpXcX4YWXZmrtOuzhBDQAAkH3N+dk0A6Aoel2nfaKmb6vXj7hcEEA5ZTYAsLN+x90ieqeb1dRph1cXFprzEnaL0d8AAABkmy1B7PWKNZHIaaNoh5mvAMotswGARcE/FjTK6+yHcVSwH8YAACBbFpoNCQv2HJXEUfrmhkZSiz/iaDEAJZfpAIBW4n9QlaR4L/SuaNqIJy7cnwsAAGRBccb9ebwYUrNzfPyOb7lbEECZZToAMDGx7xvG6N5Cpnq5HA84N5u+BwAA6JdutyOtZkOKx3FpKOn/ABzKdADAMmKcNQMsYhmAldiRPHOz6U8YAACAs2VLDJvzc1JEtvO/q+bQqtIKpfJxJ4sBQB4CAFKLPqIqoatxLy7nvboURT1pzM/73gYAAMi5OIpkfm5GiipyN/rP3nR9sl6vM78ZgDOZDwDs3Ln/hIh8ytV6RWti8/g/W7NBEAAAAJyZJIllfn62UOOTH//ns+OhHa74dw4XA4DsBwAsE+gtrtaKo7CAzQAf0e20pbVAoBkAAJxhX6E4lqLqdW3tv6vghj7QS2o7HS0GAPkJAIRx9TMqer+r9YraC2BZu7WQvgEAAJwOe+OfThaKintJkjb/c9v9/331er3IX1AAGZSLAED64qjy967WW+z8WszUtmU2C6DTcdjhFgAA5JZtJmwb/xWZrf23/aBcMRr/rbPFACBPAQCrYvRvXJ3KbZTbdoAtuoXGfDrCBwAA4Ik05uek57Qu3o8wTf93Q0Wnd9bvuNvZggCQtwDAbZP77hGRz7paL+y0pAyaJfmhDgAAVs42Dy5yg+Rltq9BHLnLcDAqzvpbAUAuAwCWirzX1Vq2EWCRmwE+Pq2PIAAAAHi0hWYjbR5cBovN/9xQ1YXKSG+7swUBIK8BgOpw+CFVcXY1H3Zb5WnsY2v7HEa+AQBAtg//nXY5noMkLf10GOgw5iM7dnyOucwAvMhVAMC+WBqRj7haz3aCddkMxncQYH6WIAAAAGWXNgouy+HfXviE7fQ5yBnS/wF4lKsAwJJ3FzUlzDcb7LBBgLjA830BAMATswf/so0K7jksc1CRuyf2TN3ubEEAyHsAYHzP1LSI3ulqvbDjOCqciSDACYIAAACUTKfdTlP/yyTqdSVJHD7zqP514WdNA8i03AUALBXz/5ytpUk6F7ZMkmQxCGA74gIAgLIc/stXlm4vehxqB0Px+10uCACFCAD0ksr7bcm6q/XCbrlS4ZaDAHNzMwQBAAAoQdp/GQ//dtpTHDmcgqT6wZ07959wtyAAFCQAUK/Xm2LkH12tZw/BUQnH5Nk/99wsQQAAAIrKjvkrW9q/r2lPJghs+j8AeJXLAIAViL7T5Xq9kowEfDxbFzdnewJEke+tAACAPh/+m43y3fwvl3j2ui5LPPXOnbv3fs7hggBQrADAzsnpL4nKHa7WsxkAcVzOQ3DaE2BuhsaAAAAUqOa/rId/K+y0nPbiM2K4/QeQCbkNAFiJSTupOlOmkYAnbwxIOQAAAHlX1pr/ZXa6k8vmf7ZvVTepfMDZggBQ1ABAbfjcD4noA67Wi8KO21ExGS0HiCgHAAAgl9qthdLW/D+2rNPh7b+RW9L+VQCQAbkOAOzYscMWb73LZcS4zFkAjx4RGPV6vrcCAABWoLXQTN/KLnT4LKcqSSTJ250tCABFDgCkqsn/FdGOq+VsAMA2jikzGwix0wF6JZyMAABAHtlbf3v7X3a9sC2aOHyOM/qJycl9B90tCAAFDwCMj9/xLRXzoaLWjWWXSmNuVkKnHXQBAMBK2WZ/tu4fy83/HFLzVrcLAkDBAwCWxsFfuVxvMQvAXe1YVtmvQWOeIAAAAFnVmJ9Lx/1hqZeT02bG+q8Te6bqDhcEgHIEAHbdfvudIlp3Ojs2dFZ1kHk2CMDNAgAA2QrS2xG+YZfnlWVh2vzPIZW/dLsgAJQkAJAy4jQLIOwskAXwuNpCGgsBAJCRhr1zM9IL6dWzLOqFEjucYqQq3wq16qxEFQBKFwC4etP0P4uKsyYrtoGMTSXDIxgtBABANg7/TOt5rLDtvAHiO+r1Og+KADKnMAGAm28W29L1bS7X7Hbopvt4thSg2ZjzvQ0AAEonjmOZm3nI6U13HkS9rsSxu4CIqrSqkbzT2YIAUMYAgDV8Tvs9Ivptl1kAdpwMHqvb6cj87AwlEgAAOBJFkczNnEgzAPBYoeM+RUbkvTumph50uigAlDEAcOutB+wr/DtcrtlNU8o46D5erxemKYi2YSIAABgcW+s/P3uCn7mZuP3XODIJo/8AZFahAgCWqcVvE9Gm0ywAOuyelK0/nJ05kaYkAgCAAWXdpQF3LiOycPsvxnxwcnKfs55UACBlDwDs3Ln/hIq81+WaYcf+cOEH78kkS/WINiMAAAD0j52+Q9+dJ+n87/D23z4MBqJ/7nJBAJCyBwCsIAr+QlWcnTiTJCYL4MlmEc8yixgAgH79XG3Oz6XTd/DEwo7j8cQqn9k5Of0lt4sCwMoUMgCwc+/e40b0Q857AZB+d0qN+bn0tgIAAJzdmL8uQfVTsqOanU9DMOYtbhcEgJUrZADA0qTyp6rpaEA362kiYZeJAE/G3lYsNBvUKgIAsEK2p449/NseOzi1blqe6Y6qfm58cu/tThcFgDNQ2ADAxO23/5sRudXlmmGHLIDT0Wm3pDE3y6giAABOkz30207/zm+1c6gXdiSJXd/+65+4XRAAzkxhAwBWEJibXXbns7faXRsEwJOyTQHn7IMMEwIAADilbqed/swkcH6az2Jtt+WGKvLFicl9n3S6KACcoUIHAG7bvfcLKvopl2v2uu10NCBWMCEgZEIAAABP3Ol/3vc2csPHc1iQiNMLJwA4G4UOAFgVE7zJdRZAWgqA0/56NeZnpdOmfwIAAI//+Uin/5U+gzmu/Rf5ylXXTn3C6aIAcBYqUnAHDx+7f/3aNS8UMf/B5VjA6tCIGFP4+Erf9MJu+oN7aGjY91YAAPDf7G+WZn8r1eu2JOq5zirU193yvuN3OV4UAM5YKU6oRozzLIBuq+FquUI1B7QPPNQ4AgDKKgy7i83+XDexyzl7+dJtu+78L1/dcM30x50uCgBnqfAZANbBI8fuX3f5pS8yRp7l8gdRpVqToFKKL3Ffv25htyO1oSEJAr52AICSjcptzDMq9wzYxn+uO/+rmF++5W+PcfsPIFdKkQFgGUkbtDi12IWWH+IrZTMAbCaA7XoMAEA56v3n0oZ/WDk7GrHX7Tq//d84tvdjThcFgD4ozRXroSPHvu46C0A1kaBSlUql6mrJwqVB2mDA0DB9AQAAxZ2IMz9n6/2ZiHOmOgtzoonbscLc/gPIq9JkAFhJIL+lKk4LzMO27d5LFsCZslkA9AUAABQ10D0781B6g40zE/W6EkdumyWqyIFde/Z+1OmiANAnpQoA7N499WUj8pGiN6Upml4vlLmZh9L3AAAUIeXfpvs35map9z/rpsvuyyYCo7/N7Q6AvCpVAMBKKvL7Iuo01B52W6LcYPelLwD1kQCAvP88swd/2/APZ6cXttOLFpdUZXLn7ulxp4sCQB+VLgCwa9fU10TkfU4XtRHqtCEgzpZ9YLK1kpQEAADyJur1yGjrY5+lxTJLx+tWkt91vigA9FHpAgCWVvRN9izpcs1e2HFeo1ZUvXCxJCDi6wkAyFEAe272BAHsPrGp/+7LJ/Sfd+3ad4fjRQGgr0ozBeDRDh063li3ds1TjJirXK6bJJHUhkddLllY9od+2O2k72tDQ763AwDASdkDf3N+TjqMtu2bJI6k47j23zaRDoz81MEjx7/pdGEA6LNSZgBYvaT6p6oy735OLQ8A/WIP/5QEAACy3sTWdvtHv6h0Wg3nPfiM6D/snJz+ktNFAWAASpkBYB09erS1fu2amojZ7DoIUBseEWOMy2ULP0O52+lIpVqVSqXqezsAgJJbDlAvNObp8t9nvW7H+WWKqnZNHLzy0LFjs04XBoABKG0GgNVox38hKsfK0LSm6OzX1XZVbjXtrQAAAH7EcSyNuRm6/A/qGarj5ev6tvG9ew/7WBgA+q3UAYD9+/e3RfQPXK8bdttp/Rr6r91uydzMiTQrAAAAl2w22mKXf5rUDoK9QHFf8qff7mn1zY4XBYCBKXUAwLp6bPr9KnLA9bqL9WsYBDsdYHbmIem0W763AgAoAZvm32zMpW+k/A+GvTixFyiuqZGb6/U6qf8ACqO0PQCW1euiay9b8zVjzM+6XFeTREwQSKVac7ls6cYFxnEktdoQPRcAAANr9Dc/OyMRt/4D1WrOpiUALqnKPTPznf9y//3302kYQGGUPgBgHT56/Mi6yy+9whj5XpfrxlFPhoZGOZwOuBYzbRBYqaRNAgEA6JfWQpNGfw6EnZZEYcf5uibQn5va99l/c74wAAxQ6UsAllVM8ps2kO90UV0eZYOBNwict6mZduojD2kAgD6Ump34No3+HGVMemr8t2d89/QnfSwMAINEBsCSg0eOP7Ru7aXfZUR+2OW6SRKnZQBBhW+FixGMYddmA9hxgXy9AQArY2/6bX+Z5jy1/q50FuacN/ZVlSQwctPBI8fud7owADhABsCj9JLKH6rKCdfrdlsNHiQclgTMz82k2QB8zQEAK7n1t7X+Nu0fbkS9rkS90MfS79s5OeW8QTQAuMA16KMcPXq0tf7yNQtizI+4XNceRO1btTbsctlSIxsAALDSW3/3I+jKXb7Xbs6l1/GOV541teRlhw7dR30HgEIiA+BxLrj4u/9aRb7oet1et5M2BYQ7ZAMAAE6FW39/uu2FtP7fOTVvGh+/41vuFwYANwgAPM727dtjo/Kr7rvFLTYE5CDqXrfTltmZh9KxgQAAWPbQPzdzIg0CwC2b9t/rtt0vrHrXiUb7ne4XBgB3yH0+iUNHjh1ft/bSZxmR57pcd3G+rZFqbcjlslhK8ex2O2mjodrQEKMZAaCker1QGvOzEna7vrdSUirtBZuZ5/723wT6qql9nzvofGEAcIgMgCfQSypvVBU7N84pO+qGUgB/bBBg9sRDaVYAAKA87IGz1WykKf+2Twz8pf4nsYevv8qHd+7eN+l+YQBwiwyAJ3D06NHm+ssvTcTINtdr2x98teGRNBsAfrIBwtB2Hu5JtVaTICBOBgBFZl/zG3Nz6e0//LEXILYc0jVVacUmftmRI/fNOV8cABzjZHMKF1x84q0qcrfrdeM4km675XpZPI59ELT1n+0WjYABoIiSJE7T/Rtzs+nH8DxtwcPhf8mbJyfvOOprcQBwiQDAKWzffldoxPyK+4aAthSglQYC4P+BxDaCsmUBNAkEgOKwo/3sazu1/tlgSyB9pP7bi57qyDl/4XxhAPCEEoAncejIscPrL790nRj5QddrJ1FPqkMjNKTLSG2o7Q9ggzK1Wk2MIXYGAHlky7vsCFj7mo5yp/6nQ//E/OTOid33+lgcAHzgFHMakkr3DSr6oOt17WHTRsSRHfamyN4Y2ZsjAEB+JEkizcaczM2ekDgm3T8rfKb+q8ot45N7d3tZHAA8IQPgNBw+/I32M9de+pCI+XHXa9tOxJVqTYIK36osseUAtmlUpVqVCt8bAMg028ulOT8nEd39M6fbakgceSixU3moGsnL7z12jIg+gFLh5HKaDh45/sV1l6/ZZIxZ63pt+4PRTgWgFCBbNEmk26EsAACy3My1MTdDnX9GRb1Quu2ml7UTo68bv336Di+LA4BHnFhOn2rFvE5EO14Omi0/PyBx+mUBtlmgTWUEAPiVxHFa5z8/O0O6f0bZZ5vOwryv1eu7Jqff72lxAPCKDIAVOHz42EPr1146JGLGXK9tO+NWKlUJKlXXS2MFjaVsRkAQGKlWa763AwClrPNvLzSl2Zzn4J9x7YU5P13/VbuBJjcePHrft50vDgAZQAbACoVJ9U9V5R4fa9smOfbhBtll50g3G/MyP3tCoqjnezsAUKo6/9kT35Z2u0U2Vsb1um2Je35G6xojf7KzfsfdXhYHgAwgALBC9Xq9I6o/q6qxl1F0LZsux4NN1vV6PZmbObGYfkrTKQAYGDvOzx78KcPKB9s3p+OrrFH1yyfmO//Lz+IAkA2UAJyBQ0eP37d+7WVPEZErfdww22ZzdjIAss9+vzqddvpQassCaOQIAP1r8Gc7+9uxrBz888F+n9rNufRCw8PqkTHmpVP7Pnufh8UBIDPIADhDw6vbv6Mi9/pY23bMjWPSy/PEPqDOPMQNFQCcLVvbbw/+NsOKUqt8sc8vPur+l7xl5+TUAV+LA0BWEAA4Q7feeqClif6Cr3z8TnOeg2TuaFqjagMB9j0A4PTZHji2x8rczENp2j/yN/LP1v77oCJ3h0n1j70sDgAZQwnAWTh89PiR9Zdf+jQx8gLXa9vDvx1zVBsacb00zpqmqavdTluCIEinO1AaAAAnZ9PFbdC0MT9LT5Ucj/xrN2e93JnYxyUj8vLd9b2HnS8OABlEBsDZqo2+UVQO+Vg66nWlF3ILUojbrI6fWxEAyCob6LZlU2RN5Z2mI//81P2LGJH/Pb5nGhi2aQAAIABJREFUatrL4gCQQWQAnKVDhw711l1+2T3GyP+3+HPGrTgKpVobFhMQy8nzQ24Y2mBOKEFlMSMAAMp+42/r/G22FPKt225J5O2yQv+90Ylfdd9995E6AgBLCAD0waEjxw6uW3vp0424LwWw7Czd2vAIaeQFyAgIu500EGC/lXZqAACU6TXQNky1mVH2dRDFqPvvthpe1k5T/03wE7dP7TvoZQMAkFFcG/eJqY7+hqh+zdeoua6vmbroO9vV2j4Az1IaAKAkB3+b6j974qH0vf01ilH331mY87mFN49P7r3d5wYAIIsIAPTJ+Pj4gqraMgAvM4lsL4Cw2/KxNAbENrtKAwEnvk0gAECBD/6LNf6+asQxmNK2xbp/X9OK9M4LLz7xPz0tDgCZRglAHx06evwb6y6/dMgYucbH+knUk0p1SIKAb2sRewTYsVeBMUwNAJBrdoLNYlf/+TRFHMXTbTfTRsU+qGpXksqP3PqZf7nfywYAIOM4KfbZmsvW7q2IvkSMfI+P9aPI9gMY5YBY5EBAp51+XK0RCACQr/Ime+NvM5vsxygm2/Cv2/Y6teGNE/WpT/jcAABkGaeHAdiyZeNzKir/IiKjPta3WQCrzj2fb2/BGRPIyOiojIyukoApEAAyynbytzf+NPYrR3ZHq3HCZ+r/rvHJ6W3p7EEAwEmRATAAhw8fe3Dd5WuaxpgbfKyvSZzeDNtAAIpMJer10q7Ztpa2UqkQCACQGbZsaaE5nx7+7cEQBWfr/puzHps46qxW5CWHDh332nkQALKOAMCAHDpy/HPrLr/0KmNkvY/146gnQaXKTPkSNQzsdNrpTZsNAvB9B+CDvfm1ZUrNxlz6no7+ZaHSWphLnz28Scx/npicnva3AQDIB04Jg6OmFr9GouBLIuZpPjbQbc1LpfIUCSrEecrCZgQ05mbTbABbGjA8Qj8IAINnb/htELLTtj1KOPSXTbfdkthjQ0cV+ZuJ+tQHvW0AAHKEk+EAHTp038K6yy//ijFixwN6OYXZLrw0BSznLZytt11uGGgDAobyAAB9ZrOOWs2GLDQbaQCS0uvyiWxz2nbD4w7031d19RX3HD9OkwkAOA0EAAbs0JFjB9evvfRcEbnaywZUJYkjqQ2NeFkeftnD/3KfgPTh3BipVkn8AXDmbFp/2O2k3fw7rZbE1PeXln2+aDX9ldzbkX+aVG7YMTV11NsmACBnCAA4cOFTL54cHa7ZrrTP8LF+ksRpIKBaoylgmdm/B2G3mzbmsn8fbJ8AMkMArGyM30J68LcjSZX6/nJTTQ//Pks+1Jg37Krv/WdvGwCAHOLp35Hrx658ZhJUv2BEbDaAFyOrzyMTAA+zh/+h4ZG0T0CtVvO9HQAZzSKyh/2Hs4iAJa3GrMSRx7p/lU9O7Jn6cepOAGBlyABw5ODR+06sW7vmoBFzk689RL1QKtUaTQHxmOkBtk8AWQEAHm25dMh287fp/nTzx6N1WrbnQ9ffBlS+3tPKS44ePdrytwkAyCdOgg4dOnL8q+vWXrrWiDzP1x5stL46NCzG0BAOj2sa2AvTB/44jtLPpY0DCQYA5brtX6rtb7cW0pR/4PHCTit980VVY1V52WR9713eNgEAOUY3MMd6SeWXhoLouSLm+T7WtzWb7eacrDr3Qg53OCnbJ8C+BUEgIyOjMjQykmYGAChu8K/b6aSHf+DJMgm77abXPRgjvz+xZ3qP100AQI5xDexYvV7vaFx5lajO+eza21mY97U8csKm/LZaCzJ74iGZPfHt9EaQNGCgGGymT2uhmf7bbszNcvjHaf2d6Sz46/i/SD919TXTb/G8CQDINa6APbnu2k0/Hhj9mM/vQW14REZWnedreeRUrTYkwyO2eaBtKMlLCJC7SSCdDun9WBEb/G03ZhanCvmiciypdH9o167PP+RvEwCQf/QA8OTwkWP3rF976YUicqXPTABbBmAbAwIrOkQsdQVP+wXYv0OUCACZPbjZA7+97V9oNqQXhmTyYIU07fjv8/Cvql1RvWHX5GcPetsEABQEAQCPLnzqxbtGh2ubReRSX3uIo156eAs4wOEMpwjY1OFOu00wAMhYMz9bttNqNtKAndebW+RauzmfPit4Feh/ndiz7xN+NwEAxUD+rmc3jI09IwqiLxgxF/vag80CGD3nfKlUh3xtAQVimwcODY/I0NCw1Ib4OwW4YG/1e+Fier9t6gf0Q7fVlLDrd9Kein5wYnL6p7xuAgAKhABABmzbfPX1qubTxhhvGRl2LKCdDBBUSApBf4NLNghggwE2KMDkCaD/Nf32zdb025t/oF/sqD/fHf9V5as9rVxZr9f9bgQACoTTXgYcOnL84LrLL+saI1v97UIl6nWlNsQhDf0Vx4/0DLA3k/aQYgNN/D0DVi6KovTfkq3nt3X9izX9pPejv3phR7qthtc9qMhMoNF1u+vTD3jdCAAUDE/g2WG2XbvhH8QYr2lutheAzQTgcIZBq1QqaVaAzRCoVmv8nQNOwgbMbODM3vJz2IcLtt7fNv1Lj+CeqEoiJnnpxOS+T3vbBAAUFN26skOHz+n8fGdh9NlG5Hk+JwPYOb+2JwDxIQw6M8A2KbNvtm+AHS+YlgtQKoCSS+J48dAfLh76Se2Hy2eAVtPv4X/J73D4B4DB4Ck7YzZvvuqyigSf99kU0KoODcvoahsEANyzGQFDNjNgaCgNDABFpppI2A0lsof+XpgGAAAfh/92c9b/mEiVj47vmXplFqIQAFBEBAAyaOvYho0mMLtFpOZzH7XhURlZda7PLQBpNoANCNSWggHVmtd/FsBZszf6tmmfvd23N/1Rz/OINZSeJoksNE6k773uQ+VLpja6YXx8fMHrRgCgwGgCmEGHjh4/tm7dmoYRc4Pv2wB7M1WtDfvcBpDWPduDUrfTTt/iKEpvqWxwwJYPAJk/8Pd66d/dVquZNvCz4/rs57zftqL07N/PVnMmC4f/E1qRrRMTe77ldSMAUHBkAGTY1s0bbjFiftb3PoZGV8vwyGrf2wBOmSFgMwOWswQAn7jhR17YIL9t+GcD/p71RMwN45N7bfYjAGCAaAKYYTPznddeeO7oZcbIZp/7CNsLYsTI0Mgqn9sATtkl3b7ZhoI2rlmrLQYE0rdqjSwBDJTNSEkP+lGU1vHbBpdAHl472825LBz+bbH/6yc4/AOAE2QAZNzY2NhFQybeL0bW+92JkdHV56XNAYG8CSqVxT4CDwcFbOyTlz+snE3Ztzf69oZ/+T1d+pHLw//CnMS9MAt7+T8Te6bf4HsfAFAWPAHnwPVjV31fElT2GZELfe9lZPV5Uhsa8b0N4KzZrAAbDKhUqmQK4KRsN/4otrf6PYmX3lOzjyLoLMxLL+z43oat+//MhRc//aXbt28nbQYAHCEAkBNbr904JiI7jRHPBc5GRs85j8aAKHSmgM0QqFQqUlkKCtg+Aygue6hPD/uRPejHaUq/PfBz2EfxqHRaDel1M3H4/6pURzZMTEzM+d4LAJQJT7U5su3aDf9FjHmP730sBgHOlyrN1lAC9vBvswTSgECaMVCRSmCDA7RQyWPasz3YLx/ylw/89vAPlMHi4b+dhX+ND2hFXjQxMX3M904AoGwIAOTMts0b3yoir8/CoWj0nAvSG1KgrNJgQKWaZg4sZgwsBgqMIWvA5yHfHujTQ36ydJufjo2MudFHqXVbDQkzcfiXtia6ZaI+vd/3RgCgjLjCypkLLnr6b8w8eP86Y+Sl/rsHzxIEQKmlh8yT3B7bw78JgjRTwJYQBMvBgaCy+PlKxct+i8Ae4u288vTm3h7qlw76y2n8HPKB7B7+bXxOxbxmV32Kwz8AeMIVVQ7deOMVq7oLo7tE5ErfexFjZBVBAGDF0t4CS0GCxfeLv7bBAhtACIz92GYSFL8xoQ0opjf3S4f7RB855Ns55UmcpId9xusBK9dtNyXstCQTVF4/vmfqbb63AQBlRgAgp6677oVPNfHwtDHyvdkoBzhfKlV6AgCDsNyIMA0QpB8HEtgSA/s5Gyyw0wuWggbp5+y/y8C+X/z/Wf49BnVwX/pFenC3A71Vlj6/fKi3/9m+t4f55JHPp//NHvYZowcMRLfVlLCbjcO/qv75xJ7p/+57HwBQdgQAcmzbpk1rpZrsEzFP870XGgMC+bDYn+A7PnnK/43apF3zBAd/AJmUlbR/S0U+tOGaqVfffLNQowMAnhEAyLnrN2+8QkX3iJhzfO/F3kSOrGZEIAAAPmWn27+l9crwuS/esWNH1/dOAAAEAAph25YNLxGVT4iYDDR1JBMAAABfOq156XU7kgWq8tXhSDZ9ampqxvdeAACLaEVdAIcOH793/WWXHRYjL89CUCcKu2nH86CSgXgEAAAl0VmYl16YjcO/qHxdqrrltj3T3/S9FQDAIwgAFMSho8e+vH7tmlDEXCcZEPdCMcHijHQAADBIdjTvvES9rGTZ67fjwFy3a9f0vb53AgB4LAIABXLoyPGpdWvXrDJiNkgG2AeRdP45QQAAAAZ4+J+TqBdKFqhIQxK9ftee6S/53gsA4DsRACiYQ0eO71q39tKnG5ErJCNBANscsFKt+d4KAACFYqdxtJuzEkc9yQJVCY1JXj6xZ99e33sBAJxc/wdDwzfdcM3U6+zIHcmIbruZvgEAgP5QTaTVmMnQ4V9jFfPq8cl9O33vBQDwxMgAKKB6XfTCp178zyNDtRcYI8+SDLAPKJokUh0aykKfQgAAcitJ4vTmP4ljyQgNjPzCxJ6pD/jeCADg1MgAKKgDBw70Rs5pv1JVMpOG1wvb0l6YT1MWAQDAytlDv735z9Dh3/qNnZPT7/W9CQDAk+MqtuB+dOPGC7s12W1EnicZUa0Nycjq89PeAAAA4PSz6WzDP5v+nx36++OT03/sexcAgNPDCawExsbGLqoF8aQR+QHJCDsZYOSc8yUIqEIBAODJ2C7/9vCf9tnPjr8cn5x6o+9NAABOHwGAkti27apLpBdMijHPkYywIwJHV58vAWMCAQB4Qr1uWzqthmSKylvH90z9uu9tAABWhgBAiWzZ8qLvqmh1UsQ8WzLCmEBGzzmfMYEAAJxE2FmQbntBMkX17eN7pv+b720AAFaOAEDJ3DA29ozYxHvEyHrJCNsLYGT1eVKtDfveCgAAmdFpzUuv25EsUZX3TuyZ+vms1SIAAE4PUwBKZke9fl9k4utE5ahkhJ0KYOsa7ZQAAADKzjb5azVmM3f4F9VbNoxN/QKHfwDILzIASmrz5qvXV8TsMWKeIRkyNLJKhkfP8b0NAAC80CSRVnNWkjiSLFHRv99wzfTP3HyzZGkEAQBghQgAlNiLx8Yuj4NotxGzVjJkcUzgeWl/AAAAyiKbY/7Sm/9/DLX60/V6PVtRCQDAinHCKrHb6vUjUpFrReWgZGzUUasxI0kS+94KAABORL2utJuzmTv8q8jfXD02/Z84/ANAMZABALl+06Y1Wk12iZhnSYaYIJBV51zAmEAAQKGFndZSp/9sldaryLs3XDP1OtL+AaA4CADg4RGBQVLbZYx8v2SInRAwvOpcqQ2N+N4KAACl6PSfUn3n+J7pX8lcVAIAcFYIACDzQQBreHS1DI2s9r0NAAD6wpa5dRbm07r/rFHRP5uYnP4fvvcBAOg/AgB4jB/duPHCsCY7ReQFkjHV2vBSc0D+2gIAct7sb2Eu7fifQW8Zn5z6Ld+bAAAMBicpfIfrr7/yKUmv8mkj5kWSMUGlIqO2L0BQ8b0VAABWrNdtS6fVzGJmvarKb0/smXqL740AAAaHAABOatu2bau11/6oMXK9ZI0xMrr6/HRcIAAAedFtN9OGf1mjqnFgzC/vnJx6t++9AAAGi2tUnNShQ4d6V7zwnA+3WyPPNmKeIxkThbZhkhIEAABknk317yzMSS/92ZUtqhIGoq/ZuWf673zvBQAweAQA8ITuuuvB+IoXXvnRzkJjjRjzfMlgDWWSRGkQgL4AAIDM1vs35ySOI8kaVWmZQF8xPrnv4773AgBwg1MTTofZdu3GPxMjb5QMsn0BRlafL5VK1fdWAADIQ72/3dOsJvLSifr0lO+dAADcIQMAp+XQkWPj6y6/tGOMbJUMdi2yJQHGVKRSJQgAAPBMVTqtRibr/S1V+ZZR3TpR3/c533sBALhFAACn7dCRY9PrL1/zgIq8xBgTSMZEva5oEkuFkgAAgCc21b/dmE1T/zNJ5aAkwXUTt0/d5XsrAAD3OCVhxbZt2fBSTcwHjZFVkkE2C8CWBDAqEADgkm3y12010sy0TFL5fBz0Xrp792e/6XsrAAA/CADgjGwd23ClCeSTIuYiySCbATC86jypDQ373goAoODsgd+O+LM1/9mln5LqqleNj48v+N4JAMAfAgA4Y9ddt3FdkOgOEfMsyaja0IgMrzqXkgAAwEAkNuV/YU6SOJasUtH3zcx3XnvgwIGM1iUAAFzhVISzct11L3yqiYc+YYy5WjLKTgkYtSUBTAkAAPQ55b+z0Mhol/+HvWV8cuq3fG8CAJANBABw1rZt27ZaotaHRMyPSkbZDIChkdUyNJLJtgUAgJyl/HcW5tPms1mlqrER+ZXxPdPv8r0XAEB20CUNZ+3QoUO9NZet+3BF9BIx8gLJqDgK01TNKlMCAABnKOqF0mnOSRxnOJtedc4Yfdn4nn0f9r0VAEC2cApCX229dsPrReQvjTGZDS6ZIEhLAirVmu+tAABywzb6a0nYyXYPPRU9nBhz4+7djPkDAHwnAgDou63XbnqxkeRDYsz5kmG14VEZWXUO/wwAAKdkG/wtNvqLJNNU7oiD3ssZ8wcAeCKcfDAQ28au+gENgk8aMZdLhlUqVRlZfR4NAgEAJ2VH+3Vazaw3+rPb+3CjE/3s/v37szyLEADgGQEADMzY2NhFQ0H8MRHZKBk3PGobBK72vQ0AQEYkSSLdViPTjf6W2MjEn41PTv129qMUAADfMlunjfw7evRo65KnffcHh2rBM43ID0iGxVEvbRJYSRsEBr63AwDwPd6vOZv9lH+RttHkNeN7pv/K90YAAPlABgBcMFuv3fjfRfRPstwc0GJcIACUl2oiHXvrH2b+1t82+7tPg+QVu3bd8XnfewEA5AcBADhz3djGG0wgHzAiF0rG2QkBI6vOpTcAAJSETfXvLMyLai6y6Kdi03slzf4AACtFAABOXT925TMTU/24MfL9knFkAwBA8WmSSKedj1t/S0XePTPf/tUDBw70fO8FAJA/BADg3I9dffW5raHgb42Rl0sO2CyAUSYFAEAha/27rWaa+p91qtoVDX51or73Pb73AgDIr0zXY6OY7jl+PHzNzxzbfvzoGiNirsl6IMo+GNoxUMbYYEAtzQwAAORXksRpun/YaeWjcb7KN0TlRybqU5/wvRUAQL5xkoFX149tfJkafZ8Yc77kgM0CsL0BbI8AAEC+2Pr+XreVHvxzUutvTQWR+Y+37d17v++NAADyjwAAvNu8+arLqlrZLkZeKDlRGxqR4VXnkg0AADlhx73aDv85GO23TFX07TPznTdS7w8A6BdOL8iEsbGxkVoQvcWI+W+SE8YEMjy6WmrDo763AgB4Avamv9tuSq/byUe6/+LJf94E8vPju6e2+94LAKBYCAAgU7Zu3vifjcg7RCQ3p+pKdUhGVp8rQUBLDQDIWpO/sN2UJMl+k79lKvLFIIlu2lnff6/vvQAAiocAADJn6zXXPNtU4n8SMc+W3DBSGx6R4dFzKAsAgAw0+eu2GhL1QskV1fcPn9P5pVtvPWC7EwIA0HecVJBJW7duPd9EnfeKkVdIjtgsABsEqA4N+94KAJQy3T9sL0gvbOepyZ9N+W8ZNb8yXt/7Pt97AQAUGwEAZNp1mzf8tFHzTmNkleRItTaUBgLs1AAAgJt0/26rmY5uzRXVu+LA/NTu3VNf9r0VAEDxEQBA5m3ZsvE5lUT/UYx5ruSMbRBIWQAADI7t6m+7+9su/7lDyj8AwDFOJciFG2+8YlW3OfJWMeYXJGfSaQGrzklHBwIA+sPe9Nsb/17YzU13/2WqcsIE+vPju6c/5nsvAIByIQCAXNm2ZcPLNTHvMUaeIjljywHs2MBqjf4AAHDmVMJOW7qdhfQknUP7JTKvHt+797DvjQAAyocAAHJn69YNl5rY/IOIbJQcoj8AAJwJTbv621t/2+U/b1Q1Nsb8xYn59u8fOHAgh/UKAIAiIACAXBobG6vWTPy7xujviZhcnqRtScCQDQQEge+tAECmpQf/djOt988llUOq+jMT9ekp31sBAJQbAQDk2vVbNv1wkujfGSPfKzlkmwPWhlfJ8Mgq+wvf2wGATInjSMJ2Mw0A5JWK/M2qbvLrn9i3r+F7LwAAcOJA7l155ZWj545W36Qqv2mM5PI63TYKHBpZlU4NYGIAgLKzKf5hpyW9blvySkUfDBLz2p31qY/73gsAAMs4aaAwrt+yYVui8l4j5hmSUyYIZHhkdRoIAICy0SSRsNtKD//5prdpRX9uYmLfN3zvBACARyMAgEIZGxu7oBZEbzdi/pPkGBMDAJRtpJ899Nvu/nkb6fdoqtIS0d+Z2DP9tlz/QQAAhUUAAIW0bWzjT0qgbxcxF0mOEQgAUGSqKr2lG3/7cZ6pyqRW5Od37Zo65HsvAAA8kcoT/hcgxw4dPfaVZz/jsvdEFbnQiFwhOb4Vi8KuRL2OBEGF0YEAikFVwm5b2gtzEue4wd8jt/7y+xvGpn7plluOnfC9HwAAToUMABTe9WMbb1Qjfy1GvkdyzgYA0maBQzYjgH++APIX1Ox1OxJ2FnJ/4/9Irb+8dmJi+pjvnQAAcDo4QaAUrr/+yqdoWHmrGPMaKYBKpSo12yxwaIh/xgBycvBvS7dtL8sLcfCfVTFvmJicusX3TgAAWAlODiiVbVs2vERV3mXErJECsGUBdmIA4wMBZFGS2DKmdiFq/B+m8umKVn5xR71+n++tAACwUpwYUDpbt249X+L2m0XNLxkjgRSAHR84NLyKQACATIjjKG3uZ3uYFOXgr6L3i8ivTUxOf9j3XgAAOFOcFFBaL96y6YcS1XeJyAukMIzUhkdkeGR1GhQAAJeSOEpv+3thRwpERfXvk0r467t2ff4h35sBAOBsEABAqY2NjVWHguTXVZM3GWNWS8ECATYrIKgw7APAIKlEvTA9+MdRTwpF9cuq8osT9en9vrcCAEA/EAAARGTLliu/p6KVvxIxPyGFYqRaq6WlAdWanRwAAP1hU/ujsCNhtyVJHEvBtEX0zy64aObN27ffle85hQAAPAoBAOBRto1tfKUY+Ssx8t1SMOnkABsIGBqhTwCAM6ZJkh76bVf/otT3P4bKpyU2vzq+d+9h31sBAKDfOAUAj/NjV199bmvY/J6o+TVjxM7ZKxRjAhkaGZXa0Ch9AgCcNpveHy419isklUOJmDfs2rP3n31vBQCAQSEAADyBrddc8ywTJG8VIz8iBVWpDaV9Aqq1wsU5APSDatrQL+y20wZ/BZWm+4dJ9X/V6/VCdS8EAODxCAAAT2Lblg0vlcTYQMA6KSjbKNBmBDBGEMAjY/zaaY1/IdP8l6jorZWk+l9vq9eP+N4LAAAu8KQPnIabbnrO0MyDF77OGPljEXOOFJhtFrjYNJCsAKBsol538eDfK3jfO9WvJWpev6s+tcP3VgAAcIkAALACmzdfdVlVK38mRm4q+r+foFKVobRp4HDaNwBAMdnU/rBjD/3Fvu23VGRGjP7RzFznHQcOHCjYzEIAAJ5coQ8wwKBcd91VLzRx5S+NkU1SAjYbwGYFVKpDlAgABaCapM38Cl7b/2g9Fbml2pPf2zE19aDvzQAA4AtP8sBZKEN/gEezmQA2I8BmBtgMAQD5YlP7bYp/HIWFv+1/lIlA9Ndum5z+qu+NAADgGwEAoH/9Af5QxFwgJVGpVNNgQLU2kjYRBJDhFP+0oV83vfkvCxU5ICq/MbFnqu57LwAAZAUBAKBPxsbGLqoF8R8akdeKSE1Kw0ilWpOaDQYMjVAiAGTk0N8Lu9IL26JJeQ79KZVjovK74/Wpf1iMAwAAgGU8qQN9tnnz1esrEtwsKj9ljJSue57NCqgNjdAvAHDMHvTDcHF0XxLHUjYq+qAYeXN16Nx37tixo+t7PwAAZBFP58CAbNmy8TmVRP5QjLyyjP/W7OE/SDMDRtImgkwSAAZz6O+FnXR8XxyVtam9NkXMO7Qy8qcTExNzvncDAECWle5QAri2dWzDlWLMm42RzVJSDwcDarZMgLGCwNmm99tmfuU+9NtJBhKKkfclpvcHu3d/9pu+9wMAQB4QAAAcuW5s4w3G6J8YY35ISswGA2zPgLSBYHVYTEAwADg1ldge+sPFQ39JxvadgkaicktFq3+0o16/z/duAADIEwIAgFtm25YNN4qaPxCRF/jeTFamCVRqQ2nPAFsqAMDebms6qm/5pr90jfxOrieqH0wq5o937Zr6mu/NAACQRwQAAD/Mdddu+jEjyR+UPSPg0WxpQHXIBgPseMEapQIoFdu4L4q6EvfCNLXfBgGQ6qnI32kgb961a+qQ780AAJBnBAAAz64b27g1MPJmMfJC33vJmqBSTbMCFrMD7GRFXrJQtFv+3lItf1jKzv2nc+OvSeV/Ttx++7/73gwAAEXA0zSQoUDAUo+AH/a9lyz3DlguFbDBASCvDfzsgZ9b/lMf/I3Gf7Szvv9e35sBAKBICAAAGXP9lg3bVOV/2CoB33vJsiCoLAUEFt8ICCB77A3/4oHfHvztoZ8D/6loU1X+XxAH/2fn3r3Hfe8GAIAiIgAAZNS2saufJ8a8QUVebYyp+N5P1gVBIEFlMRhAhgB8sIf7xYN+jxv+FdFvi8g7kiB8+65dn3/I924AACgyAgBAxm295ppnmSD+TRX5aWPMsO/95IUdL1hZCgikbzYgYHjJQ/8TeCpTAAAIvklEQVQkSSxJethfOvSn4/k48J8uFT0iRv5yZFXnvbfeeqDlez8AAJQBT8NATrx406anx9Xk14zKL4ox5/veTx4FlaWygaXAgP01L4NYScO+OO6lt/z24J8wmu+MqMqXAkn+vKu1D9XrdRs1AQAAjvDkC+TM2NjYOcNB/GoV/TUR82zf+8l7Y0FjewlUqmnJwHIvAft5lNejU/nTw779OL3dx5myX1JjZLcYfdv47ulbSZUAAMAPnnKBnHrTmySYvv3qG0XN640xW3zvp3BBgepiUCAIqmmAwJYUoHgHfU2SxUN+Yg/89qDfSz+HftGmqHmfJsHbGOUHAIB/BACAAnjx5qu/Nxbzy0bML4jIqO/9lCFbwJYPLAYI6M+Ym3r99DY/fvhGX5OYJn0DoqL3G5F3m1r8tp0795/wvR8AALCIAABQINu2XXWJRMFrVeS1Rswa3/spB7MYDAiWAwLBw4EBsgbcSg/3iT3YJw8f8G2dPgd9Z+yXeY9R+b8XXPL0j23fvj32vSEAAPBYBACAArrpppsqM9/++o+KBr9kEwSMEU6iHrMGbFDATnK0AYHlYEH6cRog4GX49NP1lw70Gi+l7ttfL32cpu1zyPdBRWZE9X0Vo++6bXLfPb73AwAAnhhPnkDBbdu0aa1U1GYF/Jwxconv/eCx0kCAqYgERgKzGCCwL83288b+eul9UbMJ7OFddfEA/8jHSzf2S5+3v7Zd5JA5+yUx72p0ex/av39/2/dmAADAkyMAAJTETTc9Z2j2W095hQTyi3aYAP/+c8imcqQBAfutW3yffpy+f/yvzcPfYvu/scfn5ekGxv7f4ycdpL987OfsIdyc7CZ++aZ96WNN7K8XP5d+bB753OKN/eJhPv3fph/b90ufR66oSENEPmCS5K/H6/u+6Hs/AABgZTgAACV0/aZNa5KKvlqM/qIRs9b3fgBkm4ocCETe3U0qH6jX603f+wEAAGeGAABQ8lGCU3s2bgmM/rSK+QljZJXvPQHICJVviJH3myR6z876/nt9bwcAAJw9AgAAUlu3bj0/iDuvSkR/2ojZ4Hs/ANxT1a4R8wkJ9P1hXP1MvV6PfO8JAAD0DwEAAN9h29hVPyBB8FMq8moj5nLf+wEwOKqSiOgeI/KBUKv/VK/XZ33vCQAADAYBAACndP3mjVcsZgXIfxQxT/O9HwB9onqXGNkeJNX33VavH/G9HQAAMHgEAACclptuuqky861vXCWBeY2o/KQxcp7vPQFYIZWjYuSDgSS33Da57x7f2wEAAG4RAACwYldeeeXoOaOVl4iYV4jKSwkGANmlIncb0Y8mceUju26//U7f+wEAAP4QAADQp8wAucmoeZUY+S7fewJKbym934j55M7JqQO+twMAALKBAACAvhkbG6sOV6LNiZqfMCovIxgAOKMq8gUR/YjElX+auP32f/e9IQAAkD0EAAAMxJveJMEdt298fqKyVYy+1Ii5mtccoK/aIjKtqrcGcfDRnXv3Hve9IQAAkG08jANwYtu2qy5JouCGQM2NauQGI3Ku7z0BuaPyTRHdKYH5ZBhXPlOv15u+twQAAPKDAAAA52688YpVYWN0ixr9ETVmmxF5pu89AVmkKqExeoeI3GZEPr1zcvpLvvcEAADyiwAAAO+2bdq01lR1WyK6TdRsMUae4ntPgN8GfmZc1Yyb2sie8fHxBd9bAgAAxUAAAEDmpgrMPfTAFUmi24zRbarmKmNkyPe+gMGm9csuUTMeV3rju3fv/7rvLQEAgGIiAAAg06644oraU88bfe5SM8GNouYaY+Q83/sCzpw+IGr2quh0YMzUzsmpL6RhAAAAgAEjAAAgf6MGg/gHE9WNRswGMbpNxFzge1/AE1HR+42aKWNkwohO3zY5/VXfewIAAOVEAABA7gMCI5XkuUmiV4rYN3mRGPMsXt/gcTTfARH5rCSyvyKV/Tvq9ft8bwoAAMDiARlA4dxwww+fF7VrzxWTZghsNCJXipiLfO8Lxb3dt+n8onKgOnru53fs2NH1vS8AAICTIQAAoAzM9WNXrtdK9fmayPON0eeLyPNEzNN8bwz5oKqxEblHjblTRL8oau4MhqI7d+7cf8L33gAAAE4XAQAApfXiTZuentSS52lini9Gn29EflBV1hljKr73Bn9UpCGid4mYLxrVO+374XPa/3rrrQdavvcGAABwNggAAMDjpg5cdN7If0iMeY4mss6Ifr8a8xxR/QFjzLDv/aF/VLVrRA6KmK+K0bvEmK8Gqnddec30v918syS+9wcAANBvBAAA4DTccMMNw0m38X2i+n2JBM80outVzDPF6DONmKf73h9OTlVCETlsjN6rIgdVzL1GzddiE909OXnHUd/7AwAAcIkAAACcpRtvvGJVqzX6zEBtMCBYr6LrReVSkfRtjTFynu89FpWqJEbkATFyTEXvE5XDZumgX9HKwfMuueT49u3bY9/7BAAAyAICAAAwYFu3bj3f9BbWqKleZiR5hhhZkwYIjM0c0O8SkYtV5WJ6D3yHtqh8S4zcryoPGnvAN3JcEnM8qCRHk17lvgue9tDXt2+/y97yAwAA4EkQAACADHjTmyTYu/dFF1fi4GI1le8KJHlaEpiLjcrFonKhiFygYi4wIheI0QtEFj8nYkYkB1Rl3ojMqMisMTorIrMqZtbo4uckSL4ZxMEDauRBTYJv9Yy5v16vN33vGwAAoEgIAABAjo2NjdkAwAXVaryqkui5SaI1leCCoKI1EXPO/9/OvaQgDMVQAE1aFYu4oO5/4nJq0YK/F0EcSFfg4JzRnSQLCJe0qqGP3LeqY0RuvmOHzNj97qmoYX1MyIo5Mlb1+bpU5eOTMpY+4lYt5pb5iKpz1+U9o67t1S21bbe+f07jeJo81QMAAAAAAAAAAAAAAAAAAAAAAAAAAAAAAAAAAAAAAAAAAAAAAAAAAAAAAAAAAAAAAAAAAAAAAAAAAAAAAAAAAAAAgPhLb0xktjQpmL8iAAAAAElFTkSuQmCC;" vertex="1" parent="wgLTDH14QdpL1y7HmuoE-26">
          <mxGeometry x="106.5" y="115" width="59" height="59" as="geometry" />
        </mxCell>
        <mxCell id="wgLTDH14QdpL1y7HmuoE-24" value="&lt;h3&gt;&lt;font style=&quot;color: rgb(255, 255, 255); font-size: 14px; line-height: 150%;&quot;&gt;1. Tap to reveal a square&lt;br&gt;2. Hold to place a flag&lt;br&gt;3. Avoid all mines!&lt;/font&gt;&lt;/h3&gt;" style="rounded=1;whiteSpace=wrap;html=1;fillColor=#0000CC;align=left;opacity=30;" vertex="1" parent="wgLTDH14QdpL1y7HmuoE-26">
          <mxGeometry x="48.5" y="198" width="173" height="116" as="geometry" />
        </mxCell>
        <mxCell id="wgLTDH14QdpL1y7HmuoE-40" value="&lt;h1&gt;&lt;font face=&quot;Tahoma&quot;&gt;START&lt;/font&gt;&lt;/h1&gt;" style="rounded=1;html=1;shadow=0;dashed=0;whiteSpace=wrap;fontSize=10;fillColor=#0000CC;align=center;strokeColor=#4D4D4D;fontColor=#ffffff;opacity=50;" vertex="1" parent="wgLTDH14QdpL1y7HmuoE-26">
          <mxGeometry x="70.62" y="368" width="128.75" height="36.88" as="geometry" />
        </mxCell>
        <mxCell id="wgLTDH14QdpL1y7HmuoE-28" value="" style="group" vertex="1" connectable="0" parent="1">
          <mxGeometry x="466" y="15" width="270" height="520" as="geometry" />
        </mxCell>
        <mxCell id="wgLTDH14QdpL1y7HmuoE-29" value="" style="verticalLabelPosition=bottom;verticalAlign=top;html=1;shadow=0;dashed=0;strokeWidth=1;shape=mxgraph.android.phone2;fillColor=#000000;strokeColor=#000000;fontColor=#333333;" vertex="1" parent="wgLTDH14QdpL1y7HmuoE-28">
          <mxGeometry width="270" height="520" as="geometry" />
        </mxCell>
        <mxCell id="wgLTDH14QdpL1y7HmuoE-30" value="" style="verticalLabelPosition=bottom;verticalAlign=top;html=1;shadow=0;dashed=0;strokeWidth=1;strokeColor=none;shape=rect;fillColor=#33b5e5;points=[[0,0,0,0,0],[0,0.25,0,0,0],[0,0.5,0,0,0],[0,0.75,0,0,0],[0,1,0,0,0],[0.25,0,0,0,0],[0.25,1,0,0,0],[0.5,0,0,0,0],[0.5,1,0,0,0],[0.75,0,0,0,0],[0.75,1,0,0,0],[1,0,0,0,0],[1,0.25,0,0,0],[1,0.5,0,0,0],[1,0.75,0,0,0],[1,1,0,0,0]];" vertex="1" parent="wgLTDH14QdpL1y7HmuoE-28">
          <mxGeometry x="12" y="47" width="248" height="426" as="geometry" />
        </mxCell>
        <mxCell id="wgLTDH14QdpL1y7HmuoE-31" value="&lt;h2&gt;&lt;font face=&quot;Tahoma&quot; style=&quot;font-size: 21px; color: rgb(255, 255, 255);&quot;&gt;Mine Sweeper&lt;/font&gt;&lt;/h2&gt;" style="rounded=1;whiteSpace=wrap;html=1;fillColor=#0000CC;strokeColor=#333333;opacity=60;" vertex="1" parent="wgLTDH14QdpL1y7HmuoE-28">
          <mxGeometry x="33.25" y="61" width="203.5" height="36" as="geometry" />
        </mxCell>
        <mxCell id="wgLTDH14QdpL1y7HmuoE-35" value="&lt;h2&gt;&lt;font style=&quot;color: rgb(255, 255, 255);&quot; face=&quot;Tahoma&quot;&gt;Settings&lt;/font&gt;&lt;/h2&gt;" style="text;html=1;align=center;verticalAlign=middle;resizable=0;points=[];autosize=1;strokeColor=none;fillColor=none;" vertex="1" parent="wgLTDH14QdpL1y7HmuoE-28">
          <mxGeometry x="88.5" y="103" width="93" height="64" as="geometry" />
        </mxCell>
        <mxCell id="wgLTDH14QdpL1y7HmuoE-36" value="" style="rounded=1;whiteSpace=wrap;html=1;fillColor=#0000CC;opacity=30;" vertex="1" parent="wgLTDH14QdpL1y7HmuoE-28">
          <mxGeometry x="17" y="150" width="238" height="88" as="geometry" />
        </mxCell>
        <mxCell id="wgLTDH14QdpL1y7HmuoE-41" value="&lt;h1&gt;&lt;font style=&quot;color: rgb(255, 255, 255);&quot; face=&quot;Tahoma&quot;&gt;PLAY&lt;/font&gt;&lt;/h1&gt;" style="rounded=1;html=1;shadow=0;dashed=0;whiteSpace=wrap;fontSize=10;fillColor=#0000CC;align=center;strokeColor=#4D4D4D;fontColor=#ffffff;opacity=50;" vertex="1" parent="wgLTDH14QdpL1y7HmuoE-28">
          <mxGeometry x="70.63" y="415" width="128.75" height="36.88" as="geometry" />
        </mxCell>
        <mxCell id="wgLTDH14QdpL1y7HmuoE-47" value="&lt;h3&gt;&lt;font style=&quot;color: rgb(255, 255, 255);&quot; face=&quot;Tahoma&quot;&gt;Board Size:&lt;/font&gt;&lt;/h3&gt;" style="text;html=1;align=center;verticalAlign=middle;resizable=0;points=[];autosize=1;strokeColor=none;fillColor=none;" vertex="1" parent="wgLTDH14QdpL1y7HmuoE-28">
          <mxGeometry x="17" y="147" width="98" height="57" as="geometry" />
        </mxCell>
        <mxCell id="wgLTDH14QdpL1y7HmuoE-48" value="&lt;h3&gt;&lt;font style=&quot;color: rgb(255, 255, 255);&quot; face=&quot;Tahoma&quot;&gt;Difficulty:&amp;nbsp;&lt;/font&gt;&lt;/h3&gt;" style="text;html=1;align=center;verticalAlign=middle;resizable=0;points=[];autosize=1;strokeColor=none;fillColor=none;" vertex="1" parent="wgLTDH14QdpL1y7HmuoE-28">
          <mxGeometry x="20" y="182" width="92" height="57" as="geometry" />
        </mxCell>
        <mxCell id="wgLTDH14QdpL1y7HmuoE-49" value="&lt;h3&gt;&lt;font style=&quot;color: rgb(255, 255, 255);&quot; face=&quot;Tahoma&quot;&gt;Colors&lt;/font&gt;&lt;/h3&gt;" style="text;html=1;align=center;verticalAlign=middle;resizable=0;points=[];autosize=1;strokeColor=none;fillColor=none;" vertex="1" parent="wgLTDH14QdpL1y7HmuoE-28">
          <mxGeometry x="104" y="222" width="62" height="57" as="geometry" />
        </mxCell>
        <mxCell id="wgLTDH14QdpL1y7HmuoE-50" value="&lt;h4&gt;&lt;font style=&quot;color: rgb(255, 255, 255);&quot; face=&quot;Tahoma&quot;&gt;Covered:&lt;/font&gt;&lt;/h4&gt;" style="text;html=1;align=center;verticalAlign=middle;resizable=0;points=[];autosize=1;strokeColor=none;fillColor=none;" vertex="1" parent="wgLTDH14QdpL1y7HmuoE-28">
          <mxGeometry x="12" y="244" width="72" height="59" as="geometry" />
        </mxCell>
        <mxCell id="wgLTDH14QdpL1y7HmuoE-51" value="&lt;h4&gt;&lt;font style=&quot;color: rgb(255, 255, 255);&quot; face=&quot;Tahoma&quot;&gt;Uncovered:&amp;nbsp;&lt;/font&gt;&lt;/h4&gt;" style="text;html=1;align=center;verticalAlign=middle;resizable=0;points=[];autosize=1;strokeColor=none;fillColor=none;" vertex="1" parent="wgLTDH14QdpL1y7HmuoE-28">
          <mxGeometry x="12" y="272" width="90" height="59" as="geometry" />
        </mxCell>
        <mxCell id="wgLTDH14QdpL1y7HmuoE-52" value="&lt;h4&gt;&lt;font style=&quot;color: rgb(255, 255, 255);&quot; face=&quot;Tahoma&quot;&gt;Flag:&lt;/font&gt;&lt;/h4&gt;" style="text;html=1;align=center;verticalAlign=middle;resizable=0;points=[];autosize=1;strokeColor=none;fillColor=none;" vertex="1" parent="wgLTDH14QdpL1y7HmuoE-28">
          <mxGeometry x="13" y="305" width="48" height="59" as="geometry" />
        </mxCell>
        <mxCell id="wgLTDH14QdpL1y7HmuoE-53" value="&lt;h4&gt;&lt;font style=&quot;color: rgb(255, 255, 255);&quot; face=&quot;Tahoma&quot;&gt;Mine:&lt;/font&gt;&lt;/h4&gt;" style="text;html=1;align=center;verticalAlign=middle;resizable=0;points=[];autosize=1;strokeColor=none;fillColor=none;" vertex="1" parent="wgLTDH14QdpL1y7HmuoE-28">
          <mxGeometry x="13" y="333.5" width="52" height="59" as="geometry" />
        </mxCell>
        <mxCell id="wgLTDH14QdpL1y7HmuoE-67" value="" style="group" vertex="1" connectable="0" parent="wgLTDH14QdpL1y7HmuoE-28">
          <mxGeometry x="122" y="265" width="121.68" height="18" as="geometry" />
        </mxCell>
        <mxCell id="wgLTDH14QdpL1y7HmuoE-68" value="" style="verticalLabelPosition=bottom;verticalAlign=top;html=1;shadow=0;dashed=0;strokeWidth=1;strokeColor=default;shape=rect;fillColor=#aa66cc;" vertex="1" parent="wgLTDH14QdpL1y7HmuoE-67">
          <mxGeometry x="77.76" width="18.000000000000004" height="18" as="geometry" />
        </mxCell>
        <mxCell id="wgLTDH14QdpL1y7HmuoE-69" value="" style="verticalLabelPosition=bottom;verticalAlign=top;html=1;shadow=0;dashed=0;strokeWidth=1;strokeColor=default;shape=rect;fillColor=#99cc00;" vertex="1" parent="wgLTDH14QdpL1y7HmuoE-67">
          <mxGeometry x="51.84" width="18.000000000000004" height="18" as="geometry" />
        </mxCell>
        <mxCell id="wgLTDH14QdpL1y7HmuoE-70" value="" style="verticalLabelPosition=bottom;verticalAlign=top;html=1;shadow=0;dashed=0;strokeWidth=1;strokeColor=default;shape=rect;fillColor=#ff4444;" vertex="1" parent="wgLTDH14QdpL1y7HmuoE-67">
          <mxGeometry width="18.000000000000004" height="18" as="geometry" />
        </mxCell>
        <mxCell id="wgLTDH14QdpL1y7HmuoE-71" value="" style="verticalLabelPosition=bottom;verticalAlign=top;html=1;shadow=0;dashed=0;strokeWidth=1;strokeColor=default;shape=rect;fillColor=#ff8800;" vertex="1" parent="wgLTDH14QdpL1y7HmuoE-67">
          <mxGeometry x="25.92" width="18.000000000000004" height="18" as="geometry" />
        </mxCell>
        <mxCell id="wgLTDH14QdpL1y7HmuoE-72" value="" style="verticalLabelPosition=bottom;verticalAlign=top;html=1;shadow=0;dashed=0;strokeWidth=1;strokeColor=default;shape=rect;fillColor=#0099cc;" vertex="1" parent="wgLTDH14QdpL1y7HmuoE-67">
          <mxGeometry x="103.68" width="18.000000000000004" height="18" as="geometry" />
        </mxCell>
        <mxCell id="wgLTDH14QdpL1y7HmuoE-74" value="" style="group" vertex="1" connectable="0" parent="wgLTDH14QdpL1y7HmuoE-28">
          <mxGeometry x="122" y="292.5" width="121.68" height="18" as="geometry" />
        </mxCell>
        <mxCell id="wgLTDH14QdpL1y7HmuoE-75" value="" style="verticalLabelPosition=bottom;verticalAlign=top;html=1;shadow=0;dashed=0;strokeWidth=1;strokeColor=default;shape=rect;fillColor=#aa66cc;" vertex="1" parent="wgLTDH14QdpL1y7HmuoE-74">
          <mxGeometry x="77.76" width="18.000000000000004" height="18" as="geometry" />
        </mxCell>
        <mxCell id="wgLTDH14QdpL1y7HmuoE-76" value="" style="verticalLabelPosition=bottom;verticalAlign=top;html=1;shadow=0;dashed=0;strokeWidth=1;strokeColor=default;shape=rect;fillColor=#99cc00;" vertex="1" parent="wgLTDH14QdpL1y7HmuoE-74">
          <mxGeometry x="51.84" width="18.000000000000004" height="18" as="geometry" />
        </mxCell>
        <mxCell id="wgLTDH14QdpL1y7HmuoE-77" value="" style="verticalLabelPosition=bottom;verticalAlign=top;html=1;shadow=0;dashed=0;strokeWidth=1;strokeColor=default;shape=rect;fillColor=#ff4444;" vertex="1" parent="wgLTDH14QdpL1y7HmuoE-74">
          <mxGeometry width="18.000000000000004" height="18" as="geometry" />
        </mxCell>
        <mxCell id="wgLTDH14QdpL1y7HmuoE-78" value="" style="verticalLabelPosition=bottom;verticalAlign=top;html=1;shadow=0;dashed=0;strokeWidth=1;strokeColor=default;shape=rect;fillColor=#ff8800;" vertex="1" parent="wgLTDH14QdpL1y7HmuoE-74">
          <mxGeometry x="25.92" width="18.000000000000004" height="18" as="geometry" />
        </mxCell>
        <mxCell id="wgLTDH14QdpL1y7HmuoE-79" value="" style="verticalLabelPosition=bottom;verticalAlign=top;html=1;shadow=0;dashed=0;strokeWidth=1;strokeColor=default;shape=rect;fillColor=#0099cc;" vertex="1" parent="wgLTDH14QdpL1y7HmuoE-74">
          <mxGeometry x="103.68" width="18.000000000000004" height="18" as="geometry" />
        </mxCell>
        <mxCell id="wgLTDH14QdpL1y7HmuoE-87" value="" style="group" vertex="1" connectable="0" parent="wgLTDH14QdpL1y7HmuoE-28">
          <mxGeometry x="122" y="323" width="121.68" height="18" as="geometry" />
        </mxCell>
        <mxCell id="wgLTDH14QdpL1y7HmuoE-88" value="" style="verticalLabelPosition=bottom;verticalAlign=top;html=1;shadow=0;dashed=0;strokeWidth=1;strokeColor=default;shape=rect;fillColor=#aa66cc;" vertex="1" parent="wgLTDH14QdpL1y7HmuoE-87">
          <mxGeometry x="77.76" width="18.000000000000004" height="18" as="geometry" />
        </mxCell>
        <mxCell id="wgLTDH14QdpL1y7HmuoE-89" value="" style="verticalLabelPosition=bottom;verticalAlign=top;html=1;shadow=0;dashed=0;strokeWidth=1;strokeColor=default;shape=rect;fillColor=#99cc00;" vertex="1" parent="wgLTDH14QdpL1y7HmuoE-87">
          <mxGeometry x="51.84" width="18.000000000000004" height="18" as="geometry" />
        </mxCell>
        <mxCell id="wgLTDH14QdpL1y7HmuoE-90" value="" style="verticalLabelPosition=bottom;verticalAlign=top;html=1;shadow=0;dashed=0;strokeWidth=1;strokeColor=default;shape=rect;fillColor=#ff4444;" vertex="1" parent="wgLTDH14QdpL1y7HmuoE-87">
          <mxGeometry width="18.000000000000004" height="18" as="geometry" />
        </mxCell>
        <mxCell id="wgLTDH14QdpL1y7HmuoE-91" value="" style="verticalLabelPosition=bottom;verticalAlign=top;html=1;shadow=0;dashed=0;strokeWidth=1;strokeColor=default;shape=rect;fillColor=#ff8800;" vertex="1" parent="wgLTDH14QdpL1y7HmuoE-87">
          <mxGeometry x="25.92" width="18.000000000000004" height="18" as="geometry" />
        </mxCell>
        <mxCell id="wgLTDH14QdpL1y7HmuoE-92" value="" style="verticalLabelPosition=bottom;verticalAlign=top;html=1;shadow=0;dashed=0;strokeWidth=1;strokeColor=default;shape=rect;fillColor=#0099cc;" vertex="1" parent="wgLTDH14QdpL1y7HmuoE-87">
          <mxGeometry x="103.68" width="18.000000000000004" height="18" as="geometry" />
        </mxCell>
        <mxCell id="wgLTDH14QdpL1y7HmuoE-93" value="" style="group" vertex="1" connectable="0" parent="wgLTDH14QdpL1y7HmuoE-28">
          <mxGeometry x="122" y="354" width="121.68" height="18" as="geometry" />
        </mxCell>
        <mxCell id="wgLTDH14QdpL1y7HmuoE-94" value="" style="verticalLabelPosition=bottom;verticalAlign=top;html=1;shadow=0;dashed=0;strokeWidth=1;strokeColor=default;shape=rect;fillColor=#aa66cc;" vertex="1" parent="wgLTDH14QdpL1y7HmuoE-93">
          <mxGeometry x="77.76" width="18.000000000000004" height="18" as="geometry" />
        </mxCell>
        <mxCell id="wgLTDH14QdpL1y7HmuoE-95" value="" style="verticalLabelPosition=bottom;verticalAlign=top;html=1;shadow=0;dashed=0;strokeWidth=1;strokeColor=default;shape=rect;fillColor=#99cc00;" vertex="1" parent="wgLTDH14QdpL1y7HmuoE-93">
          <mxGeometry x="51.84" width="18.000000000000004" height="18" as="geometry" />
        </mxCell>
        <mxCell id="wgLTDH14QdpL1y7HmuoE-96" value="" style="verticalLabelPosition=bottom;verticalAlign=top;html=1;shadow=0;dashed=0;strokeWidth=1;strokeColor=default;shape=rect;fillColor=#ff4444;" vertex="1" parent="wgLTDH14QdpL1y7HmuoE-93">
          <mxGeometry width="18.000000000000004" height="18" as="geometry" />
        </mxCell>
        <mxCell id="wgLTDH14QdpL1y7HmuoE-97" value="" style="verticalLabelPosition=bottom;verticalAlign=top;html=1;shadow=0;dashed=0;strokeWidth=1;strokeColor=default;shape=rect;fillColor=#ff8800;" vertex="1" parent="wgLTDH14QdpL1y7HmuoE-93">
          <mxGeometry x="25.92" width="18.000000000000004" height="18" as="geometry" />
        </mxCell>
        <mxCell id="wgLTDH14QdpL1y7HmuoE-98" value="" style="verticalLabelPosition=bottom;verticalAlign=top;html=1;shadow=0;dashed=0;strokeWidth=1;strokeColor=default;shape=rect;fillColor=#0099cc;" vertex="1" parent="wgLTDH14QdpL1y7HmuoE-93">
          <mxGeometry x="103.68" width="18.000000000000004" height="18" as="geometry" />
        </mxCell>
        <mxCell id="wgLTDH14QdpL1y7HmuoE-103" value="dropdown" style="rounded=0;whiteSpace=wrap;html=1;" vertex="1" parent="wgLTDH14QdpL1y7HmuoE-28">
          <mxGeometry x="130" y="201.5" width="100" height="18" as="geometry" />
        </mxCell>
        <mxCell id="wgLTDH14QdpL1y7HmuoE-102" value="dropdown" style="rounded=0;whiteSpace=wrap;html=1;" vertex="1" parent="wgLTDH14QdpL1y7HmuoE-28">
          <mxGeometry x="130" y="166.5" width="100" height="18" as="geometry" />
        </mxCell>
        <mxCell id="wgLTDH14QdpL1y7HmuoE-107" value="" style="group;" vertex="1" connectable="0" parent="1">
          <mxGeometry x="58" y="550" width="270" height="520" as="geometry" />
        </mxCell>
        <mxCell id="wgLTDH14QdpL1y7HmuoE-108" value="" style="verticalLabelPosition=bottom;verticalAlign=top;html=1;shadow=0;dashed=0;strokeWidth=1;shape=mxgraph.android.phone2;fillColor=#000000;strokeColor=#000000;fontColor=#333333;" vertex="1" parent="wgLTDH14QdpL1y7HmuoE-107">
          <mxGeometry width="270" height="520" as="geometry" />
        </mxCell>
        <mxCell id="wgLTDH14QdpL1y7HmuoE-109" value="" style="verticalLabelPosition=bottom;verticalAlign=top;html=1;shadow=0;dashed=0;strokeWidth=1;strokeColor=none;shape=rect;fillColor=#33b5e5;points=[[0,0,0,0,0],[0,0.25,0,0,0],[0,0.5,0,0,0],[0,0.75,0,0,0],[0,1,0,0,0],[0.25,0,0,0,0],[0.25,1,0,0,0],[0.5,0,0,0,0],[0.5,1,0,0,0],[0.75,0,0,0,0],[0.75,1,0,0,0],[1,0,0,0,0],[1,0.25,0,0,0],[1,0.5,0,0,0],[1,0.75,0,0,0],[1,1,0,0,0]];" vertex="1" parent="wgLTDH14QdpL1y7HmuoE-107">
          <mxGeometry x="12" y="47" width="248" height="426" as="geometry" />
        </mxCell>
        <mxCell id="wgLTDH14QdpL1y7HmuoE-110" value="&lt;h2&gt;&lt;font face=&quot;Tahoma&quot; style=&quot;font-size: 21px; color: rgb(255, 255, 255);&quot;&gt;Mine Sweeper&lt;/font&gt;&lt;/h2&gt;" style="rounded=1;whiteSpace=wrap;html=1;fillColor=#0000CC;strokeColor=#333333;opacity=60;" vertex="1" parent="wgLTDH14QdpL1y7HmuoE-107">
          <mxGeometry x="33.25" y="61" width="203.5" height="36" as="geometry" />
        </mxCell>
        <mxCell id="wgLTDH14QdpL1y7HmuoE-114" value="" style="whiteSpace=wrap;html=1;aspect=fixed;fillColor=#CCCCCC;fontColor=#333333;strokeColor=#666666;" vertex="1" parent="wgLTDH14QdpL1y7HmuoE-107">
          <mxGeometry x="22" y="132" width="226" height="226" as="geometry" />
        </mxCell>
        <mxCell id="wgLTDH14QdpL1y7HmuoE-116" value="" style="shape=table;startSize=0;container=1;collapsible=0;childLayout=tableLayout;fontSize=16;fillColor=#CCCCCC;" vertex="1" parent="wgLTDH14QdpL1y7HmuoE-107">
          <mxGeometry x="22" y="132" width="114" height="114" as="geometry" />
        </mxCell>
        <mxCell id="wgLTDH14QdpL1y7HmuoE-117" value="" style="shape=tableRow;horizontal=0;startSize=0;swimlaneHead=0;swimlaneBody=0;strokeColor=inherit;top=0;left=0;bottom=0;right=0;collapsible=0;dropTarget=0;fillColor=none;points=[[0,0.5],[1,0.5]];portConstraint=eastwest;fontSize=16;" vertex="1" parent="wgLTDH14QdpL1y7HmuoE-116">
          <mxGeometry width="114" height="38" as="geometry" />
        </mxCell>
        <mxCell id="wgLTDH14QdpL1y7HmuoE-118" value="" style="shape=partialRectangle;html=1;whiteSpace=wrap;connectable=0;strokeColor=inherit;overflow=hidden;fillColor=none;top=0;left=0;bottom=0;right=0;pointerEvents=1;fontSize=16;" vertex="1" parent="wgLTDH14QdpL1y7HmuoE-117">
          <mxGeometry width="38" height="38" as="geometry">
            <mxRectangle width="38" height="38" as="alternateBounds" />
          </mxGeometry>
        </mxCell>
        <mxCell id="wgLTDH14QdpL1y7HmuoE-119" value="" style="shape=partialRectangle;html=1;whiteSpace=wrap;connectable=0;strokeColor=inherit;overflow=hidden;fillColor=none;top=0;left=0;bottom=0;right=0;pointerEvents=1;fontSize=16;" vertex="1" parent="wgLTDH14QdpL1y7HmuoE-117">
          <mxGeometry x="38" width="38" height="38" as="geometry">
            <mxRectangle width="38" height="38" as="alternateBounds" />
          </mxGeometry>
        </mxCell>
        <mxCell id="wgLTDH14QdpL1y7HmuoE-120" value="" style="shape=partialRectangle;html=1;whiteSpace=wrap;connectable=0;strokeColor=inherit;overflow=hidden;fillColor=none;top=0;left=0;bottom=0;right=0;pointerEvents=1;fontSize=16;" vertex="1" parent="wgLTDH14QdpL1y7HmuoE-117">
          <mxGeometry x="76" width="38" height="38" as="geometry">
            <mxRectangle width="38" height="38" as="alternateBounds" />
          </mxGeometry>
        </mxCell>
        <mxCell id="wgLTDH14QdpL1y7HmuoE-121" value="" style="shape=tableRow;horizontal=0;startSize=0;swimlaneHead=0;swimlaneBody=0;strokeColor=inherit;top=0;left=0;bottom=0;right=0;collapsible=0;dropTarget=0;fillColor=none;points=[[0,0.5],[1,0.5]];portConstraint=eastwest;fontSize=16;" vertex="1" parent="wgLTDH14QdpL1y7HmuoE-116">
          <mxGeometry y="38" width="114" height="38" as="geometry" />
        </mxCell>
        <mxCell id="wgLTDH14QdpL1y7HmuoE-122" value="" style="shape=partialRectangle;html=1;whiteSpace=wrap;connectable=0;strokeColor=inherit;overflow=hidden;fillColor=none;top=0;left=0;bottom=0;right=0;pointerEvents=1;fontSize=16;" vertex="1" parent="wgLTDH14QdpL1y7HmuoE-121">
          <mxGeometry width="38" height="38" as="geometry">
            <mxRectangle width="38" height="38" as="alternateBounds" />
          </mxGeometry>
        </mxCell>
        <mxCell id="wgLTDH14QdpL1y7HmuoE-123" value="" style="shape=partialRectangle;html=1;whiteSpace=wrap;connectable=0;strokeColor=inherit;overflow=hidden;fillColor=none;top=0;left=0;bottom=0;right=0;pointerEvents=1;fontSize=16;" vertex="1" parent="wgLTDH14QdpL1y7HmuoE-121">
          <mxGeometry x="38" width="38" height="38" as="geometry">
            <mxRectangle width="38" height="38" as="alternateBounds" />
          </mxGeometry>
        </mxCell>
        <mxCell id="wgLTDH14QdpL1y7HmuoE-124" value="" style="shape=partialRectangle;html=1;whiteSpace=wrap;connectable=0;strokeColor=inherit;overflow=hidden;fillColor=none;top=0;left=0;bottom=0;right=0;pointerEvents=1;fontSize=16;" vertex="1" parent="wgLTDH14QdpL1y7HmuoE-121">
          <mxGeometry x="76" width="38" height="38" as="geometry">
            <mxRectangle width="38" height="38" as="alternateBounds" />
          </mxGeometry>
        </mxCell>
        <mxCell id="wgLTDH14QdpL1y7HmuoE-125" value="" style="shape=tableRow;horizontal=0;startSize=0;swimlaneHead=0;swimlaneBody=0;strokeColor=inherit;top=0;left=0;bottom=0;right=0;collapsible=0;dropTarget=0;fillColor=none;points=[[0,0.5],[1,0.5]];portConstraint=eastwest;fontSize=16;" vertex="1" parent="wgLTDH14QdpL1y7HmuoE-116">
          <mxGeometry y="76" width="114" height="38" as="geometry" />
        </mxCell>
        <mxCell id="wgLTDH14QdpL1y7HmuoE-126" value="" style="shape=partialRectangle;html=1;whiteSpace=wrap;connectable=0;strokeColor=inherit;overflow=hidden;fillColor=none;top=0;left=0;bottom=0;right=0;pointerEvents=1;fontSize=16;" vertex="1" parent="wgLTDH14QdpL1y7HmuoE-125">
          <mxGeometry width="38" height="38" as="geometry">
            <mxRectangle width="38" height="38" as="alternateBounds" />
          </mxGeometry>
        </mxCell>
        <mxCell id="wgLTDH14QdpL1y7HmuoE-127" value="" style="shape=partialRectangle;html=1;whiteSpace=wrap;connectable=0;strokeColor=inherit;overflow=hidden;fillColor=none;top=0;left=0;bottom=0;right=0;pointerEvents=1;fontSize=16;" vertex="1" parent="wgLTDH14QdpL1y7HmuoE-125">
          <mxGeometry x="38" width="38" height="38" as="geometry">
            <mxRectangle width="38" height="38" as="alternateBounds" />
          </mxGeometry>
        </mxCell>
        <mxCell id="wgLTDH14QdpL1y7HmuoE-128" value="" style="shape=partialRectangle;html=1;whiteSpace=wrap;connectable=0;strokeColor=inherit;overflow=hidden;fillColor=none;top=0;left=0;bottom=0;right=0;pointerEvents=1;fontSize=16;" vertex="1" parent="wgLTDH14QdpL1y7HmuoE-125">
          <mxGeometry x="76" width="38" height="38" as="geometry">
            <mxRectangle width="38" height="38" as="alternateBounds" />
          </mxGeometry>
        </mxCell>
        <mxCell id="wgLTDH14QdpL1y7HmuoE-142" value="" style="shape=table;startSize=0;container=1;collapsible=0;childLayout=tableLayout;fontSize=16;fillColor=#CCCCCC;" vertex="1" parent="wgLTDH14QdpL1y7HmuoE-107">
          <mxGeometry x="134" y="132" width="114" height="114" as="geometry" />
        </mxCell>
        <mxCell id="wgLTDH14QdpL1y7HmuoE-143" value="" style="shape=tableRow;horizontal=0;startSize=0;swimlaneHead=0;swimlaneBody=0;strokeColor=inherit;top=0;left=0;bottom=0;right=0;collapsible=0;dropTarget=0;fillColor=none;points=[[0,0.5],[1,0.5]];portConstraint=eastwest;fontSize=16;" vertex="1" parent="wgLTDH14QdpL1y7HmuoE-142">
          <mxGeometry width="114" height="38" as="geometry" />
        </mxCell>
        <mxCell id="wgLTDH14QdpL1y7HmuoE-144" value="" style="shape=partialRectangle;html=1;whiteSpace=wrap;connectable=0;strokeColor=inherit;overflow=hidden;fillColor=none;top=0;left=0;bottom=0;right=0;pointerEvents=1;fontSize=16;" vertex="1" parent="wgLTDH14QdpL1y7HmuoE-143">
          <mxGeometry width="38" height="38" as="geometry">
            <mxRectangle width="38" height="38" as="alternateBounds" />
          </mxGeometry>
        </mxCell>
        <mxCell id="wgLTDH14QdpL1y7HmuoE-145" value="" style="shape=partialRectangle;html=1;whiteSpace=wrap;connectable=0;strokeColor=inherit;overflow=hidden;fillColor=none;top=0;left=0;bottom=0;right=0;pointerEvents=1;fontSize=16;" vertex="1" parent="wgLTDH14QdpL1y7HmuoE-143">
          <mxGeometry x="38" width="38" height="38" as="geometry">
            <mxRectangle width="38" height="38" as="alternateBounds" />
          </mxGeometry>
        </mxCell>
        <mxCell id="wgLTDH14QdpL1y7HmuoE-146" value="" style="shape=partialRectangle;html=1;whiteSpace=wrap;connectable=0;strokeColor=inherit;overflow=hidden;fillColor=none;top=0;left=0;bottom=0;right=0;pointerEvents=1;fontSize=16;" vertex="1" parent="wgLTDH14QdpL1y7HmuoE-143">
          <mxGeometry x="76" width="38" height="38" as="geometry">
            <mxRectangle width="38" height="38" as="alternateBounds" />
          </mxGeometry>
        </mxCell>
        <mxCell id="wgLTDH14QdpL1y7HmuoE-147" value="" style="shape=tableRow;horizontal=0;startSize=0;swimlaneHead=0;swimlaneBody=0;strokeColor=inherit;top=0;left=0;bottom=0;right=0;collapsible=0;dropTarget=0;fillColor=none;points=[[0,0.5],[1,0.5]];portConstraint=eastwest;fontSize=16;" vertex="1" parent="wgLTDH14QdpL1y7HmuoE-142">
          <mxGeometry y="38" width="114" height="38" as="geometry" />
        </mxCell>
        <mxCell id="wgLTDH14QdpL1y7HmuoE-148" value="" style="shape=partialRectangle;html=1;whiteSpace=wrap;connectable=0;strokeColor=inherit;overflow=hidden;fillColor=none;top=0;left=0;bottom=0;right=0;pointerEvents=1;fontSize=16;" vertex="1" parent="wgLTDH14QdpL1y7HmuoE-147">
          <mxGeometry width="38" height="38" as="geometry">
            <mxRectangle width="38" height="38" as="alternateBounds" />
          </mxGeometry>
        </mxCell>
        <mxCell id="wgLTDH14QdpL1y7HmuoE-149" value="" style="shape=partialRectangle;html=1;whiteSpace=wrap;connectable=0;strokeColor=inherit;overflow=hidden;fillColor=none;top=0;left=0;bottom=0;right=0;pointerEvents=1;fontSize=16;" vertex="1" parent="wgLTDH14QdpL1y7HmuoE-147">
          <mxGeometry x="38" width="38" height="38" as="geometry">
            <mxRectangle width="38" height="38" as="alternateBounds" />
          </mxGeometry>
        </mxCell>
        <mxCell id="wgLTDH14QdpL1y7HmuoE-150" value="" style="shape=partialRectangle;html=1;whiteSpace=wrap;connectable=0;strokeColor=inherit;overflow=hidden;fillColor=none;top=0;left=0;bottom=0;right=0;pointerEvents=1;fontSize=16;" vertex="1" parent="wgLTDH14QdpL1y7HmuoE-147">
          <mxGeometry x="76" width="38" height="38" as="geometry">
            <mxRectangle width="38" height="38" as="alternateBounds" />
          </mxGeometry>
        </mxCell>
        <mxCell id="wgLTDH14QdpL1y7HmuoE-151" value="" style="shape=tableRow;horizontal=0;startSize=0;swimlaneHead=0;swimlaneBody=0;strokeColor=inherit;top=0;left=0;bottom=0;right=0;collapsible=0;dropTarget=0;fillColor=none;points=[[0,0.5],[1,0.5]];portConstraint=eastwest;fontSize=16;" vertex="1" parent="wgLTDH14QdpL1y7HmuoE-142">
          <mxGeometry y="76" width="114" height="38" as="geometry" />
        </mxCell>
        <mxCell id="wgLTDH14QdpL1y7HmuoE-152" value="" style="shape=partialRectangle;html=1;whiteSpace=wrap;connectable=0;strokeColor=inherit;overflow=hidden;fillColor=none;top=0;left=0;bottom=0;right=0;pointerEvents=1;fontSize=16;" vertex="1" parent="wgLTDH14QdpL1y7HmuoE-151">
          <mxGeometry width="38" height="38" as="geometry">
            <mxRectangle width="38" height="38" as="alternateBounds" />
          </mxGeometry>
        </mxCell>
        <mxCell id="wgLTDH14QdpL1y7HmuoE-153" value="" style="shape=partialRectangle;html=1;whiteSpace=wrap;connectable=0;strokeColor=inherit;overflow=hidden;fillColor=none;top=0;left=0;bottom=0;right=0;pointerEvents=1;fontSize=16;" vertex="1" parent="wgLTDH14QdpL1y7HmuoE-151">
          <mxGeometry x="38" width="38" height="38" as="geometry">
            <mxRectangle width="38" height="38" as="alternateBounds" />
          </mxGeometry>
        </mxCell>
        <mxCell id="wgLTDH14QdpL1y7HmuoE-154" value="" style="shape=partialRectangle;html=1;whiteSpace=wrap;connectable=0;strokeColor=inherit;overflow=hidden;fillColor=none;top=0;left=0;bottom=0;right=0;pointerEvents=1;fontSize=16;" vertex="1" parent="wgLTDH14QdpL1y7HmuoE-151">
          <mxGeometry x="76" width="38" height="38" as="geometry">
            <mxRectangle width="38" height="38" as="alternateBounds" />
          </mxGeometry>
        </mxCell>
        <mxCell id="wgLTDH14QdpL1y7HmuoE-155" value="" style="shape=table;startSize=0;container=1;collapsible=0;childLayout=tableLayout;fontSize=16;fillColor=#CCCCCC;" vertex="1" parent="wgLTDH14QdpL1y7HmuoE-107">
          <mxGeometry x="22" y="244" width="114" height="114" as="geometry" />
        </mxCell>
        <mxCell id="wgLTDH14QdpL1y7HmuoE-156" value="" style="shape=tableRow;horizontal=0;startSize=0;swimlaneHead=0;swimlaneBody=0;strokeColor=inherit;top=0;left=0;bottom=0;right=0;collapsible=0;dropTarget=0;fillColor=none;points=[[0,0.5],[1,0.5]];portConstraint=eastwest;fontSize=16;" vertex="1" parent="wgLTDH14QdpL1y7HmuoE-155">
          <mxGeometry width="114" height="38" as="geometry" />
        </mxCell>
        <mxCell id="wgLTDH14QdpL1y7HmuoE-157" value="" style="shape=partialRectangle;html=1;whiteSpace=wrap;connectable=0;strokeColor=inherit;overflow=hidden;fillColor=none;top=0;left=0;bottom=0;right=0;pointerEvents=1;fontSize=16;" vertex="1" parent="wgLTDH14QdpL1y7HmuoE-156">
          <mxGeometry width="38" height="38" as="geometry">
            <mxRectangle width="38" height="38" as="alternateBounds" />
          </mxGeometry>
        </mxCell>
        <mxCell id="wgLTDH14QdpL1y7HmuoE-158" value="" style="shape=partialRectangle;html=1;whiteSpace=wrap;connectable=0;strokeColor=inherit;overflow=hidden;fillColor=none;top=0;left=0;bottom=0;right=0;pointerEvents=1;fontSize=16;" vertex="1" parent="wgLTDH14QdpL1y7HmuoE-156">
          <mxGeometry x="38" width="38" height="38" as="geometry">
            <mxRectangle width="38" height="38" as="alternateBounds" />
          </mxGeometry>
        </mxCell>
        <mxCell id="wgLTDH14QdpL1y7HmuoE-159" value="" style="shape=partialRectangle;html=1;whiteSpace=wrap;connectable=0;strokeColor=inherit;overflow=hidden;fillColor=none;top=0;left=0;bottom=0;right=0;pointerEvents=1;fontSize=16;" vertex="1" parent="wgLTDH14QdpL1y7HmuoE-156">
          <mxGeometry x="76" width="38" height="38" as="geometry">
            <mxRectangle width="38" height="38" as="alternateBounds" />
          </mxGeometry>
        </mxCell>
        <mxCell id="wgLTDH14QdpL1y7HmuoE-160" value="" style="shape=tableRow;horizontal=0;startSize=0;swimlaneHead=0;swimlaneBody=0;strokeColor=inherit;top=0;left=0;bottom=0;right=0;collapsible=0;dropTarget=0;fillColor=none;points=[[0,0.5],[1,0.5]];portConstraint=eastwest;fontSize=16;" vertex="1" parent="wgLTDH14QdpL1y7HmuoE-155">
          <mxGeometry y="38" width="114" height="38" as="geometry" />
        </mxCell>
        <mxCell id="wgLTDH14QdpL1y7HmuoE-161" value="" style="shape=partialRectangle;html=1;whiteSpace=wrap;connectable=0;strokeColor=inherit;overflow=hidden;fillColor=none;top=0;left=0;bottom=0;right=0;pointerEvents=1;fontSize=16;" vertex="1" parent="wgLTDH14QdpL1y7HmuoE-160">
          <mxGeometry width="38" height="38" as="geometry">
            <mxRectangle width="38" height="38" as="alternateBounds" />
          </mxGeometry>
        </mxCell>
        <mxCell id="wgLTDH14QdpL1y7HmuoE-162" value="" style="shape=partialRectangle;html=1;whiteSpace=wrap;connectable=0;strokeColor=inherit;overflow=hidden;fillColor=none;top=0;left=0;bottom=0;right=0;pointerEvents=1;fontSize=16;" vertex="1" parent="wgLTDH14QdpL1y7HmuoE-160">
          <mxGeometry x="38" width="38" height="38" as="geometry">
            <mxRectangle width="38" height="38" as="alternateBounds" />
          </mxGeometry>
        </mxCell>
        <mxCell id="wgLTDH14QdpL1y7HmuoE-163" value="" style="shape=partialRectangle;html=1;whiteSpace=wrap;connectable=0;strokeColor=inherit;overflow=hidden;fillColor=none;top=0;left=0;bottom=0;right=0;pointerEvents=1;fontSize=16;" vertex="1" parent="wgLTDH14QdpL1y7HmuoE-160">
          <mxGeometry x="76" width="38" height="38" as="geometry">
            <mxRectangle width="38" height="38" as="alternateBounds" />
          </mxGeometry>
        </mxCell>
        <mxCell id="wgLTDH14QdpL1y7HmuoE-164" value="" style="shape=tableRow;horizontal=0;startSize=0;swimlaneHead=0;swimlaneBody=0;strokeColor=inherit;top=0;left=0;bottom=0;right=0;collapsible=0;dropTarget=0;fillColor=none;points=[[0,0.5],[1,0.5]];portConstraint=eastwest;fontSize=16;" vertex="1" parent="wgLTDH14QdpL1y7HmuoE-155">
          <mxGeometry y="76" width="114" height="38" as="geometry" />
        </mxCell>
        <mxCell id="wgLTDH14QdpL1y7HmuoE-165" value="" style="shape=partialRectangle;html=1;whiteSpace=wrap;connectable=0;strokeColor=inherit;overflow=hidden;fillColor=none;top=0;left=0;bottom=0;right=0;pointerEvents=1;fontSize=16;" vertex="1" parent="wgLTDH14QdpL1y7HmuoE-164">
          <mxGeometry width="38" height="38" as="geometry">
            <mxRectangle width="38" height="38" as="alternateBounds" />
          </mxGeometry>
        </mxCell>
        <mxCell id="wgLTDH14QdpL1y7HmuoE-166" value="" style="shape=partialRectangle;html=1;whiteSpace=wrap;connectable=0;strokeColor=inherit;overflow=hidden;fillColor=none;top=0;left=0;bottom=0;right=0;pointerEvents=1;fontSize=16;" vertex="1" parent="wgLTDH14QdpL1y7HmuoE-164">
          <mxGeometry x="38" width="38" height="38" as="geometry">
            <mxRectangle width="38" height="38" as="alternateBounds" />
          </mxGeometry>
        </mxCell>
        <mxCell id="wgLTDH14QdpL1y7HmuoE-167" value="" style="shape=partialRectangle;html=1;whiteSpace=wrap;connectable=0;strokeColor=inherit;overflow=hidden;fillColor=none;top=0;left=0;bottom=0;right=0;pointerEvents=1;fontSize=16;" vertex="1" parent="wgLTDH14QdpL1y7HmuoE-164">
          <mxGeometry x="76" width="38" height="38" as="geometry">
            <mxRectangle width="38" height="38" as="alternateBounds" />
          </mxGeometry>
        </mxCell>
        <mxCell id="wgLTDH14QdpL1y7HmuoE-168" value="" style="shape=table;startSize=0;container=1;collapsible=0;childLayout=tableLayout;fontSize=16;fillColor=#CCCCCC;" vertex="1" parent="wgLTDH14QdpL1y7HmuoE-107">
          <mxGeometry x="134" y="244" width="114" height="114" as="geometry" />
        </mxCell>
        <mxCell id="wgLTDH14QdpL1y7HmuoE-169" value="" style="shape=tableRow;horizontal=0;startSize=0;swimlaneHead=0;swimlaneBody=0;strokeColor=inherit;top=0;left=0;bottom=0;right=0;collapsible=0;dropTarget=0;fillColor=none;points=[[0,0.5],[1,0.5]];portConstraint=eastwest;fontSize=16;" vertex="1" parent="wgLTDH14QdpL1y7HmuoE-168">
          <mxGeometry width="114" height="38" as="geometry" />
        </mxCell>
        <mxCell id="wgLTDH14QdpL1y7HmuoE-170" value="" style="shape=partialRectangle;html=1;whiteSpace=wrap;connectable=0;strokeColor=inherit;overflow=hidden;fillColor=none;top=0;left=0;bottom=0;right=0;pointerEvents=1;fontSize=16;" vertex="1" parent="wgLTDH14QdpL1y7HmuoE-169">
          <mxGeometry width="38" height="38" as="geometry">
            <mxRectangle width="38" height="38" as="alternateBounds" />
          </mxGeometry>
        </mxCell>
        <mxCell id="wgLTDH14QdpL1y7HmuoE-171" value="" style="shape=partialRectangle;html=1;whiteSpace=wrap;connectable=0;strokeColor=inherit;overflow=hidden;fillColor=none;top=0;left=0;bottom=0;right=0;pointerEvents=1;fontSize=16;" vertex="1" parent="wgLTDH14QdpL1y7HmuoE-169">
          <mxGeometry x="38" width="38" height="38" as="geometry">
            <mxRectangle width="38" height="38" as="alternateBounds" />
          </mxGeometry>
        </mxCell>
        <mxCell id="wgLTDH14QdpL1y7HmuoE-172" value="" style="shape=partialRectangle;html=1;whiteSpace=wrap;connectable=0;strokeColor=inherit;overflow=hidden;fillColor=none;top=0;left=0;bottom=0;right=0;pointerEvents=1;fontSize=16;" vertex="1" parent="wgLTDH14QdpL1y7HmuoE-169">
          <mxGeometry x="76" width="38" height="38" as="geometry">
            <mxRectangle width="38" height="38" as="alternateBounds" />
          </mxGeometry>
        </mxCell>
        <mxCell id="wgLTDH14QdpL1y7HmuoE-173" value="" style="shape=tableRow;horizontal=0;startSize=0;swimlaneHead=0;swimlaneBody=0;strokeColor=inherit;top=0;left=0;bottom=0;right=0;collapsible=0;dropTarget=0;fillColor=none;points=[[0,0.5],[1,0.5]];portConstraint=eastwest;fontSize=16;" vertex="1" parent="wgLTDH14QdpL1y7HmuoE-168">
          <mxGeometry y="38" width="114" height="38" as="geometry" />
        </mxCell>
        <mxCell id="wgLTDH14QdpL1y7HmuoE-174" value="" style="shape=partialRectangle;html=1;whiteSpace=wrap;connectable=0;strokeColor=inherit;overflow=hidden;fillColor=none;top=0;left=0;bottom=0;right=0;pointerEvents=1;fontSize=16;" vertex="1" parent="wgLTDH14QdpL1y7HmuoE-173">
          <mxGeometry width="38" height="38" as="geometry">
            <mxRectangle width="38" height="38" as="alternateBounds" />
          </mxGeometry>
        </mxCell>
        <mxCell id="wgLTDH14QdpL1y7HmuoE-175" value="" style="shape=partialRectangle;html=1;whiteSpace=wrap;connectable=0;strokeColor=inherit;overflow=hidden;fillColor=none;top=0;left=0;bottom=0;right=0;pointerEvents=1;fontSize=16;" vertex="1" parent="wgLTDH14QdpL1y7HmuoE-173">
          <mxGeometry x="38" width="38" height="38" as="geometry">
            <mxRectangle width="38" height="38" as="alternateBounds" />
          </mxGeometry>
        </mxCell>
        <mxCell id="wgLTDH14QdpL1y7HmuoE-176" value="" style="shape=partialRectangle;html=1;whiteSpace=wrap;connectable=0;strokeColor=inherit;overflow=hidden;fillColor=none;top=0;left=0;bottom=0;right=0;pointerEvents=1;fontSize=16;" vertex="1" parent="wgLTDH14QdpL1y7HmuoE-173">
          <mxGeometry x="76" width="38" height="38" as="geometry">
            <mxRectangle width="38" height="38" as="alternateBounds" />
          </mxGeometry>
        </mxCell>
        <mxCell id="wgLTDH14QdpL1y7HmuoE-177" value="" style="shape=tableRow;horizontal=0;startSize=0;swimlaneHead=0;swimlaneBody=0;strokeColor=inherit;top=0;left=0;bottom=0;right=0;collapsible=0;dropTarget=0;fillColor=none;points=[[0,0.5],[1,0.5]];portConstraint=eastwest;fontSize=16;" vertex="1" parent="wgLTDH14QdpL1y7HmuoE-168">
          <mxGeometry y="76" width="114" height="38" as="geometry" />
        </mxCell>
        <mxCell id="wgLTDH14QdpL1y7HmuoE-178" value="" style="shape=partialRectangle;html=1;whiteSpace=wrap;connectable=0;strokeColor=inherit;overflow=hidden;fillColor=none;top=0;left=0;bottom=0;right=0;pointerEvents=1;fontSize=16;" vertex="1" parent="wgLTDH14QdpL1y7HmuoE-177">
          <mxGeometry width="38" height="38" as="geometry">
            <mxRectangle width="38" height="38" as="alternateBounds" />
          </mxGeometry>
        </mxCell>
        <mxCell id="wgLTDH14QdpL1y7HmuoE-179" value="" style="shape=partialRectangle;html=1;whiteSpace=wrap;connectable=0;strokeColor=inherit;overflow=hidden;fillColor=none;top=0;left=0;bottom=0;right=0;pointerEvents=1;fontSize=16;" vertex="1" parent="wgLTDH14QdpL1y7HmuoE-177">
          <mxGeometry x="38" width="38" height="38" as="geometry">
            <mxRectangle width="38" height="38" as="alternateBounds" />
          </mxGeometry>
        </mxCell>
        <mxCell id="wgLTDH14QdpL1y7HmuoE-180" value="" style="shape=partialRectangle;html=1;whiteSpace=wrap;connectable=0;strokeColor=inherit;overflow=hidden;fillColor=none;top=0;left=0;bottom=0;right=0;pointerEvents=1;fontSize=16;" vertex="1" parent="wgLTDH14QdpL1y7HmuoE-177">
          <mxGeometry x="76" width="38" height="38" as="geometry">
            <mxRectangle width="38" height="38" as="alternateBounds" />
          </mxGeometry>
        </mxCell>
        <mxCell id="wgLTDH14QdpL1y7HmuoE-182" value="" style="group;" vertex="1" connectable="0" parent="1">
          <mxGeometry x="463" y="559" width="270" height="520" as="geometry" />
        </mxCell>
        <mxCell id="wgLTDH14QdpL1y7HmuoE-183" value="" style="verticalLabelPosition=bottom;verticalAlign=top;html=1;shadow=0;dashed=0;strokeWidth=1;shape=mxgraph.android.phone2;fillColor=#000000;strokeColor=#000000;fontColor=#333333;" vertex="1" parent="wgLTDH14QdpL1y7HmuoE-182">
          <mxGeometry width="270" height="520" as="geometry" />
        </mxCell>
        <mxCell id="wgLTDH14QdpL1y7HmuoE-184" value="" style="verticalLabelPosition=bottom;verticalAlign=top;html=1;shadow=0;dashed=0;strokeWidth=1;strokeColor=none;shape=rect;fillColor=#33b5e5;points=[[0,0,0,0,0],[0,0.25,0,0,0],[0,0.5,0,0,0],[0,0.75,0,0,0],[0,1,0,0,0],[0.25,0,0,0,0],[0.25,1,0,0,0],[0.5,0,0,0,0],[0.5,1,0,0,0],[0.75,0,0,0,0],[0.75,1,0,0,0],[1,0,0,0,0],[1,0.25,0,0,0],[1,0.5,0,0,0],[1,0.75,0,0,0],[1,1,0,0,0]];" vertex="1" parent="wgLTDH14QdpL1y7HmuoE-182">
          <mxGeometry x="12" y="47" width="248" height="426" as="geometry" />
        </mxCell>
        <mxCell id="wgLTDH14QdpL1y7HmuoE-185" value="&lt;h2&gt;&lt;font face=&quot;Tahoma&quot; style=&quot;font-size: 21px; color: rgb(255, 255, 255);&quot;&gt;Mine Sweeper&lt;/font&gt;&lt;/h2&gt;" style="rounded=1;whiteSpace=wrap;html=1;fillColor=#0000CC;strokeColor=#333333;opacity=60;" vertex="1" parent="wgLTDH14QdpL1y7HmuoE-182">
          <mxGeometry x="33.25" y="61" width="203.5" height="36" as="geometry" />
        </mxCell>
        <mxCell id="wgLTDH14QdpL1y7HmuoE-239" value="&lt;h1&gt;&lt;font style=&quot;color: rgb(255, 255, 255);&quot; face=&quot;Tahoma&quot;&gt;You Win/Lose&lt;/font&gt;&lt;/h1&gt;" style="text;html=1;align=center;verticalAlign=middle;resizable=0;points=[];autosize=1;strokeColor=none;fillColor=none;" vertex="1" parent="wgLTDH14QdpL1y7HmuoE-182">
          <mxGeometry x="41" y="154" width="188" height="74" as="geometry" />
        </mxCell>
        <mxCell id="wgLTDH14QdpL1y7HmuoE-240" value="&lt;h1&gt;&lt;font style=&quot;color: rgb(255, 255, 255);&quot; face=&quot;Tahoma&quot;&gt;PLAY AGAIN&lt;/font&gt;&lt;/h1&gt;" style="rounded=1;html=1;shadow=0;dashed=0;whiteSpace=wrap;fontSize=10;fillColor=#0000CC;align=center;strokeColor=#4D4D4D;fontColor=#ffffff;opacity=50;" vertex="1" parent="wgLTDH14QdpL1y7HmuoE-182">
          <mxGeometry x="55.31" y="286" width="161.38" height="36.88" as="geometry" />
        </mxCell>
      </root>
    </mxGraphModel>
  </diagram>
</mxfile>
